<svg width="1072" height="178" viewBox="0 0 1072 178" fill="none" xmlns="http://www.w3.org/2000/svg">
<path d="M1064.46 113.09H970.611V169.346H966V98.626H970.54V94H1064.43V98.5623H1069V169.37H1064.46V113.09H1064.46ZM1046.61 106.406V100.628H1040.83V106.406H1046.61ZM1052.68 100.603V106.381H1058.45V100.603H1052.68Z" fill="white"/>
<path d="M970.622 174V169.466H1064.4V174H970.622Z" fill="white"/>
<path d="M999.906 139V135H1003.81V139H999.906ZM1003.81 151V139H1007.72V151H1003.81ZM996 135V131H999.906V135H996ZM1007.72 139V135H1011.62V139H1007.72ZM1011.62 135V131H1015.53V135H1011.62Z" fill="white"/>
<path d="M1019.47 131H1039V135H1031.19V151H1027.28V135H1019.47V131Z" fill="white"/>
<path d="M13.0994 163.848H113.401V170H13.0994V163.848Z" fill="white"/>
<path d="M26.2018 98H100.298V104.152H26.2018V98Z" fill="white"/>
<path d="M7 150.861H119.5V157.013H7V150.861Z" fill="white"/>
<path d="M113.401 157.013H119.5V163.848H113.401V157.013Z" fill="white"/>
<path d="M100.298 104.152H106.398V150.861H100.298V104.152Z" fill="white"/>
<path d="M7 157.013H13.0994V163.848H7V157.013Z" fill="white"/>
<path d="M20.1024 104.152H26.2018V150.861H20.1024V104.152Z" fill="white"/>
<path d="M565.164 51.4098C565.164 50.361 565.176 49.3109 565.161 48.2621C565.158 47.9645 565.241 47.8649 565.549 47.8673C567.599 47.8793 569.649 47.8733 571.698 47.8733C572.049 47.8733 572.224 47.7029 572.224 47.3621C572.224 39.4588 572.224 31.5554 572.224 23.652C572.224 23.34 572.381 23.184 572.696 23.184C573.606 23.184 574.515 23.1768 575.425 23.1888C575.674 23.1924 575.755 23.1108 575.752 22.8624C575.741 21.9036 575.757 20.9436 575.743 19.9848C575.739 19.7172 575.828 19.6464 576.086 19.6464C582.916 19.6524 589.744 19.6524 596.574 19.6464C596.886 19.6464 596.963 19.7556 596.957 20.0496C596.94 20.9484 596.951 21.8484 596.951 22.7472C596.951 23.0384 597.101 23.1844 597.402 23.1852C598.302 23.1852 599.202 23.1972 600.102 23.1792C600.412 23.1732 600.484 23.274 600.484 23.5728C600.477 32.6954 600.478 41.8168 600.478 50.9394C600.478 51.253 600.633 51.4098 600.945 51.4098C601.865 51.4098 602.785 51.4122 603.705 51.4086C603.887 51.4086 604.001 51.4278 604 51.663C603.993 53.8614 603.995 56.0587 603.994 58.2571C603.994 58.3147 603.978 58.3723 603.964 58.4707C603.852 58.4707 603.745 58.4707 603.639 58.4707C602.689 58.4707 601.739 58.4791 600.789 58.4659C600.535 58.4623 600.468 58.5451 600.471 58.7899C600.483 59.7488 600.468 60.7088 600.48 61.6676C600.483 61.9052 600.43 61.9988 600.169 61.9976C596.839 61.9892 593.51 61.9916 590.18 61.9952C589.976 61.9952 589.866 61.9568 589.87 61.718C589.882 60.6392 589.88 59.5603 589.883 58.4815L589.875 58.4887C590.014 58.4815 590.153 58.4683 590.293 58.4683C593.551 58.4683 596.81 58.4683 600.068 58.4671C600.193 58.4671 600.319 58.4563 600.471 58.4491V58.0915C600.471 55.9939 600.465 53.8962 600.478 51.7986C600.479 51.5022 600.412 51.4098 600.099 51.411C597.14 51.423 594.183 51.4194 591.223 51.4182C590.774 51.4182 590.324 51.4098 589.875 51.4062L589.883 51.4134C589.88 50.3538 589.883 49.2953 589.869 48.2369C589.865 47.9621 589.96 47.8721 590.234 47.8733C592.303 47.8817 594.373 47.8781 596.444 47.8781C596.777 47.8781 596.943 47.7157 596.943 47.3909C596.943 41.8252 596.943 36.2607 596.943 30.695C596.943 30.3966 596.799 30.247 596.51 30.2462C589.731 30.2462 582.952 30.2462 576.172 30.2462C575.892 30.2462 575.752 30.3874 575.752 30.6698C575.752 37.4439 575.752 44.218 575.752 50.9922C575.752 51.2722 575.895 51.4122 576.18 51.4122C577.1 51.4122 578.019 51.4206 578.939 51.4074C579.2 51.4038 579.284 51.483 579.283 51.7482C579.273 53.8758 579.272 56.0047 579.283 58.1323C579.284 58.4203 579.18 58.4815 578.917 58.4779C577.957 58.4647 576.996 58.4779 576.037 58.4683C575.812 58.4659 575.745 58.5367 575.747 58.7587C575.758 59.7176 575.752 60.6776 575.752 61.6364C575.752 61.7432 575.752 61.8512 575.752 61.976C575.619 61.9832 575.522 61.9928 575.424 61.9928C572.124 61.9928 568.825 61.9892 565.525 62C565.232 62 565.155 61.9148 565.16 61.6292C565.176 60.5804 565.165 59.5315 565.164 58.4815L565.155 58.4887C565.295 58.4815 565.434 58.4671 565.573 58.4671C568.85 58.4659 572.128 58.4623 575.405 58.4719C575.685 58.4719 575.756 58.3891 575.755 58.1179C575.744 56.0215 575.749 53.925 575.749 51.8274C575.749 51.5538 575.614 51.4166 575.346 51.4158C572.099 51.4158 568.852 51.4158 565.604 51.4158C565.454 51.4158 565.305 51.4074 565.155 51.4038L565.164 51.411V51.4098Z" fill="white"/>
<path d="M547.526 40.7884H544V33.761H547.48C547.487 33.6278 547.498 33.5222 547.498 33.4166C547.499 32.4674 547.508 31.5182 547.493 30.569C547.49 30.3026 547.573 30.2306 547.835 30.2318C549.945 30.2414 552.055 30.2366 554.163 30.2366C554.552 30.2366 554.555 30.2366 554.555 29.8358C554.555 21.9324 554.555 14.0291 554.555 6.12569C554.555 6.02609 554.563 5.92529 554.555 5.82569C554.531 5.57728 554.662 5.52568 554.881 5.52688C555.822 5.53408 556.761 5.53048 557.701 5.52928C558.092 5.52928 558.092 5.52928 558.093 5.12608C558.093 4.18646 558.099 3.24804 558.089 2.30842C558.087 2.07801 558.152 1.99881 558.394 2.00001C561.734 2.00721 565.074 2.00721 568.413 2.00001C568.664 2.00001 568.71 2.09361 568.708 2.31442C568.698 3.26364 568.714 4.21286 568.698 5.16208C568.693 5.44408 568.765 5.54248 569.062 5.53648C570.012 5.51848 570.962 5.53648 571.912 5.52448C572.161 5.52088 572.238 5.60128 572.235 5.84969C572.223 6.81931 572.223 7.78773 572.235 8.75735C572.237 8.99615 572.159 9.06695 571.926 9.06455C570.976 9.05495 570.026 9.07055 569.076 9.05495C568.793 9.05015 568.692 9.12815 568.697 9.42216C568.714 10.351 568.69 11.281 568.71 12.2098C568.717 12.5242 568.606 12.595 568.314 12.595C565.074 12.5866 561.835 12.5902 558.595 12.5902C558.266 12.5902 558.101 12.7566 558.101 13.0894C558.101 19.8432 558.101 26.5981 558.101 33.3518C558.101 33.6206 558.238 33.7554 558.511 33.7562C559.44 33.7562 560.371 33.7646 561.3 33.7514C561.565 33.7478 561.645 33.8366 561.645 34.097C561.637 36.2247 561.64 38.3535 561.641 40.4812C561.641 40.6504 561.641 40.8112 561.405 40.8088C560.295 40.8004 559.187 40.7944 558.077 40.7872L558.087 40.7968C558.089 38.5407 558.089 36.2859 558.099 34.0298C558.099 33.7874 557.988 33.7574 557.788 33.7574C556.249 33.7622 554.711 33.7598 553.173 33.7598C551.384 33.7598 549.596 33.7634 547.809 33.755C547.576 33.755 547.493 33.8198 547.503 34.0586C547.52 34.5267 547.507 34.9971 547.508 35.4663C547.511 37.2423 547.515 39.0195 547.52 40.7956L547.531 40.786L547.526 40.7884Z" fill="white"/>
<path d="M558.073 40.7884C558.082 41.896 558.094 43.0024 558.087 44.11C558.087 44.188 557.946 44.2792 557.855 44.3368C557.804 44.368 557.718 44.344 557.648 44.344C554.413 44.344 551.177 44.344 547.941 44.344C547.648 44.344 547.5 44.196 547.499 43.9C547.499 42.9916 547.499 42.0832 547.499 41.176C547.499 41.0476 547.516 40.918 547.525 40.7896L547.514 40.7992C547.943 40.8016 548.371 40.8064 548.801 40.8064C551.895 40.804 554.988 40.8016 558.082 40.7992L558.072 40.7896L558.073 40.7884Z" fill="white"/>
<path d="M565.164 58.4779C564.104 58.4743 563.045 58.4623 561.986 58.4731C561.707 58.4767 561.625 58.3855 561.626 58.1143C561.634 55.9975 561.634 53.8807 561.626 51.7638C561.626 51.4902 561.71 51.399 561.986 51.4026C563.045 51.4158 564.104 51.4086 565.164 51.4086L565.155 51.4014C565.161 51.5406 565.172 51.6798 565.172 51.819C565.172 53.6526 565.173 55.4863 565.172 57.3199C565.172 57.7087 565.161 58.0963 565.155 58.4851L565.164 58.4779Z" fill="white"/>
<path d="M589.883 58.4779C588.825 58.4743 587.766 58.4623 586.708 58.4731C586.42 58.4767 586.33 58.3843 586.331 58.0975C586.341 55.9915 586.341 53.8867 586.331 51.7806C586.33 51.4926 586.421 51.399 586.708 51.4026C587.766 51.4158 588.825 51.4086 589.884 51.4086L589.876 51.4014C589.876 53.7631 589.876 56.1235 589.876 58.4851L589.884 58.4779H589.883Z" fill="white"/>
<path d="M575.747 14.3242C575.747 13.8346 575.753 13.3462 575.745 12.8566C575.741 12.6502 575.819 12.577 576.026 12.5782C577.015 12.5854 578.004 12.5842 578.993 12.5782C579.196 12.577 579.282 12.6466 579.28 12.8554C579.274 13.8538 579.274 14.8523 579.28 15.8507C579.282 16.0643 579.194 16.1279 578.995 16.1267C578.005 16.1219 577.017 16.1195 576.027 16.1267C575.797 16.1291 575.739 16.0307 575.744 15.8195C575.755 15.3203 575.747 14.8211 575.747 14.3218V14.3242Z" fill="white"/>
<path d="M596.945 14.3231C596.945 13.8442 596.953 13.3654 596.941 12.8866C596.935 12.6502 597.029 12.5758 597.259 12.577C598.227 12.5854 599.195 12.5854 600.163 12.577C600.395 12.5746 600.481 12.6526 600.479 12.889C600.471 13.8658 600.469 14.8439 600.479 15.8207C600.481 16.0655 600.382 16.1279 600.159 16.1267C599.192 16.1207 598.224 16.1195 597.256 16.1267C597.026 16.1291 596.934 16.0547 596.94 15.8171C596.953 15.3191 596.943 14.8199 596.943 14.3207L596.945 14.3231Z" fill="white"/>
<path d="M586.343 5.54607C586.341 4.45765 586.343 3.36803 586.333 2.27961C586.332 2.0744 586.398 2.0012 586.61 2.0036C587.609 2.012 588.609 2.012 589.608 2.0036C589.82 2.0012 589.886 2.0744 589.884 2.27961C589.876 3.36803 589.877 4.45765 589.875 5.54607L589.883 5.53767C588.7 5.53767 587.517 5.53767 586.335 5.53767L586.343 5.54607Z" fill="white"/>
<path d="M586.343 9.07416C585.284 9.07056 584.225 9.05735 583.165 9.06695C582.874 9.06935 582.789 8.97455 582.794 8.68895C582.81 7.75053 582.807 6.81091 582.795 5.87249C582.792 5.61449 582.869 5.52088 583.135 5.52568C584.204 5.54248 585.273 5.54009 586.343 5.54489L586.335 5.53649C586.335 6.71851 586.335 7.90053 586.335 9.08256L586.343 9.07416Z" fill="white"/>
<path d="M589.875 5.54607C590.974 5.54127 592.073 5.53767 593.173 5.53047C593.353 5.52927 593.421 5.60848 593.42 5.78368C593.416 6.7929 593.414 7.80092 593.421 8.81014C593.422 9.04414 593.29 9.06334 593.113 9.06334C592.163 9.06094 591.214 9.06334 590.264 9.06334C590.134 9.06334 590.005 9.07054 589.875 9.07534L589.883 9.08374C589.883 7.90172 589.883 6.71969 589.883 5.53767L589.875 5.54607Z" fill="white"/>
<path d="M584.569 37.2819C585.059 37.2819 585.549 37.2891 586.039 37.2783C586.255 37.2735 586.347 37.3455 586.345 37.5687C586.339 38.5575 586.339 39.5464 586.345 40.5364C586.347 40.7452 586.264 40.816 586.06 40.8148C585.07 40.8088 584.08 40.8076 583.09 40.8148C582.866 40.816 582.795 40.7284 582.797 40.5124C582.805 39.5332 582.805 38.5539 582.797 37.5747C582.795 37.3515 582.883 37.2759 583.099 37.2795C583.589 37.2891 584.079 37.2819 584.569 37.2819Z" fill="white"/>
<path d="M554.561 53.2002C554.561 53.6802 554.554 54.159 554.564 54.6391C554.57 54.8755 554.477 54.9499 554.245 54.9475C553.276 54.9379 552.306 54.9379 551.336 54.9475C551.101 54.9499 551.021 54.8635 551.023 54.6319C551.031 53.6526 551.03 52.6746 551.023 51.6954C551.022 51.4902 551.091 51.4062 551.299 51.4074C552.298 51.4122 553.299 51.4122 554.298 51.4074C554.489 51.4074 554.567 51.4794 554.564 51.6738C554.557 52.1826 554.562 52.6926 554.562 53.2014L554.561 53.2002Z" fill="white"/>
<path d="M589.875 9.07415C589.877 10.141 589.875 11.2066 589.884 12.2734C589.887 12.5026 589.81 12.5962 589.575 12.5938C588.597 12.5866 587.62 12.5866 586.643 12.5938C586.408 12.595 586.331 12.5026 586.333 12.2734C586.343 11.2078 586.341 10.141 586.343 9.07416L586.335 9.08256C586.862 9.07416 587.388 9.05735 587.915 9.05735C588.571 9.05735 589.228 9.07295 589.883 9.08255L589.875 9.07415Z" fill="white"/>
<mask id="path-5-inside-1_3926_170831" fill="white">
<path d="M62 30H454V78H62V30Z"/>
</mask>
<path d="M62 30V29H61V30H62ZM61 30V34H63V30H61ZM61 42V50H63V42H61ZM61 58V66H63V58H61ZM61 74V78H63V74H61ZM454 29H450.08V31H454V29ZM442.24 29H434.4V31H442.24V29ZM426.56 29H418.72V31H426.56V29ZM410.88 29H403.04V31H410.88V29ZM395.2 29H387.36V31H395.2V29ZM379.52 29H371.68V31H379.52V29ZM363.84 29H356V31H363.84V29ZM348.16 29H340.32V31H348.16V29ZM332.48 29H324.64V31H332.48V29ZM316.8 29H308.96V31H316.8V29ZM301.12 29H293.28V31H301.12V29ZM285.44 29H277.6V31H285.44V29ZM269.76 29H261.92V31H269.76V29ZM254.08 29H246.24V31H254.08V29ZM238.4 29H230.56V31H238.4V29ZM222.72 29H214.88V31H222.72V29ZM207.04 29H199.2V31H207.04V29ZM191.36 29H183.52V31H191.36V29ZM175.68 29H167.84V31H175.68V29ZM160 29H152.16V31H160V29ZM144.32 29H136.48V31H144.32V29ZM128.64 29H120.8V31H128.64V29ZM112.96 29H105.12V31H112.96V29ZM97.2801 29H89.4401V31H97.2801V29ZM81.6001 29H73.7601V31H81.6001V29ZM65.9201 29H62V31H65.9201V29ZM62 30V28H60V30H62ZM60 30V34H64V30H60ZM60 42V50H64V42H60ZM60 58V66H64V58H60ZM60 74V78H64V74H60ZM454 28H450.08V32H454V28ZM442.24 28H434.4V32H442.24V28ZM426.56 28H418.72V32H426.56V28ZM410.88 28H403.04V32H410.88V28ZM395.2 28H387.36V32H395.2V28ZM379.52 28H371.68V32H379.52V28ZM363.84 28H356V32H363.84V28ZM348.16 28H340.32V32H348.16V28ZM332.48 28H324.64V32H332.48V28ZM316.8 28H308.96V32H316.8V28ZM301.12 28H293.28V32H301.12V28ZM285.44 28H277.6V32H285.44V28ZM269.76 28H261.92V32H269.76V28ZM254.08 28H246.24V32H254.08V28ZM238.4 28H230.56V32H238.4V28ZM222.72 28H214.88V32H222.72V28ZM207.04 28H199.2V32H207.04V28ZM191.36 28H183.52V32H191.36V28ZM175.68 28H167.84V32H175.68V28ZM160 28H152.16V32H160V28ZM144.32 28H136.48V32H144.32V28ZM128.64 28H120.8V32H128.64V28ZM112.96 28H105.12V32H112.96V28ZM97.2801 28H89.4401V32H97.2801V28ZM81.6001 28H73.7601V32H81.6001V28ZM65.9201 28H62V32H65.9201V28Z" fill="#707070" mask="url(#path-5-inside-1_3926_170831)"/>
<mask id="path-7-inside-2_3926_170831" fill="white">
<path d="M618 30H1017V75H618V30Z"/>
</mask>
<path d="M1017 30H1018V29H1017V30ZM1018 75V71.25H1016V75H1018ZM1018 63.75V56.25H1016V63.75H1018ZM1018 48.75V41.25H1016V48.75H1018ZM1018 33.75V30H1016V33.75H1018ZM1017 29H1013.01V31H1017V29ZM1005.03 29H997.05V31H1005.03V29ZM989.07 29H981.09V31H989.07V29ZM973.11 29H965.13V31H973.11V29ZM957.15 29H949.17V31H957.15V29ZM941.19 29H933.21V31H941.19V29ZM925.23 29H917.25V31H925.23V29ZM909.27 29H901.29V31H909.27V29ZM893.31 29H885.33V31H893.31V29ZM877.35 29H869.37V31H877.35V29ZM861.39 29H853.41V31H861.39V29ZM845.43 29H837.45V31H845.43V29ZM829.47 29H821.49V31H829.47V29ZM813.51 29H805.53V31H813.51V29ZM797.55 29H789.57V31H797.55V29ZM781.59 29H773.61V31H781.59V29ZM765.63 29H757.65V31H765.63V29ZM749.67 29H741.69V31H749.67V29ZM733.71 29H725.73V31H733.71V29ZM717.75 29H709.77V31H717.75V29ZM701.79 29H693.81V31H701.79V29ZM685.83 29H677.85V31H685.83V29ZM669.87 29H661.89V31H669.87V29ZM653.91 29H645.93V31H653.91V29ZM637.95 29H629.97V31H637.95V29ZM621.99 29H618V31H621.99V29ZM1017 30H1019V28H1017V30ZM1019 75V71.25H1015V75H1019ZM1019 63.75V56.25H1015V63.75H1019ZM1019 48.75V41.25H1015V48.75H1019ZM1019 33.75V30H1015V33.75H1019ZM1017 28H1013.01V32H1017V28ZM1005.03 28H997.05V32H1005.03V28ZM989.07 28H981.09V32H989.07V28ZM973.11 28H965.13V32H973.11V28ZM957.15 28H949.17V32H957.15V28ZM941.19 28H933.21V32H941.19V28ZM925.23 28H917.25V32H925.23V28ZM909.27 28H901.29V32H909.27V28ZM893.31 28H885.33V32H893.31V28ZM877.35 28H869.37V32H877.35V28ZM861.39 28H853.41V32H861.39V28ZM845.43 28H837.45V32H845.43V28ZM829.47 28H821.49V32H829.47V28ZM813.51 28H805.53V32H813.51V28ZM797.55 28H789.57V32H797.55V28ZM781.59 28H773.61V32H781.59V28ZM765.63 28H757.65V32H765.63V28ZM749.67 28H741.69V32H749.67V28ZM733.71 28H725.73V32H733.71V28ZM717.75 28H709.77V32H717.75V28ZM701.79 28H693.81V32H701.79V28ZM685.83 28H677.85V32H685.83V28ZM669.87 28H661.89V32H669.87V28ZM653.91 28H645.93V32H653.91V28ZM637.95 28H629.97V32H637.95V28ZM621.99 28H618V32H621.99V28Z" fill="#707070" mask="url(#path-7-inside-2_3926_170831)"/>
<path d="M469.122 4.68292V59.3171M470.662 60.878H525.338M526.878 59.3171V4.68292M525.338 3.12195H470.662M476.438 12.4878V46.439M477.978 48H518.022M519.562 46.439V12.4878M518.022 10.9268H477.978" stroke="white" stroke-width="3.12195"/>
<path d="M477.708 39.8482H481.025V43.1436H477.708V39.8482Z" fill="white"/>
<path d="M481.025 36.5528H484.342V39.8482H481.025V36.5528Z" fill="white"/>
<path d="M484.342 33.2575H487.659V36.5528H484.342V33.2575Z" fill="white"/>
<path d="M487.659 29.9621H490.976V33.2575H487.659V29.9621Z" fill="white"/>
<path d="M490.976 29.9621H494.293V33.2575H490.976V29.9621Z" fill="white"/>
<path d="M494.293 33.2575H497.61V36.5528H494.293V33.2575Z" fill="white"/>
<path d="M497.61 36.5528H500.927V39.8482H497.61V36.5528Z" fill="white"/>
<path d="M500.927 39.8482H504.244V43.1436H500.927V39.8482Z" fill="white"/>
<path d="M504.244 43.1436H507.561V46.439H504.244V43.1436Z" fill="white"/>
<path d="M504.244 36.5528H507.561V39.8482H504.244V36.5528Z" fill="white"/>
<path d="M507.561 33.2575H510.878V36.5528H507.561V33.2575Z" fill="white"/>
<path d="M510.878 33.2575H514.195V36.5528H510.878V33.2575Z" fill="white"/>
<path d="M514.195 33.2575H518.293V36.5528H514.195V33.2575Z" fill="white"/>
<path d="M509.634 16.7805H516.268V23.3713H509.634V16.7805Z" fill="white"/>
</svg>
