<svg width="269" height="68" viewBox="0 0 269 68" fill="none" xmlns="http://www.w3.org/2000/svg">
<path d="M261.539 42.8112H226.239V63.9706H224.504V37.3708H226.212V35.6309H261.527V37.3469H263.246V63.9799H261.538V42.8112H261.539ZM254.824 40.2971V38.1237H252.652V40.2971H254.824ZM257.106 38.1144V40.2878H259.277V38.1144H257.106Z" fill="white"/>
<path d="M226.243 65.7212V64.0158H261.514V65.7212H226.243Z" fill="white"/>
<path d="M237.257 52.5569V51.0524H238.726V52.5569H237.257ZM238.726 57.0704V52.5569H240.195V57.0704H238.726ZM235.788 51.0524V49.5479H237.257V51.0524H235.788ZM240.195 52.5569V51.0524H241.664V52.5569H240.195ZM241.664 51.0524V49.5479H243.133V51.0524H241.664Z" fill="white"/>
<path d="M244.617 49.5479H251.962V51.0524H249.024V57.0704H247.555V51.0524H244.617V49.5479Z" fill="white"/>
<path d="M10.177 61.9022H47.9032V64.2161H10.177V61.9022Z" fill="white"/>
<path d="M15.1052 37.1348H42.975V39.4487H15.1052V37.1348Z" fill="white"/>
<path d="M7.88281 57.0173H50.1974V59.3312H7.88281V57.0173Z" fill="white"/>
<path d="M47.9032 59.3312H50.1974V61.9022H47.9032V59.3312Z" fill="white"/>
<path d="M42.975 39.4487H45.2692V57.0173H42.975V39.4487Z" fill="white"/>
<path d="M7.88281 59.3312H10.177V61.9022H7.88281V59.3312Z" fill="white"/>
<path d="M12.811 39.4487H15.1052V57.0173H12.811V39.4487Z" fill="white"/>
<path d="M149.219 19.6108C149.219 19.2164 149.224 18.8214 149.218 18.4269C149.217 18.315 149.248 18.2775 149.364 18.2784C150.135 18.2829 150.906 18.2807 151.677 18.2807C151.809 18.2807 151.875 18.2166 151.875 18.0884C151.875 15.1157 151.875 12.143 151.875 9.17034C151.875 9.05298 151.934 8.99431 152.052 8.99431C152.395 8.99431 152.736 8.9916 153.079 8.99611C153.172 8.99747 153.203 8.96677 153.202 8.87334C153.198 8.5127 153.204 8.15161 153.198 7.79097C153.197 7.69031 153.23 7.66368 153.327 7.66368C155.896 7.66594 158.464 7.66594 161.033 7.66368C161.151 7.66368 161.18 7.70476 161.177 7.81534C161.171 8.15341 161.175 8.49194 161.175 8.83001C161.175 8.93954 161.232 8.99446 161.345 8.99476C161.683 8.99476 162.022 8.99927 162.36 8.9925C162.477 8.99024 162.504 9.02816 162.504 9.14055C162.501 12.5718 162.502 16.0026 162.502 19.4339C162.502 19.5519 162.56 19.6108 162.677 19.6108C163.023 19.6108 163.369 19.6117 163.715 19.6104C163.784 19.6104 163.827 19.6176 163.827 19.7061C163.824 20.533 163.825 21.3594 163.824 22.1863C163.824 22.208 163.818 22.2297 163.813 22.2667C163.771 22.2667 163.731 22.2667 163.691 22.2667C163.333 22.2667 162.976 22.2698 162.619 22.2649C162.523 22.2635 162.498 22.2947 162.499 22.3867C162.504 22.7474 162.498 23.1085 162.503 23.4691C162.504 23.5585 162.484 23.5937 162.386 23.5932C161.133 23.5901 159.881 23.591 158.628 23.5923C158.552 23.5923 158.511 23.5779 158.512 23.4881C158.516 23.0823 158.515 22.6765 158.517 22.2707L158.514 22.2734C158.566 22.2707 158.618 22.2658 158.671 22.2658C159.896 22.2658 161.122 22.2658 162.348 22.2653C162.395 22.2653 162.442 22.2613 162.499 22.2585V22.124C162.499 21.3351 162.497 20.5461 162.502 19.7571C162.502 19.6456 162.477 19.6108 162.359 19.6113C161.246 19.6158 160.134 19.6145 159.021 19.614C158.852 19.614 158.683 19.6108 158.514 19.6095L158.517 19.6122C158.515 19.2136 158.517 18.8155 158.511 18.4174C158.51 18.3141 158.546 18.2802 158.649 18.2807C159.427 18.2838 160.206 18.2825 160.984 18.2825C161.11 18.2825 161.172 18.2214 161.172 18.0992C161.172 16.0058 161.172 13.9128 161.172 11.8194C161.172 11.7072 161.118 11.6509 161.009 11.6506C158.459 11.6506 155.91 11.6506 153.36 11.6506C153.254 11.6506 153.202 11.7037 153.202 11.8099C153.202 14.3579 153.202 16.9058 153.202 19.4538C153.202 19.5591 153.255 19.6117 153.363 19.6117C153.709 19.6117 154.055 19.6149 154.401 19.6099C154.499 19.6086 154.53 19.6384 154.53 19.7381C154.526 20.5384 154.526 21.3391 154.53 22.1394C154.53 22.2477 154.491 22.2707 154.392 22.2694C154.031 22.2644 153.67 22.2694 153.309 22.2658C153.224 22.2649 153.199 22.2915 153.2 22.375C153.204 22.7356 153.202 23.0967 153.202 23.4574C153.202 23.4975 153.202 23.5382 153.202 23.5851C153.152 23.5878 153.115 23.5914 153.078 23.5914C151.837 23.5914 150.596 23.5901 149.355 23.5941C149.245 23.5941 149.216 23.5621 149.218 23.4547C149.224 23.0602 149.22 22.6657 149.219 22.2707L149.216 22.2734C149.268 22.2707 149.321 22.2653 149.373 22.2653C150.606 22.2649 151.838 22.2635 153.071 22.2671C153.176 22.2671 153.203 22.236 153.203 22.134C153.199 21.3454 153.2 20.5569 153.2 19.7679C153.2 19.665 153.15 19.6134 153.049 19.6131C151.828 19.6131 150.606 19.6131 149.385 19.6131C149.328 19.6131 149.272 19.6099 149.216 19.6086L149.219 19.6113V19.6108Z" fill="white"/>
<path d="M142.585 15.6158H141.259V12.9726H142.568C142.571 12.9225 142.575 12.8828 142.575 12.8431C142.575 12.4861 142.578 12.129 142.573 11.772C142.571 11.6718 142.603 11.6447 142.701 11.6452C143.495 11.6488 144.288 11.647 145.082 11.647C145.228 11.647 145.229 11.647 145.229 11.4962C145.229 8.52353 145.229 5.55085 145.229 2.57816C145.229 2.5407 145.232 2.50278 145.229 2.46532C145.22 2.37189 145.269 2.35248 145.352 2.35293C145.705 2.35564 146.059 2.35429 146.412 2.35383C146.559 2.35383 146.559 2.35383 146.559 2.20218C146.559 1.84876 146.562 1.49579 146.558 1.14237C146.557 1.05571 146.582 1.02592 146.673 1.02637C147.929 1.02908 149.185 1.02908 150.441 1.02637C150.536 1.02637 150.553 1.06158 150.552 1.14463C150.548 1.50166 150.554 1.85869 150.548 2.21572C150.547 2.32179 150.574 2.3588 150.685 2.35654C151.043 2.34977 151.4 2.35654 151.757 2.35203C151.851 2.35067 151.88 2.38092 151.879 2.47435C151.874 2.83905 151.874 3.2033 151.879 3.56801C151.88 3.65783 151.85 3.68446 151.763 3.68355C151.405 3.67994 151.048 3.68581 150.691 3.67994C150.584 3.67814 150.546 3.70748 150.548 3.81806C150.554 4.16742 150.545 4.51722 150.553 4.86658C150.556 4.98484 150.514 5.01147 150.404 5.01147C149.185 5.00831 147.967 5.00966 146.748 5.00966C146.625 5.00966 146.563 5.07225 146.563 5.19743C146.563 7.73771 146.563 10.2784 146.563 12.8187C146.563 12.9198 146.614 12.9705 146.717 12.9708C147.066 12.9708 147.416 12.974 147.766 12.969C147.865 12.9677 147.896 13.0011 147.896 13.099C147.892 13.8993 147.894 14.7 147.894 15.5003C147.894 15.5639 147.894 15.6244 147.805 15.6235C147.388 15.6203 146.971 15.6181 146.554 15.6154L146.557 15.619C146.558 14.7704 146.558 13.9223 146.562 13.0737C146.562 12.9826 146.52 12.9713 146.445 12.9713C145.866 12.9731 145.287 12.9722 144.709 12.9722C144.036 12.9722 143.364 12.9735 142.692 12.9704C142.604 12.9704 142.573 12.9947 142.576 13.0846C142.583 13.2606 142.578 13.4375 142.578 13.614C142.58 14.282 142.581 14.9505 142.583 15.6185L142.587 15.6149L142.585 15.6158Z" fill="white"/>
<path d="M146.552 15.6158C146.555 16.0324 146.56 16.4486 146.557 16.8652C146.557 16.8945 146.504 16.9288 146.47 16.9505C146.451 16.9622 146.419 16.9532 146.392 16.9532C145.175 16.9532 143.958 16.9532 142.741 16.9532C142.631 16.9532 142.575 16.8975 142.575 16.7862C142.575 16.4445 142.575 16.1028 142.575 15.7616C142.575 15.7133 142.581 15.6646 142.585 15.6163L142.58 15.6199C142.742 15.6208 142.903 15.6226 143.065 15.6226C144.228 15.6217 145.392 15.6208 146.555 15.6199L146.552 15.6163L146.552 15.6158Z" fill="white"/>
<path d="M149.219 22.2694C148.821 22.268 148.422 22.2635 148.024 22.2676C147.919 22.2689 147.888 22.2346 147.888 22.1326C147.892 21.3364 147.892 20.5402 147.888 19.744C147.888 19.6411 147.92 19.6068 148.024 19.6081C148.422 19.6131 148.821 19.6104 149.219 19.6104L149.216 19.6077C149.218 19.66 149.222 19.7124 149.222 19.7648C149.222 20.4545 149.223 21.1441 149.222 21.8338C149.222 21.9801 149.218 22.1259 149.216 22.2721L149.219 22.2694Z" fill="white"/>
<path d="M158.517 22.2694C158.119 22.268 157.721 22.2635 157.323 22.2676C157.214 22.2689 157.18 22.2342 157.181 22.1263C157.184 21.3342 157.184 20.5425 157.181 19.7503C157.18 19.642 157.215 19.6068 157.323 19.6081C157.721 19.6131 158.119 19.6104 158.517 19.6104L158.514 19.6077C158.514 20.496 158.514 21.3838 158.514 22.2721L158.517 22.2694H158.517Z" fill="white"/>
<path d="M153.2 5.66188C153.2 5.47772 153.202 5.29402 153.199 5.10986C153.198 5.03223 153.227 5.00469 153.305 5.00514C153.677 5.00785 154.049 5.0074 154.421 5.00514C154.497 5.00469 154.529 5.03087 154.529 5.10941C154.527 5.48495 154.527 5.86048 154.529 6.23602C154.529 6.31636 154.496 6.34028 154.421 6.33983C154.049 6.33802 153.677 6.33712 153.305 6.33983C153.218 6.34073 153.197 6.30372 153.199 6.22428C153.203 6.03651 153.2 5.84874 153.2 5.66098V5.66188Z" fill="white"/>
<path d="M161.173 5.66143C161.173 5.48134 161.176 5.30124 161.171 5.12115C161.169 5.03223 161.204 5.00425 161.291 5.0047C161.655 5.00786 162.019 5.00786 162.383 5.0047C162.471 5.00379 162.503 5.03313 162.502 5.12205C162.499 5.48946 162.499 5.85733 162.502 6.22474C162.503 6.31681 162.466 6.34028 162.382 6.33983C162.018 6.33758 161.654 6.33712 161.29 6.33983C161.204 6.34074 161.169 6.31275 161.171 6.22338C161.176 6.03606 161.172 5.8483 161.172 5.66053L161.173 5.66143Z" fill="white"/>
<path d="M157.185 2.36015C157.184 1.95076 157.185 1.54092 157.182 1.13154C157.181 1.05435 157.206 1.02682 157.286 1.02772C157.661 1.03088 158.038 1.03088 158.413 1.02772C158.493 1.02682 158.518 1.05435 158.517 1.13154C158.514 1.54092 158.515 1.95076 158.514 2.36015L158.517 2.35699C158.072 2.35699 157.627 2.35699 157.182 2.35699L157.185 2.36015Z" fill="white"/>
<path d="M157.185 3.68717C156.787 3.68581 156.388 3.68085 155.99 3.68446C155.88 3.68536 155.849 3.6497 155.85 3.54228C155.856 3.18931 155.855 2.83589 155.851 2.48293C155.85 2.38588 155.878 2.35068 155.979 2.35248C156.381 2.3588 156.783 2.3579 157.185 2.3597L157.182 2.35654C157.182 2.80114 157.182 3.24573 157.182 3.69033L157.185 3.68717Z" fill="white"/>
<path d="M158.514 2.36015C158.927 2.35834 159.34 2.35699 159.754 2.35428C159.822 2.35383 159.848 2.38362 159.847 2.44952C159.846 2.82912 159.845 3.20826 159.848 3.58786C159.848 3.67588 159.798 3.6831 159.731 3.6831C159.374 3.6822 159.017 3.6831 158.66 3.6831C158.611 3.6831 158.562 3.68581 158.514 3.68761L158.517 3.69077C158.517 3.24618 158.517 2.80158 158.517 2.35699L158.514 2.36015Z" fill="white"/>
<path d="M156.518 14.2969C156.702 14.2969 156.887 14.2996 157.071 14.2956C157.152 14.2938 157.187 14.3209 157.186 14.4048C157.184 14.7767 157.184 15.1487 157.186 15.521C157.187 15.5996 157.155 15.6262 157.079 15.6258C156.706 15.6235 156.334 15.623 155.962 15.6258C155.878 15.6262 155.851 15.5933 155.851 15.512C155.855 15.1437 155.855 14.7754 155.851 14.4071C155.851 14.3231 155.884 14.2947 155.965 14.296C156.149 14.2996 156.334 14.2969 156.518 14.2969Z" fill="white"/>
<path d="M145.231 20.2843C145.231 20.4648 145.228 20.6449 145.232 20.8255C145.235 20.9144 145.199 20.9424 145.112 20.9415C144.748 20.9379 144.383 20.9379 144.018 20.9415C143.93 20.9424 143.899 20.9099 143.9 20.8228C143.903 20.4544 143.903 20.0866 143.9 19.7183C143.9 19.6411 143.926 19.6095 144.004 19.6099C144.38 19.6117 144.756 19.6117 145.132 19.6099C145.204 19.6099 145.233 19.637 145.232 19.7101C145.23 19.9015 145.231 20.0934 145.231 20.2847L145.231 20.2843Z" fill="white"/>
<path d="M158.514 3.68716C158.515 4.08843 158.514 4.48924 158.517 4.8905C158.518 4.97671 158.489 5.01192 158.401 5.01101C158.033 5.00831 157.665 5.00831 157.298 5.01101C157.21 5.01147 157.181 4.97671 157.182 4.8905C157.185 4.48969 157.184 4.08843 157.185 3.68717L157.182 3.69033C157.38 3.68717 157.578 3.68084 157.777 3.68084C158.023 3.68084 158.27 3.68671 158.517 3.69032L158.514 3.68716Z" fill="white"/>
<mask id="path-5-inside-1_3926_171046" fill="white">
<path d="M29.25 11.25H106.5V29.25H29.25V11.25Z"/>
</mask>
<path d="M29.25 11.25V10.8739H28.8739V11.25H29.25ZM28.8739 11.25V12.75H29.6261V11.25H28.8739ZM28.8739 15.75V18.75H29.6261V15.75H28.8739ZM28.8739 21.75V24.75H29.6261V21.75H28.8739ZM28.8739 27.75V29.25H29.6261V27.75H28.8739ZM106.5 10.8739H105.014V11.6261H106.5V10.8739ZM102.043 10.8739H99.0721V11.6261H102.043V10.8739ZM96.101 10.8739H93.1298V11.6261H96.101V10.8739ZM90.1587 10.8739H87.1875V11.6261H90.1587V10.8739ZM84.2163 10.8739H81.2452V11.6261H84.2163V10.8739ZM78.274 10.8739H75.3029V11.6261H78.274V10.8739ZM72.3317 10.8739H69.3606V11.6261H72.3317V10.8739ZM66.3894 10.8739H63.4183V11.6261H66.3894V10.8739ZM60.4471 10.8739H57.476V11.6261H60.4471V10.8739ZM54.5048 10.8739H51.5337V11.6261H54.5048V10.8739ZM48.5625 10.8739H45.5914V11.6261H48.5625V10.8739ZM42.6202 10.8739H39.649V11.6261H42.6202V10.8739ZM36.6779 10.8739H33.7067V11.6261H36.6779V10.8739ZM30.7356 10.8739H29.25V11.6261H30.7356V10.8739ZM29.25 11.25V10.4977H28.4977V11.25H29.25ZM28.4977 11.25V12.75H30.0023V11.25H28.4977ZM28.4977 15.75V18.75H30.0023V15.75H28.4977ZM28.4977 21.75V24.75H30.0023V21.75H28.4977ZM28.4977 27.75V29.25H30.0023V27.75H28.4977ZM106.5 10.4977H105.014V12.0023H106.5V10.4977ZM102.043 10.4977H99.0721V12.0023H102.043V10.4977ZM96.101 10.4977H93.1298V12.0023H96.101V10.4977ZM90.1587 10.4977H87.1875V12.0023H90.1587V10.4977ZM84.2163 10.4977H81.2452V12.0023H84.2163V10.4977ZM78.274 10.4977H75.3029V12.0023H78.274V10.4977ZM72.3317 10.4977H69.3606V12.0023H72.3317V10.4977ZM66.3894 10.4977H63.4183V12.0023H66.3894V10.4977ZM60.4471 10.4977H57.476V12.0023H60.4471V10.4977ZM54.5048 10.4977H51.5337V12.0023H54.5048V10.4977ZM48.5625 10.4977H45.5914V12.0023H48.5625V10.4977ZM42.6202 10.4977H39.649V12.0023H42.6202V10.4977ZM36.6779 10.4977H33.7067V12.0023H36.6779V10.4977ZM30.7356 10.4977H29.25V12.0023H30.7356V10.4977Z" fill="#707070" mask="url(#path-5-inside-1_3926_171046)"/>
<mask id="path-7-inside-2_3926_171046" fill="white">
<path d="M168 11.25H243V28.5H168V11.25Z"/>
</mask>
<path d="M243 11.25H243.376V10.8739H243V11.25ZM243.376 28.5V27.0625H242.624V28.5H243.376ZM243.376 24.1875V21.3125H242.624V24.1875H243.376ZM243.376 18.4375V15.5625H242.624V18.4375H243.376ZM243.376 12.6875V11.25H242.624V12.6875H243.376ZM243 10.8739H241.438V11.6261H243V10.8739ZM238.312 10.8739H235.188V11.6261H238.312V10.8739ZM232.062 10.8739H228.938V11.6261H232.062V10.8739ZM225.812 10.8739H222.688V11.6261H225.812V10.8739ZM219.562 10.8739H216.438V11.6261H219.562V10.8739ZM213.312 10.8739H210.188V11.6261H213.312V10.8739ZM207.062 10.8739H203.938V11.6261H207.062V10.8739ZM200.812 10.8739H197.687V11.6261H200.812V10.8739ZM194.563 10.8739H191.438V11.6261H194.563V10.8739ZM188.312 10.8739H185.188V11.6261H188.312V10.8739ZM182.062 10.8739H178.937V11.6261H182.062V10.8739ZM175.813 10.8739H172.688V11.6261H175.813V10.8739ZM169.562 10.8739H168V11.6261H169.562V10.8739ZM243 11.25H243.752V10.4977H243V11.25ZM243.752 28.5V27.0625H242.248V28.5H243.752ZM243.752 24.1875V21.3125H242.248V24.1875H243.752ZM243.752 18.4375V15.5625H242.248V18.4375H243.752ZM243.752 12.6875V11.25H242.248V12.6875H243.752ZM243 10.4977H241.438V12.0023H243V10.4977ZM238.312 10.4977H235.188V12.0023H238.312V10.4977ZM232.062 10.4977H228.938V12.0023H232.062V10.4977ZM225.812 10.4977H222.688V12.0023H225.812V10.4977ZM219.562 10.4977H216.438V12.0023H219.562V10.4977ZM213.312 10.4977H210.188V12.0023H213.312V10.4977ZM207.062 10.4977H203.938V12.0023H207.062V10.4977ZM200.812 10.4977H197.687V12.0023H200.812V10.4977ZM194.563 10.4977H191.438V12.0023H194.563V10.4977ZM188.312 10.4977H185.188V12.0023H188.312V10.4977ZM182.062 10.4977H178.937V12.0023H182.062V10.4977ZM175.813 10.4977H172.688V12.0023H175.813V10.4977ZM169.562 10.4977H168V12.0023H169.562V10.4977Z" fill="#707070" mask="url(#path-7-inside-2_3926_171046)"/>
<path d="M112.095 2.03635V22.5859M112.675 23.173H133.24M133.819 22.5859V2.03635M133.24 1.44922H112.675M114.847 4.97199V17.742M115.426 18.3292H130.488M131.067 17.742V4.97199M130.488 4.38486H115.426" stroke="white" stroke-width="1.17426"/>
<path d="M115.324 15.2626H116.572V16.5021H115.324V15.2626Z" fill="white"/>
<path d="M116.572 14.0231H117.82V15.2626H116.572V14.0231Z" fill="white"/>
<path d="M117.82 12.7836H119.067V14.0231H117.82V12.7836Z" fill="white"/>
<path d="M119.067 11.5441H120.315V12.7836H119.067V11.5441Z" fill="white"/>
<path d="M120.315 11.5441H121.562V12.7836H120.315V11.5441Z" fill="white"/>
<path d="M121.562 12.7836H122.81V14.0231H121.562V12.7836Z" fill="white"/>
<path d="M122.81 14.0231H124.058V15.2626H122.81V14.0231Z" fill="white"/>
<path d="M124.058 15.2626H125.305V16.5021H124.058V15.2626Z" fill="white"/>
<path d="M125.305 16.5021H126.553V17.7416H125.305V16.5021Z" fill="white"/>
<path d="M125.305 14.0231H126.553V15.2626H125.305V14.0231Z" fill="white"/>
<path d="M126.553 12.7836H127.801V14.0231H126.553V12.7836Z" fill="white"/>
<path d="M127.801 12.7836H129.048V14.0231H127.801V12.7836Z" fill="white"/>
<path d="M129.048 12.7836H130.59V14.0231H129.048V12.7836Z" fill="white"/>
<path d="M127.333 6.58612H129.828V9.06511H127.333V6.58612Z" fill="white"/>
</svg>
