<svg width="24" height="24" viewBox="0 0 24 24" fill="none" xmlns="http://www.w3.org/2000/svg">
<path fill-rule="evenodd" clip-rule="evenodd" d="M19.4062 9.23062C19.4062 11.0712 19.1335 12.356 18.1727 14.0114C17.1853 15.7126 15.4784 17.7924 12.5035 21.095C9.52483 17.7921 7.81621 15.7122 6.82796 14.011C5.86646 12.3558 5.59375 11.0712 5.59375 9.23062C5.59375 5.86596 8.60837 2.64994 12.5 2.64994C16.3916 2.64994 19.4062 5.86596 19.4062 9.23062ZM21 9.23062C21 13.4209 19.6776 15.5808 13.2778 22.6536C12.8601 23.1153 12.148 23.1155 11.73 22.6541C5.32244 15.5809 4 13.421 4 9.23062C4 4.87659 7.80558 1 12.5 1C17.1944 1 21 4.87659 21 9.23062ZM14.0938 9.79969C14.0938 10.7109 13.3802 11.4496 12.5 11.4496C11.6198 11.4496 10.9062 10.7109 10.9062 9.79969C10.9062 8.88845 11.6198 8.14975 12.5 8.14975C13.3802 8.14975 14.0938 8.88845 14.0938 9.79969ZM15.6875 9.79969C15.6875 11.6222 14.2604 13.0996 12.5 13.0996C10.7396 13.0996 9.3125 11.6222 9.3125 9.79969C9.3125 7.97721 10.7396 6.49981 12.5 6.49981C14.2604 6.49981 15.6875 7.97721 15.6875 9.79969Z" fill="white" stroke="white" stroke-linejoin="bevel"/>
</svg>
