<svg width="64" height="64" viewBox="0 0 64 64" fill="none" xmlns="http://www.w3.org/2000/svg">
<rect width="64" height="64" rx="32" fill="#1C1C1C"/>
<path d="M46 35.201C45.936 37.4928 45.0933 39.3009 43.472 40.6255C41.8507 41.929 39.952 42.8226 37.776 43.3062C35.6213 43.7687 33.4987 44 31.408 44C29.488 44 27.504 43.7372 25.456 43.2116C23.408 42.6859 21.648 41.7924 20.176 40.5309C18.7253 39.2694 18 37.6189 18 35.5795H25.424C25.424 36.6518 26 37.4612 27.152 38.0079C28.304 38.5335 29.7013 38.8279 31.344 38.8909C33.136 38.975 34.6613 38.7122 35.92 38.1025C37.1787 37.4928 37.808 36.4731 37.808 35.0434C37.808 33.6137 37.296 32.5309 36.272 31.795C35.248 31.0591 33.6053 30.6912 31.344 30.6912C29.6373 30.6912 28.208 30.9855 27.056 31.5742C25.9253 32.1419 25.36 32.9514 25.36 34.0026V34.0657L18.096 34.0972V20H44.88V24.7306H25.36V28.8936C26.5333 28.1367 27.9413 27.6005 29.584 27.2852C31.248 26.9698 32.9973 26.8121 34.832 26.8121C37.008 26.8121 38.9387 27.1485 40.624 27.8213C42.3093 28.4731 43.6213 29.4297 44.56 30.6912C45.52 31.9527 46 33.4455 46 35.1695V35.201Z" fill="white"/>
</svg>
