<svg width="44" height="44" viewBox="0 0 44 44" fill="none" xmlns="http://www.w3.org/2000/svg">
<path d="M1 10.1778H5.07463V33.6667H1V10.1778Z" fill="#1C1C1C"/>
<path d="M11.1866 16.7111H15.2612V26.9778H11.1866V16.7111Z" fill="#1C1C1C"/>
<path d="M28.8955 16.7111H32.9701V26.9778H28.8955V16.7111Z" fill="#1C1C1C"/>
<path d="M16.8284 11.2667H27.1716V15.3111H16.8284V11.2667Z" fill="#1C1C1C"/>
<path d="M16.8284 28.6889H27.1716V32.7333H16.8284V28.6889Z" fill="#1C1C1C"/>
<path d="M39.2388 10.1778H43V33.6667H39.2388V10.1778Z" fill="#1C1C1C"/>
<path d="M2.41045 7.06667H6.48507V11.1111H2.41045V7.06667Z" fill="#1C1C1C"/>
<path d="M13.694 13.6H17.7687V17.6444H13.694V13.6Z" fill="#1C1C1C"/>
<path d="M26.3881 13.6H30.4627V17.6444H26.3881V13.6Z" fill="#1C1C1C"/>
<path d="M32.09 10.09H34.16V12.13H32.09V10.09Z" fill="#1C1C1C"/>
<path d="M26.3881 26.2H30.4627V30.2444H26.3881V26.2Z" fill="#1C1C1C"/>
<path d="M13.694 26.2H17.7687V30.2444H13.694V26.2Z" fill="#1C1C1C"/>
<path d="M33.1269 37.0889H37.2015V41.1333H33.1269V37.0889Z" fill="#1C1C1C"/>
<path d="M37.5149 7.06667H41.5896V11.1111H37.5149V7.06667Z" fill="#1C1C1C"/>
<path d="M6.64179 37.0889H10.7164V41.1333H6.64179V37.0889Z" fill="#1C1C1C"/>
<path d="M4.29104 4.73333H8.36567V8.77778H4.29104V4.73333Z" fill="#1C1C1C"/>
<path d="M35.4776 35.2222H39.5522V39.2667H35.4776V35.2222Z" fill="#1C1C1C"/>
<path d="M35.6343 4.73333H39.709V8.77778H35.6343V4.73333Z" fill="#1C1C1C"/>
<path d="M4.29104 35.2222H8.36567V39.2667H4.29104V35.2222Z" fill="#1C1C1C"/>
<path d="M6.64179 2.86667H10.7164V6.91111H6.64179V2.86667Z" fill="#1C1C1C"/>
<path d="M37.3582 32.8889H41.4328V36.9333H37.3582V32.8889Z" fill="#1C1C1C"/>
<path d="M33.2836 2.86667H37.3582V6.91111H33.2836V2.86667Z" fill="#1C1C1C"/>
<path d="M2.41045 32.8889H6.48507V36.9333H2.41045V32.8889Z" fill="#1C1C1C"/>
<path d="M10.0896 1H33.9104V5.04444H10.0896V1Z" fill="#1C1C1C"/>
<path d="M10.0896 38.9556H33.9104V43H10.0896V38.9556Z" fill="#1C1C1C"/>
<path d="M1 10.1778H5.07463V33.6667H1V10.1778Z" stroke="#1C1C1C"/>
<path d="M11.1866 16.7111H15.2612V26.9778H11.1866V16.7111Z" stroke="#1C1C1C"/>
<path d="M28.8955 16.7111H32.9701V26.9778H28.8955V16.7111Z" stroke="#1C1C1C"/>
<path d="M16.8284 11.2667H27.1716V15.3111H16.8284V11.2667Z" stroke="#1C1C1C"/>
<path d="M16.8284 28.6889H27.1716V32.7333H16.8284V28.6889Z" stroke="#1C1C1C"/>
<path d="M39.2388 10.1778H43V33.6667H39.2388V10.1778Z" stroke="#1C1C1C"/>
<path d="M2.41045 7.06667H6.48507V11.1111H2.41045V7.06667Z" stroke="#1C1C1C"/>
<path d="M13.694 13.6H17.7687V17.6444H13.694V13.6Z" stroke="#1C1C1C"/>
<path d="M26.3881 13.6H30.4627V17.6444H26.3881V13.6Z" stroke="#1C1C1C"/>
<path d="M32.09 10.09H34.16V12.13H32.09V10.09Z" stroke="#1C1C1C"/>
<path d="M26.3881 26.2H30.4627V30.2444H26.3881V26.2Z" stroke="#1C1C1C"/>
<path d="M13.694 26.2H17.7687V30.2444H13.694V26.2Z" stroke="#1C1C1C"/>
<path d="M33.1269 37.0889H37.2015V41.1333H33.1269V37.0889Z" stroke="#1C1C1C"/>
<path d="M37.5149 7.06667H41.5896V11.1111H37.5149V7.06667Z" stroke="#1C1C1C"/>
<path d="M6.64179 37.0889H10.7164V41.1333H6.64179V37.0889Z" stroke="#1C1C1C"/>
<path d="M4.29104 4.73333H8.36567V8.77778H4.29104V4.73333Z" stroke="#1C1C1C"/>
<path d="M35.4776 35.2222H39.5522V39.2667H35.4776V35.2222Z" stroke="#1C1C1C"/>
<path d="M35.6343 4.73333H39.709V8.77778H35.6343V4.73333Z" stroke="#1C1C1C"/>
<path d="M4.29104 35.2222H8.36567V39.2667H4.29104V35.2222Z" stroke="#1C1C1C"/>
<path d="M6.64179 2.86667H10.7164V6.91111H6.64179V2.86667Z" stroke="#1C1C1C"/>
<path d="M37.3582 32.8889H41.4328V36.9333H37.3582V32.8889Z" stroke="#1C1C1C"/>
<path d="M33.2836 2.86667H37.3582V6.91111H33.2836V2.86667Z" stroke="#1C1C1C"/>
<path d="M2.41045 32.8889H6.48507V36.9333H2.41045V32.8889Z" stroke="#1C1C1C"/>
<path d="M10.0896 1H33.9104V5.04444H10.0896V1Z" stroke="#1C1C1C"/>
<path d="M10.0896 38.9556H33.9104V43H10.0896V38.9556Z" stroke="#1C1C1C"/>
</svg>
