<svg width="32" height="32" viewBox="0 0 32 32" fill="none" xmlns="http://www.w3.org/2000/svg">
<path d="M11.1313 3.79043V2H20.8698V3.79043L20.8775 3.78495H19.0754V5.65761H17.202V3.831H14.7805V5.65761C14.1436 5.65761 13.5352 5.65761 12.9268 5.65761C12.9268 5.05239 12.9268 4.44608 12.9268 3.81017C12.7986 3.81017 12.6824 3.81126 12.5662 3.81017C12.085 3.80249 11.6048 3.79372 11.1247 3.78495L11.1324 3.79043H11.1313Z" fill="#1C1C1C"/>
<path d="M20.8698 28.2096V30H11.1313V28.2096L11.1236 28.2151H12.9257V26.3424H14.7991V28.169H17.2206V26.3424H19.0743C19.0743 26.9476 19.0743 27.5539 19.0743 28.1898C19.2025 28.1898 19.3187 28.1887 19.4349 28.1898C19.9161 28.1975 20.3963 28.2063 20.8764 28.2151L20.8687 28.2096H20.8698Z" fill="#1C1C1C"/>
<path d="M3.79008 20.8691H2V11.1298H3.79008L3.7846 11.1221V13.5594H5.65689V15.4025H3.80871C3.80871 15.5329 3.80871 15.6404 3.80871 15.7467C3.80871 17.3486 3.80871 18.9493 3.80871 20.5512C3.80871 20.6586 3.79337 20.7672 3.7846 20.8746L3.79008 20.8669V20.8691Z" fill="#1C1C1C"/>
<path d="M28.2099 11.1309H30V20.8702H28.2099L28.2154 20.8779C28.2066 20.7705 28.1913 20.6619 28.1913 20.5545C28.1902 18.9438 28.1913 17.3332 28.1913 15.7226V15.4047H26.3431V13.5539H28.1913C28.1913 13.4048 28.1902 13.2886 28.1913 13.1724C28.199 12.4893 28.2077 11.8073 28.2165 11.1243L28.211 11.132L28.2099 11.1309Z" fill="#1C1C1C"/>
<path d="M20.8698 3.79043C21.9726 3.79591 23.0743 3.80139 24.177 3.80688C24.2845 3.80688 24.3919 3.80688 24.5388 3.80688V5.65651L24.5454 5.64884C23.3198 5.65213 22.0932 5.65542 20.8676 5.65761C20.8709 5.03375 20.8731 4.4088 20.8764 3.78495L20.8687 3.79043H20.8698Z" fill="#1C1C1C"/>
<path d="M3.79008 11.1309C3.79556 10.0279 3.80104 8.92599 3.80652 7.82301C3.80652 7.71556 3.80652 7.60811 3.80652 7.46119H5.6558L5.64812 7.45462V11.1232H3.7846L3.79008 11.1309Z" fill="#1C1C1C"/>
<path d="M26.3442 7.46119H28.2099C28.2099 8.69684 28.2099 9.91385 28.2099 11.1298L28.2154 11.1221H26.3519V7.45352L26.3442 7.4601V7.46119Z" fill="#1C1C1C"/>
<path d="M7.46122 5.65542V3.78933C8.69663 3.78933 9.9134 3.78933 11.1302 3.78933L11.1225 3.78385C11.1258 4.40771 11.128 5.03266 11.1313 5.65651C9.90573 5.65322 8.67909 5.64993 7.45355 5.64774L7.46013 5.65542H7.46122Z" fill="#1C1C1C"/>
<path d="M5.6558 24.5388H3.79008C3.79008 23.3032 3.79008 22.0861 3.79008 20.8702L3.7846 20.8779H5.64812V24.5465L5.6558 24.5399V24.5388Z" fill="#1C1C1C"/>
<path d="M28.2099 20.8691C28.2044 21.9623 28.199 23.0554 28.1935 24.1496C28.1935 24.2658 28.1935 24.3831 28.1935 24.5388H26.3442L26.3519 24.5454V20.8768H28.2154L28.2099 20.8691Z" fill="#1C1C1C"/>
<path d="M11.1313 28.2096C10.0384 28.2041 8.94437 28.1986 7.85147 28.1931C7.73527 28.1931 7.61798 28.1931 7.46232 28.1931V26.3435L7.45574 26.3512C8.68128 26.3479 9.90792 26.3446 11.1335 26.3424L11.1247 28.2151L11.1324 28.2096H11.1313Z" fill="#1C1C1C"/>
<path d="M24.5388 26.3435V28.2096C23.3034 28.2096 22.0866 28.2096 20.8698 28.2096L20.8775 28.2151C20.8742 27.5912 20.872 26.9662 20.8687 26.3424C22.0943 26.3457 23.3209 26.349 24.5465 26.3512L24.5399 26.3435H24.5388Z" fill="#1C1C1C"/>
<path d="M5.6558 7.46119V5.65542C6.26857 5.65542 6.86489 5.65542 7.46122 5.65542L7.45464 5.64774V7.45352H5.64812L5.6558 7.4601V7.46119Z" fill="#1C1C1C"/>
<path d="M24.5388 5.65542H26.3442V7.46119L26.3519 7.45462C25.7556 7.45462 25.1592 7.45462 24.5454 7.45462V5.64884L24.5388 5.65651V5.65542Z" fill="#1C1C1C"/>
<path d="M7.46122 26.3435H5.6558C5.6558 25.7306 5.6558 25.1342 5.6558 24.5377L5.64812 24.5443H7.45464V26.3501L7.46122 26.3424V26.3435Z" fill="#1C1C1C"/>
<path d="M26.3442 24.5388V26.3446H24.5388L24.5454 26.3523V24.5465H26.3519L26.3442 24.5399V24.5388Z" fill="#1C1C1C"/>
<path d="M20.8698 9.31741H22.6972V15.3937H26.3519V17.1995H22.718V22.6826H20.8698V19.0677H11.1313V22.6826H9.30173V17.2192H5.64922V15.3937H9.28748V9.31741H11.1324V17.1907H20.8709V9.31741H20.8698Z" fill="#1C1C1C"/>
<path d="M11.1236 9.32508C11.1236 8.0993 11.1236 6.87352 11.1236 5.64774C11.7287 5.64774 12.3327 5.64774 12.9378 5.64774V9.32508H11.1236Z" fill="#1C1C1C"/>
<path d="M20.8775 5.64774C20.8775 6.87352 20.8775 8.0993 20.8775 9.32508C20.3963 9.31631 19.915 9.30754 19.4338 9.29987C19.3176 9.29767 19.2014 9.29987 19.0633 9.29987V5.64774C19.6684 5.64774 20.2724 5.64774 20.8775 5.64774Z" fill="#1C1C1C"/>
<path d="M11.1236 26.3523C11.1236 25.1265 11.1236 23.9007 11.1236 22.6749C11.6048 22.6837 12.0861 22.6925 12.5673 22.7001C12.6835 22.7023 12.7997 22.7001 12.9378 22.7001V26.3523C12.3327 26.3523 11.7287 26.3523 11.1236 26.3523Z" fill="#1C1C1C"/>
<path d="M20.8775 22.6749C20.8775 23.9007 20.8775 25.1265 20.8775 26.3523C20.2724 26.3523 19.6684 26.3523 19.0633 26.3523V22.6749H20.8775Z" fill="#1C1C1C"/>
</svg>
