<svg width="16" height="16" viewBox="0 0 16 16" fill="none" xmlns="http://www.w3.org/2000/svg">
<path fill-rule="evenodd" clip-rule="evenodd" d="M8.31571 9.0063V10.0063V11.2066L10.4709 6.99226H8.68421H7.68421V5.99226V4.79195L5.52903 9.0063H7.31571H8.31571ZM4.40585 9.0063L7.68421 2.59565L7.92567 2.12349L8.21712 1.55359L8.26834 1.45342C8.37355 1.24769 8.68421 1.32252 8.68421 1.55359V1.66609V2.3062V2.83651V4.99226V5.99226H9.68421H10.9823H11.0157H11.5071H11.833C11.9576 5.99226 12.0381 6.12391 11.9814 6.23481L11.833 6.52498L11.6093 6.9625L11.5941 6.99226L8.31571 13.4029L8.07425 13.8751L7.78281 14.445L7.73159 14.5451C7.62638 14.7509 7.31571 14.676 7.31571 14.445V14.3325V13.6924V13.1621V11.0063V10.0063H6.31571H5.01763H4.98421H4.49279H4.16689C4.04233 10.0063 3.96179 9.87465 4.0185 9.76375L4.16689 9.47359L4.39063 9.03606L4.40585 9.0063Z" fill="#2F73E1"/>
</svg>
