<svg width="2103" height="544" viewBox="0 0 2103 544" fill="none" xmlns="http://www.w3.org/2000/svg">
<path d="M1751.62 116.111H1903C1963 116.111 2014 162 2014 227V292C2014 345 1973 405.111 1903 405.111H376.496C372.674 415.199 369.251 420.184 364.953 426.679C360.001 434.161 353.881 440.921 345.707 450.688C318.245 483.499 278.331 501.007 231.045 501.606L231.046 501.607L230.845 501.61L230.772 501.611H230.498C180.52 501.611 147.82 494.938 117.358 475.537C105.5 468.5 91.9714 457.5 89 455L89.0283 323C89.0284 308.5 88.7624 293.386 89.0283 277.963V116.111H929.224V69.1113H1101.05V116.111H1505.66L1500.95 93.9199L1731.2 42L1751.62 116.111ZM133.03 160.113V278.284C130.834 388.613 247.6 365.855 268 330.355C267.1 361.355 245.422 380.208 206.305 380.208C184.304 380.208 165.318 372.56 151.52 364.567L150.199 363.793L137.922 356.113L137.923 440.113C158.896 453.471 182.474 459.613 228.5 459.613C301.9 458.69 339.296 406.841 339.921 333.656L339.922 333.575V160.113H255.853V270.053C255.422 285.613 248.922 291.114 236.039 291.739C222.923 291.614 218.422 285.113 217.749 270.053L217.133 160.113H133.03ZM461.5 153.061C446.005 153.061 431.525 155.217 418.063 159.528C404.599 163.84 392.914 170.308 383.007 178.932C373.1 187.302 365.225 197.827 359.383 210.509C353.794 222.937 351 237.394 351 253.88V261.489C351 279.244 353.794 294.715 359.383 307.904C365.225 321.093 373.1 332 383.007 340.623C392.914 349.247 404.599 355.715 418.063 360.026C431.525 364.084 446.005 366.113 461.5 366.113C476.995 366.113 491.475 363.957 504.938 359.646C518.4 355.08 530.085 348.486 539.992 339.862C549.899 330.985 557.647 320.079 563.235 307.144C569.078 293.955 571.999 278.736 571.999 261.489V253.88C571.999 237.394 569.078 222.937 563.235 210.509C557.647 197.827 549.899 187.302 539.992 178.932C530.085 170.308 518.4 163.84 504.938 159.528C491.475 155.217 476.995 153.061 461.5 153.061ZM585 158.768V293.827C585 317.669 590.716 335.677 602.146 347.852C613.577 360.026 630.089 366.113 651.681 366.113C668.446 366.113 681.655 363.323 691.308 357.743C701.214 352.163 708.454 345.442 713.026 337.579V360.406H790.757V158.768H706.931V276.707C706.931 283.302 705.279 288.628 701.977 292.687C698.674 296.491 693.721 298.393 687.116 298.393C680.512 298.393 675.813 296.491 673.019 292.687C670.224 288.628 668.827 283.302 668.827 276.707V158.768H585ZM1108 158.768V293.827C1108 317.669 1113.72 335.677 1125.15 347.852C1136.58 360.026 1153.09 366.113 1174.68 366.113C1191.45 366.113 1204.65 363.323 1214.31 357.743C1224.21 352.163 1231.45 345.442 1236.03 337.579V360.406H1313.76V158.768H1229.93V276.707C1229.93 283.302 1228.28 288.628 1224.98 292.687C1221.67 296.491 1216.72 298.393 1210.12 298.393C1203.51 298.393 1198.81 296.491 1196.02 292.687C1193.22 288.628 1191.83 283.302 1191.83 276.707V158.768H1108ZM1653 151.759C1631.33 151.759 1612.2 155.586 1595.63 163.241C1579.31 170.897 1566.57 182.381 1557.39 197.691C1548.46 213.002 1544 232.142 1544 255.108V262.764C1544 285.73 1548.72 304.869 1558.15 320.18C1567.84 335.491 1581.1 346.974 1597.93 354.63C1615.01 362.285 1634.64 366.113 1656.83 366.113C1686.91 366.113 1710.62 360.244 1727.96 348.506C1745.55 336.767 1756.26 318.394 1760.09 293.386H1679.77C1678.24 296.703 1675.82 299.638 1672.51 302.189C1669.19 304.486 1663.96 305.635 1656.83 305.635C1650.71 305.635 1645.73 304.741 1641.91 302.955C1638.08 300.914 1635.15 297.979 1633.11 294.151C1631.33 290.324 1630.05 285.602 1629.29 279.988H1762V257.021C1762 222.317 1753.08 196.16 1735.23 178.553C1717.64 160.69 1690.23 151.759 1653 151.759ZM1874.12 153.061C1843.64 153.061 1819.76 159.148 1802.49 171.322C1785.47 183.243 1776.96 199.983 1776.96 221.542C1776.96 232.955 1779.24 242.34 1783.82 249.695C1788.64 257.051 1794.74 263.138 1802.11 267.957C1809.47 272.522 1817.73 276.073 1826.87 278.609C1836.27 280.892 1845.42 282.795 1854.31 284.316C1862.69 285.838 1869.42 287.233 1874.5 288.501C1879.84 289.515 1883.77 290.53 1886.31 291.545C1889.11 292.306 1890.89 293.193 1891.65 294.208C1892.67 295.222 1893.17 296.237 1893.17 297.252C1893.17 300.295 1892.03 302.578 1889.74 304.1C1887.46 305.368 1882.25 306.002 1874.12 306.002C1866.76 306.002 1861.8 304.987 1859.26 302.958C1856.98 300.929 1855.58 298.519 1855.07 295.729H1771.24C1772.77 304.353 1775.43 312.85 1779.25 321.22C1783.06 329.59 1788.77 337.199 1796.39 344.047C1804.27 350.641 1814.43 355.968 1826.87 360.026C1839.58 364.084 1855.32 366.113 1874.12 366.113C1906.38 366.113 1931.53 360.279 1949.57 348.612C1967.86 336.945 1977 319.825 1977 297.252C1977 285.838 1973.95 276.2 1967.86 268.337C1962.01 260.474 1954.65 254.133 1945.76 249.314C1936.87 244.242 1927.34 240.438 1917.18 237.901C1907.02 235.111 1897.62 233.083 1888.98 231.814C1883.14 231.054 1878.31 230.292 1874.5 229.531C1870.95 228.517 1868.15 227.629 1866.12 226.868C1864.09 225.854 1862.69 224.839 1861.93 223.824C1861.17 222.556 1860.79 221.161 1860.79 219.64C1860.79 217.864 1861.55 216.342 1863.07 215.074C1864.85 213.806 1867.9 213.172 1872.22 213.172C1876.28 213.172 1879.33 213.933 1881.36 215.455C1883.65 216.723 1885.04 219.386 1885.55 223.444H1969.38C1968.62 215.074 1966.46 206.704 1962.9 198.334C1959.35 189.71 1953.76 182.101 1946.14 175.507C1938.77 168.912 1929.12 163.586 1917.18 159.528C1905.49 155.217 1891.14 153.061 1874.12 153.061ZM973.227 113.113V158.768H950.364V225.727H973.227V276.707C973.227 293.447 974.751 307.397 977.799 318.557C981.101 329.463 986.055 338.213 992.659 344.808C999.264 351.402 1007.77 356.095 1018.19 358.885C1028.6 361.675 1040.92 363.069 1055.15 363.069C1061.24 363.069 1068.23 362.69 1076.1 361.929C1084.23 361.168 1091.85 360.153 1098.97 358.885V294.208C1092.87 294.969 1086.9 295.35 1081.06 295.35C1075.72 295.35 1071.41 294.715 1068.1 293.447C1065.06 292.179 1062.64 290.15 1060.86 287.36C1059.34 284.57 1058.32 280.892 1057.82 276.327C1057.31 271.508 1057.05 265.801 1057.05 259.206V225.727H1095.16V158.768H1057.05V113.113H973.227ZM922.136 153.061C911.721 153.061 902.957 155.851 895.845 161.431C888.986 167.011 884.287 173.732 881.747 181.595V158.768H804.017V360.406H887.844V242.467C887.844 235.619 889.875 230.292 893.939 226.487C898.258 222.683 905.752 220.781 916.421 220.781C920.485 220.781 924.804 221.288 929.376 222.303C933.948 223.064 937.885 224.205 941.188 225.727V156.104C938.393 154.836 935.218 154.075 931.662 153.821C928.36 153.314 925.184 153.061 922.136 153.061ZM1466.08 153.061C1449.31 153.061 1435.98 155.851 1426.07 161.431C1416.42 167.011 1409.3 173.732 1404.73 181.595V158.768H1327V360.406H1410.83V242.467C1410.83 235.872 1412.48 230.673 1415.78 226.868C1419.08 222.81 1424.42 220.781 1431.78 220.781C1437.63 220.781 1441.95 222.81 1444.74 226.868C1447.53 230.673 1448.93 235.872 1448.93 242.467V360.406H1532.76V225.347C1532.76 201.505 1527.04 183.497 1515.61 171.322C1504.18 159.148 1487.67 153.061 1466.08 153.061ZM461.5 220.781C469.12 220.781 475.09 223.444 479.408 228.771C483.726 233.843 485.886 242.213 485.886 253.88V261.489C485.886 274.932 483.727 284.443 479.408 290.023C475.09 295.603 469.12 298.392 461.5 298.393C453.879 298.393 447.909 295.603 443.591 290.023C439.272 284.443 437.113 274.932 437.113 261.489V253.88C437.113 242.213 439.273 233.843 443.591 228.771C447.909 223.444 453.879 220.781 461.5 220.781ZM1654.91 212.237C1660.27 212.237 1664.47 213.258 1667.53 215.3C1670.85 217.341 1673.4 220.148 1675.18 223.721C1676.97 227.038 1678.12 230.994 1678.63 235.587H1629.67C1630.18 230.994 1631.33 227.038 1633.11 223.721C1634.9 220.148 1637.57 217.341 1641.14 215.3C1644.71 213.258 1649.3 212.237 1654.91 212.237ZM1626.46 108.898L1552.03 125.685L1560.49 163.249L1709.36 129.678L1700.9 92.1133L1626.46 108.898Z" fill="black"/>
</svg>
