<svg width="64" height="64" viewBox="0 0 64 64" fill="none" xmlns="http://www.w3.org/2000/svg">
<rect width="64" height="64" rx="32" fill="#1C1C1C"/>
<path d="M52.438 38.3937V44H11.562V41.0079C11.562 38.3202 12.442 36.2625 14.202 34.8346C15.962 33.3858 17.9127 32.4199 20.054 31.937C22.2247 31.4331 24.8793 31.0026 28.018 30.6457C29.25 30.4987 30.5993 30.3727 32.066 30.2677C34.002 30.0997 35.5127 29.9423 36.598 29.7953C37.7127 29.6483 38.6367 29.4173 39.37 29.1024C40.1033 28.7664 40.47 28.3255 40.47 27.7795C40.47 26.8556 39.5753 26.1837 37.786 25.7638C35.9967 25.3228 33.826 25.1024 31.274 25.1024C28.8393 25.1234 26.7713 25.4068 25.07 25.9528C23.3687 26.4777 22.518 27.2966 22.518 28.4094H11.562C11.562 25.1759 13.6007 22.9711 17.678 21.7953C21.7553 20.5984 26.2873 20 31.274 20C36.5833 20 41.2913 20.5039 45.398 21.5118C49.534 22.5197 51.602 24.6299 51.602 27.8425C51.602 29.5223 50.8247 30.8661 49.27 31.874C47.7153 32.8609 45.9553 33.5643 43.99 33.9843C42.054 34.4042 39.8833 34.7612 37.478 35.0551L36.07 35.2441C35.9233 35.2441 35.454 35.2966 34.662 35.4016C30.7607 35.8005 27.534 36.231 24.982 36.6929C22.4593 37.1339 21.198 37.7008 21.198 38.3937H52.438Z" fill="white"/>
</svg>
