<svg width="4763" height="276" viewBox="0 0 4763 276" fill="none" xmlns="http://www.w3.org/2000/svg">
<g filter="url(#filter0_f_7181_45679)">
<path d="M14.9297 122.5C300.107 270.956 490.579 290.934 761.93 134.13C1043.93 -28.828 1199.95 43.9717 1475.43 134.13C1726.43 216.328 1867.26 185.947 2118.43 122.5C2394.73 44.0086 2549.64 64.9864 2825.93 122.5C3092.92 224.447 3331.79 180.014 3556.43 122.5C3814.59 56.4039 3981.04 64.4494 4226.93 122.5C4416.31 172.463 4538.93 150 4751.43 74" stroke="white" stroke-opacity="0.6" stroke-width="56"/>
</g>
<path d="M46.5663 134.847C49.1297 136.148 51.2732 137.466 52.9967 138.802C54.7597 140.124 55.99 141.686 56.6875 143.488C57.4112 145.302 57.2154 147.308 56.1002 149.506C54.0423 153.56 50.8434 155.39 46.5036 154.997C42.2032 154.59 37.8166 153.252 33.3438 150.982C28.8971 148.725 25.1425 145.914 22.08 142.55C19.0308 139.161 18.5417 135.425 20.6129 131.345L30.6377 136.384C29.7217 138.189 29.9483 139.751 31.3178 141.071C32.7267 142.379 34.5297 143.59 36.7269 144.705C38.7933 145.754 40.7116 146.349 42.4817 146.491C44.278 146.646 45.5213 146.044 46.2117 144.684L46.2316 144.645C46.6167 143.886 46.4444 143.091 45.7147 142.26C44.9851 141.43 44.1171 140.709 43.1107 140.1C42.1042 139.49 40.8752 138.801 39.4237 138.031L36.4811 136.537C33.6562 135.104 31.2837 133.685 29.3638 132.283C27.4833 130.868 26.1421 129.201 25.3404 127.281C24.5387 125.36 24.7352 123.223 25.9301 120.869C28.0013 116.789 31.1798 115.063 35.4658 115.692C39.7912 116.309 44.2949 117.805 48.9769 120.182C53.3713 122.412 57.0212 125.17 59.9268 128.454C62.8324 131.738 63.243 135.433 61.1585 139.54L51.3105 134.541C51.9744 133.233 51.7201 131.887 50.5478 130.503C49.415 129.105 47.8091 127.83 45.7302 126.676C43.4546 125.521 41.3993 124.806 39.5643 124.533C37.7294 124.259 36.5265 124.685 35.9556 125.81C35.3582 126.987 35.7576 128.177 37.1541 129.379C38.5505 130.581 40.2557 131.693 42.2698 132.716L46.5663 134.847ZM93.7758 143.222L103.777 148.01L96.5754 163.051C95.2074 165.908 93.1786 168.108 90.4891 169.65C87.7996 171.191 84.7889 171.978 81.4569 172.008C78.1376 172.013 74.8772 171.249 71.6759 169.716C68.2365 168.069 65.4248 165.926 63.241 163.287C61.0573 160.648 59.6899 157.798 59.1389 154.738C58.627 151.663 59.0419 148.691 60.3835 145.821L67.6227 130.7L77.7823 135.564L70.5431 150.685C69.3904 153.092 69.3619 155.258 70.4575 157.181C71.5797 159.117 73.2784 160.629 75.5537 161.718C76.7443 162.288 78.0293 162.627 79.4088 162.735C80.8009 162.816 82.1339 162.511 83.4079 161.82C84.7083 161.142 85.7512 159.982 86.5365 158.342L93.7758 143.222ZM102.746 183.199L92.8091 178.799L105.992 149.027L102.746 183.199ZM130.829 195.634L120.931 191.251L130.829 195.634ZM126.044 179.705L134.114 161.48L144.011 165.862L130.829 195.634L120.931 191.251L110.817 164.974L102.746 183.199L92.8091 178.799L105.992 149.027L115.929 153.427L126.044 179.705ZM165.555 173.772C169.287 175.264 172.372 177.304 174.812 179.892C177.291 182.463 178.889 185.298 179.608 188.397C180.365 191.48 180.139 194.533 178.93 197.557C177.731 200.552 175.795 202.905 173.12 204.616C170.473 206.337 167.374 207.293 163.822 207.483C160.282 207.647 156.646 206.982 152.915 205.489C149.32 204.051 146.269 202.041 143.764 199.459C141.269 196.85 139.602 193.988 138.763 190.872C137.963 187.74 138.156 184.689 139.344 181.721C140.542 178.725 142.511 176.369 145.251 174.653C148.019 172.949 151.186 172.02 154.754 171.868C158.36 171.699 161.96 172.333 165.555 173.772ZM155.971 197.85C157.496 198.46 159.084 198.716 160.734 198.618C162.412 198.531 163.931 198.049 165.293 197.172C166.655 196.295 167.674 195.012 168.349 193.324C169.025 191.635 169.158 189.998 168.75 188.413C168.379 186.812 167.611 185.415 166.446 184.222C165.291 183.002 163.951 182.086 162.426 181.476C160.873 180.855 159.272 180.594 157.621 180.692C155.971 180.79 154.459 181.291 153.087 182.195C151.752 183.083 150.753 184.358 150.088 186.019C149.413 187.707 149.265 189.339 149.647 190.913C150.028 192.487 150.782 193.879 151.91 195.088C153.065 196.308 154.418 197.229 155.971 197.85ZM196.08 215.46C194.863 215.031 193.845 214.345 193.027 213.403C192.218 212.434 191.69 211.33 191.442 210.092C191.222 208.863 191.327 207.641 191.756 206.423C192.186 205.206 192.871 204.188 193.813 203.37C194.793 202.533 195.897 202.005 197.125 201.785C198.363 201.538 199.591 201.628 200.808 202.058C202.025 202.487 203.038 203.187 203.847 204.156C204.693 205.108 205.222 206.212 205.432 207.468C205.679 208.706 205.588 209.934 205.159 211.151C204.73 212.368 204.03 213.381 203.061 214.19C202.119 215.009 201.015 215.537 199.749 215.775C198.52 215.995 197.298 215.89 196.08 215.46ZM253.675 204.859L264.309 208.001L259.583 223.993C258.686 227.032 257.031 229.525 254.62 231.474C252.209 233.422 249.361 234.676 246.076 235.235C242.8 235.765 239.459 235.528 236.055 234.522C232.398 233.441 229.283 231.771 226.708 229.512C224.133 227.252 222.332 224.655 221.302 221.721C220.309 218.766 220.248 215.766 221.117 212.719L225.868 196.642L236.67 199.834L231.92 215.911C231.163 218.471 231.478 220.614 232.865 222.339C234.28 224.072 236.197 225.296 238.616 226.011C239.882 226.385 241.205 226.516 242.584 226.403C243.971 226.262 245.239 225.75 246.387 224.866C247.564 223.99 248.409 222.68 248.925 220.936L253.675 204.859ZM298.328 232.848C297.62 235.846 296.183 238.355 294.018 240.375C291.882 242.402 289.196 243.757 285.96 244.44C282.725 245.122 279.18 245.008 275.326 244.098L275.316 244.141L266.794 242.128L266.804 242.086L258.368 240.093L265.852 208.405L282.767 212.4C286.621 213.31 289.842 214.794 292.43 216.852C295.047 218.917 296.858 221.334 297.861 224.103C298.894 226.878 299.049 229.793 298.328 232.848ZM277.543 235.67C280.026 236.257 282.223 236.143 284.134 235.328C286.079 234.491 287.342 232.846 287.922 230.39C288.246 229.02 288.139 227.684 287.603 226.382C287.073 225.051 286.212 223.913 285.018 222.968C283.86 222.001 282.525 221.339 281.011 220.982L274.417 219.425L270.948 234.113L277.543 235.67ZM307.941 251.262L297.269 249.204L303.434 217.233L314.106 219.291L307.941 251.262ZM336.51 221.868C340.488 222.443 343.966 223.701 346.945 225.644C349.958 227.561 352.178 229.942 353.604 232.786C355.064 235.605 355.561 238.626 355.095 241.848C354.633 245.042 353.303 247.784 351.105 250.074C348.936 252.369 346.147 254.025 342.74 255.044C339.336 256.034 335.646 256.242 331.669 255.667C327.837 255.113 324.4 253.875 321.358 251.953C318.32 250.003 316.028 247.611 314.482 244.78C312.968 241.923 312.44 238.912 312.897 235.748C313.359 232.555 314.72 229.802 316.981 227.491C319.27 225.184 322.131 223.538 325.564 222.553C329.029 221.542 332.678 221.314 336.51 221.868ZM332.846 247.523C334.472 247.758 336.075 247.635 337.657 247.152C339.267 246.673 340.631 245.848 341.749 244.676C342.867 243.504 343.556 242.018 343.816 240.218C344.076 238.418 343.822 236.795 343.053 235.35C342.317 233.881 341.242 232.703 339.829 231.817C338.42 230.902 336.903 230.327 335.277 230.092C333.622 229.853 332.004 229.974 330.423 230.457C328.841 230.94 327.49 231.782 326.368 232.983C325.279 234.159 324.606 235.633 324.35 237.404C324.09 239.204 324.33 240.824 325.07 242.265C325.81 243.705 326.87 244.881 328.25 245.792C329.659 246.707 331.191 247.284 332.846 247.523ZM375.84 254.616C374.552 254.529 373.388 254.141 372.347 253.452C371.308 252.735 370.503 251.813 369.933 250.686C369.392 249.562 369.165 248.355 369.253 247.068C369.34 245.78 369.728 244.616 370.416 243.575C371.136 242.506 372.058 241.702 373.183 241.161C374.309 240.591 375.516 240.349 376.804 240.437C378.092 240.524 379.255 240.927 380.294 241.644C381.364 242.335 382.169 243.257 382.708 244.411C383.278 245.537 383.52 246.744 383.432 248.032C383.344 249.32 382.942 250.483 382.224 251.522C381.536 252.563 380.614 253.368 379.458 253.936C378.334 254.477 377.127 254.704 375.84 254.616ZM422.813 241.21C425.688 241.175 428.198 241.35 430.344 241.735C432.519 242.09 434.333 242.905 435.786 244.178C437.268 245.451 438.024 247.319 438.053 249.783C438.108 254.329 436.121 257.434 432.093 259.095C428.093 260.728 423.586 261.574 418.57 261.634C413.584 261.694 408.955 260.943 404.682 259.381C400.409 257.789 398.246 254.706 398.191 250.13L409.409 249.951C409.434 251.975 410.358 253.255 412.184 253.79C414.038 254.296 416.197 254.534 418.661 254.504C420.978 254.477 422.954 254.115 424.588 253.421C426.252 252.726 427.074 251.616 427.056 250.091L427.056 250.047C427.045 249.197 426.525 248.572 425.493 248.174C424.461 247.776 423.359 247.539 422.184 247.466C421.01 247.392 419.601 247.35 417.958 247.34L414.659 247.38C411.491 247.418 408.731 247.26 406.38 246.907C404.058 246.525 402.097 245.668 400.497 244.338C398.897 243.008 398.081 241.023 398.049 238.383C397.994 233.807 400.012 230.805 404.102 229.377C408.22 227.92 412.905 227.16 418.155 227.096C423.083 227.037 427.595 227.79 431.691 229.354C435.788 230.918 437.864 234.003 437.919 238.608L426.876 238.741C426.858 237.274 426.009 236.199 424.329 235.515C422.678 234.801 420.663 234.415 418.287 234.355C415.735 234.386 413.582 234.705 411.83 235.313C410.077 235.921 409.208 236.855 409.223 238.117C409.239 239.436 410.144 240.306 411.939 240.724C413.733 241.143 415.76 241.338 418.018 241.311L422.813 241.21ZM466.569 225.148L477.61 224.131L479.139 240.737C479.43 243.892 478.816 246.82 477.297 249.523C475.779 252.226 473.597 254.444 470.752 256.179C467.904 257.885 464.713 258.9 461.179 259.226C457.382 259.576 453.869 259.177 450.641 258.031C447.413 256.885 444.778 255.139 442.735 252.794C440.72 250.417 439.552 247.653 439.232 244.501L437.695 227.807L448.911 226.774L450.449 243.468C450.693 246.126 451.779 247.999 453.706 249.089C455.662 250.175 457.896 250.603 460.408 250.371C461.722 250.25 462.999 249.882 464.239 249.267C465.475 248.623 466.464 247.678 467.203 246.432C467.972 245.182 468.273 243.652 468.106 241.841L466.569 225.148ZM494.662 254.227L483.956 256.098L478.352 224.024L494.662 254.227ZM524.916 248.941L514.253 250.804L524.916 248.941ZM512.08 238.364L508.649 218.73L519.311 216.867L524.916 248.941L514.253 250.804L491.231 234.592L494.662 254.227L483.956 256.098L478.352 224.024L489.058 222.153L512.08 238.364ZM540.09 210.888C543.984 209.894 547.679 209.724 551.176 210.376C554.693 210.993 557.656 212.341 560.063 214.421C562.492 216.466 564.108 219.065 564.913 222.22C565.711 225.347 565.533 228.389 564.38 231.347C563.256 234.298 561.315 236.897 558.559 239.144C555.794 241.363 552.465 242.968 548.571 243.962C544.819 244.919 541.171 245.092 537.625 244.483C534.072 243.846 531.038 242.515 528.524 240.493C526.031 238.434 524.39 235.856 523.6 232.758C522.802 229.631 523.005 226.567 524.207 223.566C525.438 220.558 527.449 217.941 530.242 215.715C533.056 213.454 536.338 211.845 540.09 210.888ZM546.538 235.989C548.13 235.583 549.563 234.854 550.839 233.802C552.143 232.743 553.087 231.458 553.67 229.947C554.253 228.436 554.32 226.799 553.871 225.037C553.421 223.275 552.564 221.874 551.3 220.834C550.057 219.758 548.613 219.082 546.968 218.805C545.316 218.5 543.695 218.551 542.103 218.957C540.483 219.37 539.035 220.102 537.759 221.154C536.484 222.206 535.558 223.502 534.982 225.041C534.427 226.545 534.371 228.164 534.813 229.898C535.262 231.66 536.105 233.065 537.341 234.112C538.576 235.159 540.006 235.838 541.63 236.151C543.282 236.456 544.918 236.402 546.538 235.989ZM589.029 226.149C587.804 226.554 586.579 226.635 585.356 226.391C584.122 226.12 583.029 225.57 582.075 224.742C581.15 223.905 580.484 222.874 580.079 221.649C579.673 220.423 579.593 219.199 579.836 217.975C580.099 216.714 580.649 215.621 581.486 214.695C582.313 213.741 583.34 213.062 584.565 212.656C585.79 212.251 587.02 212.184 588.253 212.456C589.504 212.69 590.598 213.24 591.533 214.105C592.486 214.933 593.166 215.959 593.571 217.184C593.977 218.41 594.044 219.639 593.772 220.872C593.528 222.096 592.978 223.189 592.123 224.152C591.286 225.078 590.255 225.744 589.029 226.149ZM627.836 182.388L638.145 178.305L644.286 193.809C645.453 196.754 645.688 199.737 644.992 202.758C644.295 205.779 642.826 208.522 640.584 210.987C638.332 213.425 635.556 215.298 632.256 216.605C628.711 218.01 625.228 218.616 621.808 218.425C618.388 218.234 615.368 217.3 612.748 215.625C610.144 213.911 608.246 211.587 607.052 208.653L600.878 193.067L611.35 188.918L617.524 204.504C618.507 206.986 620.076 208.478 622.232 208.981C624.414 209.473 626.678 209.255 629.024 208.326C630.251 207.84 631.373 207.127 632.389 206.188C633.395 205.222 634.077 204.037 634.435 202.633C634.821 201.218 634.68 199.665 634.01 197.974L627.836 182.388ZM680.404 177.033C681.681 179.836 682.083 182.699 681.61 185.622C681.163 188.534 679.87 191.25 677.731 193.772C675.592 196.293 672.721 198.375 669.117 200.017L669.135 200.057L661.167 203.687L661.149 203.647L653.261 207.241L639.762 177.611L655.578 170.405C659.182 168.763 662.637 167.963 665.943 168.004C669.277 168.033 672.188 168.834 674.678 170.407C677.194 171.968 679.103 174.177 680.404 177.033ZM665.705 191.998C668.028 190.94 669.694 189.504 670.705 187.689C671.73 185.836 671.72 183.762 670.674 181.466C670.091 180.185 669.188 179.194 667.966 178.493C666.732 177.766 665.354 177.395 663.832 177.379C662.325 177.324 660.863 177.619 659.449 178.264L653.282 181.073L659.539 194.807L665.705 191.998ZM699.354 185.832L689.6 190.627L675.236 161.407L684.99 156.612L699.354 185.832ZM705.179 145.229C708.735 143.356 712.289 142.33 715.841 142.151C719.405 141.932 722.6 142.553 725.426 144.016C728.264 145.439 730.441 147.591 731.958 150.472C733.461 153.327 733.997 156.327 733.564 159.473C733.157 162.604 731.875 165.583 729.717 168.41C727.545 171.211 724.681 173.548 721.126 175.42C717.699 177.224 714.191 178.242 710.601 178.475C706.997 178.682 703.737 178.095 700.821 176.713C697.918 175.291 695.722 173.165 694.232 170.336C692.729 167.481 692.212 164.455 692.683 161.256C693.18 158.044 694.527 155.031 696.725 152.216C698.935 149.362 701.753 147.033 705.179 145.229ZM717.292 168.14C718.746 167.374 719.97 166.332 720.966 165.012C721.988 163.678 722.606 162.209 722.822 160.604C723.037 158.998 722.722 157.391 721.874 155.782C721.027 154.172 719.868 153.009 718.396 152.292C716.937 151.536 715.375 151.214 713.711 151.328C712.034 151.416 710.468 151.842 709.015 152.607C707.535 153.386 706.297 154.436 705.302 155.756C704.306 157.076 703.707 158.551 703.505 160.183C703.316 161.774 703.638 163.362 704.471 164.945C705.319 166.554 706.465 167.724 707.911 168.455C709.356 169.185 710.905 169.514 712.556 169.44C714.234 169.352 715.813 168.919 717.292 168.14ZM756.791 149.087C755.67 149.726 754.485 150.047 753.237 150.049C751.974 150.025 750.794 149.702 749.696 149.079C748.624 148.441 747.768 147.561 747.129 146.439C746.49 145.318 746.169 144.133 746.167 142.885C746.176 141.598 746.499 140.417 747.137 139.345C747.761 138.247 748.633 137.378 749.755 136.739C750.876 136.1 752.068 135.792 753.33 135.816C754.604 135.799 755.784 136.122 756.871 136.786C757.969 137.409 758.838 138.282 759.477 139.403C760.116 140.525 760.424 141.716 760.4 142.979C760.402 144.227 760.079 145.407 759.43 146.52C758.792 147.592 757.912 148.448 756.791 149.087ZM792.102 113.698C794.644 112.356 796.958 111.366 799.043 110.73C801.141 110.054 803.127 109.951 805 110.422C806.9 110.878 808.425 112.196 809.575 114.375C811.697 118.396 811.345 122.065 808.519 125.381C805.704 128.658 802.079 131.467 797.643 133.809C793.233 136.137 788.771 137.58 784.256 138.139C779.728 138.672 776.396 136.915 774.26 132.868L784.161 127.591C785.106 129.381 786.513 130.098 788.381 129.742C790.262 129.346 792.292 128.573 794.471 127.423C796.521 126.341 798.114 125.119 799.252 123.755C800.416 122.378 800.641 121.015 799.929 119.666L799.909 119.627C799.512 118.875 798.763 118.557 797.664 118.673C796.564 118.789 795.475 119.082 794.396 119.552C793.317 120.022 792.045 120.627 790.578 121.368L787.66 122.908C784.858 124.387 782.331 125.506 780.078 126.264C777.837 126.983 775.701 127.115 773.67 126.661C771.639 126.207 770.008 124.813 768.775 122.478C766.639 118.432 767.065 114.84 770.053 111.704C773.054 108.528 776.876 105.714 781.519 103.263C785.877 100.963 790.236 99.5741 794.595 99.0975C798.954 98.6209 802.208 100.419 804.358 104.492L794.591 109.647C793.906 108.35 792.66 107.781 790.853 107.939C789.058 108.057 787.089 108.632 784.947 109.663C782.69 110.854 780.921 112.12 779.638 113.461C778.355 114.801 778.008 116.029 778.597 117.144C779.213 118.312 780.415 118.672 782.203 118.226C783.991 117.78 785.884 117.03 787.881 115.975L792.102 113.698ZM829.249 80.8677L839.293 76.1691L846.359 91.2738C847.702 94.1432 848.117 97.1067 847.604 100.164C847.091 103.221 845.791 106.048 843.702 108.645C841.601 111.214 838.943 113.251 835.728 114.755C832.274 116.371 828.834 117.187 825.409 117.203C821.984 117.219 818.913 116.469 816.196 114.955C813.494 113.402 811.459 111.197 810.09 108.339L802.986 93.1551L813.188 88.3819L820.292 103.566C821.423 105.984 823.08 107.379 825.262 107.751C827.47 108.11 829.717 107.755 832.002 106.686C833.197 106.127 834.274 105.348 835.232 104.349C836.177 103.324 836.786 102.1 837.06 100.677C837.359 99.2409 837.124 97.6994 836.353 96.0521L829.249 80.8677ZM866.305 100.286L856.211 104.316L844.138 74.0769L866.305 100.286ZM894.827 88.8981L884.775 92.9116L894.827 88.8981ZM880.093 81.1838L872.702 62.6727L882.754 58.6591L894.827 88.8981L884.775 92.9116L858.914 81.7749L866.305 100.286L856.211 104.316L844.138 74.0769L854.232 70.0471L880.093 81.1838ZM907.6 49.7389C911.427 48.5125 915.105 48.1193 918.634 48.5592C922.182 48.9622 925.221 50.1293 927.749 52.0604C930.297 53.9546 932.068 56.4521 933.061 59.5527C934.046 62.6255 934.052 65.6729 933.08 68.6951C932.136 71.7083 930.356 74.4196 927.74 76.8289C925.115 79.2103 921.888 81.0142 918.062 82.2407C914.374 83.4223 910.743 83.8161 907.166 83.422C903.581 83 900.473 81.8553 897.841 79.988C895.229 78.0837 893.435 75.6092 892.459 72.5644C891.474 69.4917 891.492 66.4213 892.511 63.3533C893.557 60.2763 895.407 57.5427 898.061 55.1523C900.733 52.7251 903.912 50.9206 907.6 49.7389ZM915.551 74.4052C917.115 73.9039 918.502 73.0897 919.712 71.9628C920.949 70.8269 921.814 69.4872 922.305 67.9437C922.796 66.4002 922.764 64.7625 922.209 63.0306C921.654 61.2987 920.714 59.9519 919.389 58.9903C918.084 57.9918 916.602 57.404 914.943 57.2271C913.276 57.0221 911.66 57.1703 910.096 57.6717C908.503 58.1819 907.102 59.0005 905.893 60.1275C904.683 61.2545 903.837 62.6037 903.355 64.1751C902.892 65.7096 902.933 67.3289 903.479 69.0328C904.034 70.7648 904.96 72.116 906.257 73.0866C907.553 74.0571 909.022 74.6493 910.661 74.8632C912.328 75.0681 913.958 74.9154 915.551 74.4052ZM958.854 64.17C957.598 64.4677 956.371 64.4419 955.173 64.0928C953.968 63.7152 952.927 63.0727 952.049 62.1654C951.199 61.2514 950.625 60.1665 950.328 58.9106C950.03 57.6547 950.056 56.4277 950.405 55.2296C950.776 53.9961 951.418 52.9546 952.332 52.1049C953.239 51.2267 954.321 50.6387 955.577 50.3411C956.833 50.0434 958.063 50.0835 959.268 50.4611C960.495 50.8035 961.536 51.4459 962.393 52.3885C963.271 53.2957 963.859 54.3773 964.157 55.6332C964.454 56.8891 964.414 58.1195 964.037 59.3244C963.687 60.5225 963.045 61.5641 962.109 62.4491C961.195 63.2987 960.11 63.8724 958.854 64.17ZM1006.88 27.7969L1017.85 26.1494L1020.33 42.6403C1020.8 45.7731 1020.35 48.7322 1018.99 51.5173C1017.63 54.3025 1015.58 56.6426 1012.84 58.5375C1010.09 60.4034 1006.96 61.6001 1003.45 62.1275C999.683 62.694 996.153 62.4976 992.865 61.5383C989.576 60.5789 986.845 58.9869 984.672 56.7625C982.523 54.5047 981.199 51.8115 980.699 48.6831L978.209 32.1051L989.348 30.4315L991.838 47.0094C992.235 49.6492 993.426 51.4576 995.412 52.4347C997.427 53.4074 999.682 53.7064 1002.18 53.3316C1003.48 53.1354 1004.74 52.6949 1005.94 52.01C1007.14 51.2961 1008.07 50.2958 1008.74 49.0091C1009.43 47.7181 1009.64 46.1733 1009.37 44.3748L1006.88 27.7969ZM1062.14 39.3643C1062.34 42.4377 1061.7 45.2574 1060.22 47.8234C1058.77 50.3874 1056.6 52.4695 1053.71 54.0697C1050.82 55.67 1047.39 56.5993 1043.44 56.8577L1043.44 56.9016L1034.71 57.4729L1034.7 57.429L1026.05 57.9946L1023.93 25.504L1041.27 24.3699C1045.22 24.1115 1048.74 24.5872 1051.82 25.797C1054.92 27.0048 1057.36 28.7855 1059.13 31.139C1060.93 33.4905 1061.94 36.2323 1062.14 39.3643ZM1043.09 48.1499C1045.64 47.9833 1047.71 47.2308 1049.29 45.8924C1050.91 44.5227 1051.64 42.5792 1051.47 40.062C1051.38 38.657 1050.89 37.4105 1049.99 36.3225C1049.1 35.2053 1047.94 34.3696 1046.52 33.8156C1045.13 33.2305 1043.66 32.9886 1042.11 33.09L1035.35 33.5322L1036.33 48.592L1043.09 48.1499ZM1076.79 55.3611L1065.92 55.485L1065.55 22.9272L1076.42 22.8032L1076.79 55.3611ZM1102.36 23.134C1106.38 23.3185 1109.96 24.2321 1113.12 25.8747C1116.3 27.4893 1118.74 29.6424 1120.44 32.3338C1122.17 34.9973 1122.96 37.9553 1122.81 41.2079C1122.66 44.4311 1121.6 47.2896 1119.64 49.7834C1117.7 52.2785 1115.09 54.1991 1111.8 55.5454C1108.51 56.8623 1104.86 57.4285 1100.84 57.244C1096.97 57.0662 1093.43 56.1693 1090.22 54.5533C1087 52.908 1084.49 50.7516 1082.67 48.0841C1080.89 45.3886 1080.07 42.4439 1080.22 39.25C1080.37 36.0267 1081.45 33.1549 1083.48 30.6345C1085.53 28.1155 1088.22 26.1982 1091.54 24.8826C1094.89 23.5391 1098.5 22.9562 1102.36 23.134ZM1101.22 49.0247C1102.86 49.1001 1104.44 48.8205 1105.97 48.186C1107.53 47.5528 1108.8 46.5984 1109.8 45.3229C1110.8 44.0474 1111.34 42.5013 1111.42 40.6845C1111.51 38.8678 1111.1 37.2779 1110.19 35.9148C1109.31 34.5238 1108.13 33.4563 1106.64 32.7123C1105.15 31.939 1103.58 31.5146 1101.94 31.4392C1100.27 31.3624 1098.67 31.6413 1097.14 32.2759C1095.62 32.9104 1094.35 33.8801 1093.35 35.1849C1092.38 36.4618 1091.86 37.9939 1091.78 39.7814C1091.69 41.5981 1092.09 43.1873 1092.97 44.549C1093.84 45.9108 1095.01 46.9776 1096.48 47.7495C1097.97 48.5229 1099.55 48.9479 1101.22 49.0247ZM1145.36 54.5911C1144.08 54.4328 1142.94 53.9814 1141.94 53.2369C1140.94 52.4634 1140.19 51.4984 1139.68 50.3422C1139.2 49.1895 1139.04 47.9727 1139.2 46.6917C1139.36 45.4108 1139.81 44.2696 1140.56 43.268C1141.33 42.2409 1142.3 41.4882 1143.45 41.0099C1144.61 40.5026 1145.83 40.328 1147.11 40.4863C1148.39 40.6446 1149.53 41.1105 1150.52 41.8841C1151.56 42.6322 1152.31 43.5971 1152.78 44.7789C1153.29 45.9352 1153.46 47.1538 1153.31 48.4347C1153.15 49.7156 1152.68 50.8551 1151.91 51.8531C1151.16 52.8547 1150.2 53.6074 1149.01 54.1111C1147.86 54.5894 1146.64 54.7493 1145.36 54.5911ZM1195.25 48.5117C1198.07 49.0446 1200.5 49.7112 1202.53 50.5117C1204.59 51.2888 1206.21 52.4447 1207.38 53.9795C1208.58 55.5196 1208.95 57.5004 1208.5 59.9217C1207.65 64.3895 1205.09 67.041 1200.82 67.876C1196.57 68.6876 1191.99 68.6285 1187.06 67.6987C1182.16 66.7743 1177.77 65.1252 1173.89 62.7514C1170.01 60.3488 1168.5 56.8991 1169.35 52.4024L1180.38 54.439C1180.01 56.428 1180.66 57.8648 1182.35 58.7496C1184.06 59.611 1186.13 60.2701 1188.55 60.7268C1190.83 61.1564 1192.84 61.1919 1194.58 60.8335C1196.35 60.4804 1197.37 59.5545 1197.66 58.0556L1197.66 58.0123C1197.82 57.1764 1197.43 56.4615 1196.5 55.8677C1195.57 55.2738 1194.53 54.8249 1193.4 54.5209C1192.26 54.2169 1190.89 53.8983 1189.28 53.565L1186.04 52.9532C1182.92 52.366 1180.25 51.6675 1178.01 50.8578C1175.81 50.0247 1174.06 48.7983 1172.75 47.1788C1171.45 45.5592 1171.04 43.4523 1171.53 40.858C1172.37 36.3613 1174.94 33.8162 1179.24 33.2227C1183.56 32.6058 1188.3 32.784 1193.46 33.7573C1198.31 34.6708 1202.58 36.2981 1206.29 38.6393C1210 40.9805 1211.42 44.4138 1210.57 48.9394L1199.72 46.8922C1199.99 45.4509 1199.37 44.2294 1197.86 43.2277C1196.38 42.2026 1194.48 41.4265 1192.16 40.8996C1189.65 40.4266 1187.48 40.3152 1185.64 40.5654C1183.8 40.8157 1182.77 41.5605 1182.53 42.8C1182.29 44.0971 1183 45.1277 1184.68 45.8918C1186.36 46.6558 1188.31 47.2472 1190.53 47.6659L1195.25 48.5117ZM1244.79 46.0055L1255.57 48.5977L1251.67 64.8116C1250.93 67.8918 1249.41 70.4668 1247.1 72.5366C1244.79 74.6064 1242.01 76.0046 1238.76 76.7312C1235.51 77.4292 1232.17 77.3633 1228.71 76.5335C1225.01 75.642 1221.81 74.1341 1219.12 72.0096C1216.44 69.8852 1214.5 67.384 1213.32 64.5061C1212.18 61.6065 1211.97 58.6132 1212.68 55.5261L1216.6 39.2267L1227.55 41.86L1223.63 58.1595C1223 60.7548 1223.43 62.8783 1224.9 64.5298C1226.4 66.1883 1228.38 67.3123 1230.84 67.9021C1232.12 68.2107 1233.45 68.2734 1234.82 68.0903C1236.2 67.8787 1237.44 67.3019 1238.54 66.36C1239.67 65.4249 1240.44 64.0732 1240.87 62.3049L1244.79 46.0055ZM1261.71 84.0616L1251.25 81.1176L1260.07 49.775L1261.71 84.0616ZM1291.27 92.3812L1280.85 89.4491L1291.27 92.3812ZM1284.27 77.2932L1289.67 58.1065L1300.09 61.0386L1291.27 92.3812L1280.85 89.4491L1267.11 64.8749L1261.71 84.0616L1251.25 81.1176L1260.07 49.775L1270.53 52.719L1284.27 77.2932ZM1324.15 67.6693C1327.99 68.8548 1331.23 70.6383 1333.87 73.0196C1336.55 75.3815 1338.37 78.0779 1339.34 81.1089C1340.34 84.1206 1340.37 87.1819 1339.41 90.293C1338.45 93.3761 1336.71 95.8783 1334.19 97.7995C1331.69 99.7295 1328.68 100.933 1325.15 101.411C1321.64 101.86 1317.96 101.492 1314.12 100.307C1310.42 99.1645 1307.22 97.4081 1304.51 95.0375C1301.81 92.6389 1299.92 89.9208 1298.83 86.8832C1297.78 83.8262 1297.72 80.7703 1298.67 77.7152C1299.62 74.6321 1301.39 72.1246 1303.98 70.1926C1306.6 68.2692 1309.69 67.0871 1313.23 66.6463C1316.81 66.186 1320.45 66.5271 1324.15 67.6693ZM1316.55 92.4449C1318.12 92.9295 1319.72 93.0561 1321.36 92.8248C1323.02 92.6021 1324.5 91.9986 1325.78 91.0143C1327.07 90.0299 1327.98 88.6689 1328.52 86.9311C1329.05 85.1934 1329.05 83.5511 1328.52 82.0043C1328.02 80.4381 1327.14 79.1077 1325.88 78.0131C1324.63 76.8905 1323.22 76.0868 1321.65 75.6022C1320.06 75.109 1318.44 74.978 1316.8 75.2094C1315.16 75.4407 1313.7 76.0626 1312.4 77.075C1311.15 78.068 1310.25 79.4193 1309.72 81.129C1309.19 82.8667 1309.17 84.5047 1309.68 86.0428C1310.19 87.581 1311.05 88.9071 1312.27 90.0211C1313.52 91.1437 1314.95 91.9517 1316.55 92.4449ZM1357.95 107.786C1356.72 107.386 1355.69 106.725 1354.85 105.804C1354.02 104.854 1353.46 103.763 1353.19 102.531C1352.94 101.308 1353.01 100.084 1353.41 98.8563C1353.81 97.6291 1354.47 96.5949 1355.39 95.7537C1356.35 94.8937 1357.44 94.3389 1358.67 94.0894C1359.9 93.8119 1361.13 93.873 1362.35 94.2728C1363.58 94.6725 1364.61 95.3472 1365.44 96.297C1366.31 97.2279 1366.87 98.3187 1367.11 99.5693C1367.38 100.801 1367.32 102.031 1366.92 103.258C1366.52 104.485 1365.85 105.515 1364.9 106.347C1363.98 107.188 1362.89 107.743 1361.63 108.011C1360.4 108.261 1359.18 108.186 1357.95 107.786ZM1416.49 98.2985L1427.01 101.798L1421.75 117.621C1420.75 120.628 1419.01 123.064 1416.53 124.93C1414.06 126.796 1411.17 127.953 1407.87 128.4C1404.57 128.82 1401.24 128.47 1397.88 127.35C1394.26 126.146 1391.2 124.372 1388.7 122.027C1386.21 119.682 1384.49 117.025 1383.56 114.058C1382.67 111.072 1382.71 108.071 1383.68 105.055L1388.97 89.148L1399.66 92.7027L1394.37 108.61C1393.53 111.143 1393.77 113.295 1395.1 115.066C1396.45 116.846 1398.33 118.134 1400.72 118.93C1401.98 119.346 1403.29 119.522 1404.67 119.456C1406.07 119.362 1407.35 118.893 1408.53 118.048C1409.73 117.212 1410.62 115.932 1411.2 114.206L1416.49 98.2985ZM1460.41 130.057C1459.44 132.981 1457.79 135.354 1455.45 137.176C1453.15 139.008 1450.35 140.122 1447.07 140.518C1443.79 140.914 1440.27 140.489 1436.51 139.244L1436.49 139.286L1428.18 136.533L1428.19 136.491L1419.97 133.766L1430.2 102.857L1446.7 108.322C1450.46 109.567 1453.54 111.328 1455.94 113.605C1458.36 115.892 1459.95 118.458 1460.71 121.304C1461.49 124.16 1461.39 127.077 1460.41 130.057ZM1439.45 131.043C1441.88 131.846 1444.07 131.925 1446.05 131.281C1448.06 130.619 1449.46 129.09 1450.26 126.695C1450.7 125.359 1450.71 124.018 1450.29 122.674C1449.88 121.302 1449.12 120.093 1448.02 119.047C1446.95 117.982 1445.67 117.205 1444.2 116.717L1437.77 114.586L1433.02 128.913L1439.45 131.043ZM1468.22 149.744L1457.9 146.33L1468.13 115.418L1478.45 118.832L1468.22 149.744ZM1501.15 125.25C1504.98 126.455 1508.21 128.254 1510.84 130.648C1513.51 133.024 1515.32 135.729 1516.27 138.765C1517.26 141.781 1517.27 144.843 1516.29 147.949C1515.32 151.027 1513.57 153.521 1511.03 155.43C1508.53 157.347 1505.51 158.536 1501.98 158.996C1498.46 159.428 1494.79 159.042 1490.95 157.838C1487.26 156.677 1484.07 154.905 1481.37 152.521C1478.68 150.109 1476.81 147.382 1475.73 144.339C1474.7 141.276 1474.66 138.22 1475.61 135.17C1476.58 132.092 1478.37 129.593 1480.97 127.674C1483.6 125.763 1486.68 124.596 1490.23 124.173C1493.81 123.731 1497.45 124.09 1501.15 125.25ZM1493.42 149.988C1494.99 150.48 1496.59 150.615 1498.23 150.392C1499.89 150.177 1501.37 149.581 1502.66 148.603C1503.95 147.625 1504.87 146.268 1505.42 144.533C1505.96 142.798 1505.97 141.156 1505.44 139.607C1504.95 138.038 1504.08 136.703 1502.83 135.602C1501.58 134.474 1500.18 133.663 1498.61 133.171C1497.02 132.67 1495.4 132.531 1493.76 132.754C1492.12 132.977 1490.65 133.592 1489.35 134.598C1488.09 135.584 1487.19 136.931 1486.65 138.638C1486.11 140.373 1486.09 142.011 1486.59 143.552C1487.09 145.093 1487.94 146.423 1489.16 147.543C1490.4 148.672 1491.82 149.487 1493.42 149.988ZM1534.76 164.609C1533.51 164.266 1532.45 163.653 1531.57 162.77C1530.69 161.859 1530.09 160.795 1529.76 159.577C1529.45 158.367 1529.47 157.14 1529.81 155.895C1530.16 154.651 1530.77 153.588 1531.65 152.706C1532.57 151.803 1533.64 151.199 1534.85 150.894C1536.06 150.561 1537.29 150.566 1538.54 150.91C1539.78 151.253 1540.84 151.881 1541.72 152.792C1542.63 153.682 1543.23 154.746 1543.53 155.985C1543.86 157.203 1543.86 158.434 1543.51 159.678C1543.17 160.922 1542.54 161.981 1541.63 162.856C1540.75 163.738 1539.68 164.342 1538.44 164.667C1537.23 164.972 1536 164.953 1534.76 164.609ZM1583.94 162.228C1586.74 162.879 1589.14 163.647 1591.13 164.532C1593.16 165.395 1594.72 166.618 1595.83 168.201C1596.97 169.79 1597.26 171.785 1596.7 174.185C1595.67 178.613 1593 181.155 1588.69 181.81C1584.42 182.442 1579.84 182.191 1574.95 181.055C1570.1 179.925 1565.78 178.093 1562 175.558C1558.23 172.995 1556.86 169.485 1557.9 165.028L1568.84 167.526C1568.38 169.497 1568.97 170.961 1570.62 171.915C1572.3 172.848 1574.34 173.594 1576.74 174.152C1579 174.676 1581 174.796 1582.75 174.511C1584.54 174.233 1585.6 173.351 1585.94 171.865L1585.95 171.822C1586.15 170.994 1585.79 170.263 1584.88 169.63C1583.98 168.998 1582.96 168.506 1581.84 168.155C1580.72 167.803 1579.36 167.427 1577.76 167.026L1574.55 166.279C1571.46 165.562 1568.82 164.751 1566.62 163.848C1564.46 162.924 1562.76 161.625 1561.52 159.952C1560.28 158.279 1559.96 156.156 1560.56 153.585C1561.6 149.128 1564.27 146.693 1568.58 146.28C1572.93 145.846 1577.66 146.223 1582.78 147.412C1587.58 148.528 1591.78 150.334 1595.39 152.828C1598.99 155.323 1600.27 158.814 1599.23 163.299L1588.47 160.798C1588.81 159.369 1588.24 158.123 1586.77 157.059C1585.33 155.972 1583.47 155.117 1581.18 154.493C1578.69 153.915 1576.52 153.713 1574.68 153.886C1572.83 154.058 1571.76 154.759 1571.48 155.988C1571.18 157.273 1571.85 158.333 1573.49 159.167C1575.14 160.001 1577.06 160.673 1579.26 161.185L1583.94 162.228ZM1631.18 158.253L1642.09 160.264L1639.06 176.663C1638.49 179.779 1637.1 182.432 1634.91 184.622C1632.72 186.812 1630.02 188.357 1626.81 189.257C1623.6 190.128 1620.26 190.241 1616.77 189.597C1613.02 188.905 1609.74 187.57 1606.95 185.593C1604.15 183.615 1602.09 181.221 1600.75 178.41C1599.46 175.576 1599.08 172.599 1599.63 169.478L1602.67 152.992L1613.75 155.036L1610.71 171.521C1610.22 174.146 1610.76 176.244 1612.32 177.814C1613.91 179.39 1615.94 180.407 1618.42 180.864C1619.72 181.104 1621.05 181.096 1622.41 180.839C1623.77 180.554 1624.98 179.912 1626.03 178.912C1627.11 177.918 1627.81 176.527 1628.14 174.738L1631.18 158.253ZM1650.32 194.197L1639.54 192.805L1643.71 160.513L1650.32 194.197ZM1680.78 198.132L1670.04 196.745L1680.78 198.132ZM1671.66 184.222L1674.22 164.454L1684.95 165.841L1680.78 198.132L1670.04 196.745L1652.87 174.429L1650.32 194.197L1639.54 192.805L1643.71 160.513L1654.49 161.906L1671.66 184.222ZM1707.14 166.733C1711.15 167.012 1714.71 168.01 1717.83 169.726C1720.97 171.416 1723.36 173.626 1724.99 176.356C1726.66 179.06 1727.38 182.036 1727.15 185.284C1726.93 188.503 1725.8 191.335 1723.78 193.782C1721.79 196.231 1719.13 198.09 1715.81 199.358C1712.49 200.597 1708.82 201.077 1704.81 200.798C1700.95 200.529 1697.43 199.548 1694.25 197.857C1691.08 196.137 1688.62 193.921 1686.87 191.212C1685.15 188.475 1684.4 185.512 1684.62 182.322C1684.84 179.103 1686 176.258 1688.08 173.786C1690.19 171.316 1692.92 169.463 1696.27 168.226C1699.65 166.962 1703.28 166.464 1707.14 166.733ZM1705.38 192.589C1707.02 192.704 1708.61 192.461 1710.15 191.863C1711.72 191.267 1713.02 190.343 1714.05 189.091C1715.08 187.839 1715.66 186.307 1715.78 184.492C1715.91 182.678 1715.53 181.079 1714.66 179.695C1713.82 178.283 1712.66 177.188 1711.18 176.409C1709.71 175.601 1708.16 175.14 1706.52 175.026C1704.85 174.91 1703.25 175.151 1701.7 175.749C1700.16 176.348 1698.88 177.287 1697.85 178.568C1696.85 179.822 1696.29 181.341 1696.16 183.126C1696.04 184.94 1696.39 186.539 1697.24 187.921C1698.08 189.303 1699.23 190.397 1700.67 191.203C1702.14 192.011 1703.71 192.473 1705.38 192.589ZM1748.86 196.76C1747.57 196.748 1746.39 196.429 1745.31 195.803C1744.23 195.148 1743.37 194.274 1742.74 193.183C1742.13 192.092 1741.83 190.902 1741.85 189.611C1741.86 188.32 1742.18 187.135 1742.8 186.056C1743.46 184.947 1744.33 184.09 1745.42 183.483C1746.51 182.848 1747.7 182.536 1748.99 182.548C1750.29 182.56 1751.47 182.894 1752.55 183.549C1753.66 184.175 1754.52 185.048 1755.12 186.169C1755.76 187.26 1756.07 188.451 1756.06 189.741C1756.05 191.032 1755.71 192.217 1755.06 193.296C1754.43 194.376 1753.56 195.233 1752.44 195.868C1751.35 196.474 1750.15 196.771 1748.86 196.76ZM1799.75 167.907L1810.82 167.379L1811.62 184.036C1811.77 187.201 1811.03 190.099 1809.39 192.732C1807.75 195.365 1805.47 197.485 1802.56 199.093C1799.64 200.671 1796.4 201.544 1792.86 201.713C1789.05 201.895 1785.56 201.342 1782.38 200.054C1779.21 198.766 1776.65 196.906 1774.72 194.472C1772.81 192.008 1771.76 189.195 1771.58 186.032L1770.79 169.287L1782.04 168.751L1782.83 185.496C1782.96 188.162 1783.96 190.082 1785.84 191.255C1787.75 192.427 1789.96 192.953 1792.48 192.833C1793.8 192.77 1795.09 192.459 1796.35 191.9C1797.62 191.311 1798.65 190.41 1799.44 189.198C1800.26 187.984 1800.63 186.469 1800.55 184.652L1799.75 167.907ZM1851.23 179.861C1851.53 182.926 1850.98 185.765 1849.59 188.378C1848.22 190.987 1846.12 193.139 1843.28 194.832C1840.44 196.525 1837.05 197.565 1833.1 197.951L1833.11 197.995L1824.39 198.849L1824.39 198.805L1815.76 199.65L1812.59 167.246L1829.88 165.551C1833.83 165.164 1837.35 165.526 1840.47 166.635C1843.61 167.742 1846.11 169.443 1847.95 171.738C1849.83 174.03 1850.92 176.737 1851.23 179.861ZM1832.47 189.259C1835.01 189.01 1837.06 188.191 1838.6 186.802C1840.17 185.381 1840.83 183.415 1840.59 180.904C1840.45 179.503 1839.91 178.273 1838.99 177.214C1838.05 176.127 1836.87 175.329 1835.44 174.821C1834.03 174.281 1832.55 174.087 1831 174.239L1824.26 174.9L1825.73 189.92L1832.47 189.259ZM1866.3 194.322L1855.52 195.7L1851.39 163.403L1862.17 162.025L1866.3 194.322ZM1884.97 157.797C1888.95 157.178 1892.64 157.359 1896.06 158.34C1899.5 159.288 1902.32 160.912 1904.52 163.211C1906.75 165.477 1908.11 168.219 1908.61 171.436C1909.11 174.624 1908.64 177.636 1907.21 180.471C1905.81 183.302 1903.63 185.704 1900.68 187.679C1897.71 189.625 1894.25 190.908 1890.28 191.527C1886.45 192.123 1882.8 191.949 1879.33 191.006C1875.85 190.034 1872.96 188.421 1870.65 186.169C1868.36 183.883 1866.97 181.161 1866.48 178.001C1865.98 174.813 1866.48 171.782 1867.96 168.909C1869.47 166.032 1871.72 163.618 1874.71 161.667C1877.73 159.683 1881.15 158.393 1884.97 157.797ZM1889.01 183.397C1890.63 183.144 1892.13 182.554 1893.5 181.628C1894.9 180.698 1895.96 179.508 1896.68 178.059C1897.41 176.611 1897.63 174.988 1897.35 173.191C1897.07 171.394 1896.35 169.918 1895.19 168.763C1894.05 167.574 1892.68 166.764 1891.07 166.332C1889.45 165.871 1887.83 165.767 1886.21 166.02C1884.56 166.278 1883.05 166.869 1881.68 167.795C1880.31 168.721 1879.26 169.923 1878.54 171.401C1877.85 172.845 1877.64 174.451 1877.92 176.219C1878.2 178.016 1878.9 179.495 1880.03 180.654C1881.16 181.814 1882.52 182.627 1884.11 183.092C1885.72 183.553 1887.36 183.654 1889.01 183.397ZM1932.55 178.192C1931.28 178.435 1930.05 178.355 1928.87 177.955C1927.69 177.525 1926.67 176.838 1925.83 175.893C1925.03 174.943 1924.5 173.834 1924.26 172.566C1924.01 171.299 1924.09 170.074 1924.49 168.892C1924.92 167.676 1925.61 166.664 1926.56 165.854C1927.5 165.016 1928.61 164.476 1929.87 164.233C1931.14 163.991 1932.37 164.084 1933.56 164.514C1934.77 164.909 1935.78 165.596 1936.59 166.575C1937.43 167.52 1937.97 168.626 1938.22 169.894C1938.46 171.161 1938.36 172.389 1937.94 173.576C1937.53 174.758 1936.85 175.771 1935.87 176.614C1934.92 177.423 1933.81 177.949 1932.55 178.192ZM1976.04 154.715C1978.85 154.109 1981.35 153.782 1983.53 153.732C1985.73 153.647 1987.67 154.084 1989.35 155.043C1991.05 155.995 1992.16 157.676 1992.68 160.085C1993.64 164.529 1992.31 167.967 1988.69 170.397C1985.1 172.792 1980.85 174.518 1975.95 175.576C1971.07 176.626 1966.39 176.812 1961.89 176.131C1957.39 175.421 1954.65 172.83 1953.69 168.357L1964.65 165.949C1965.07 167.928 1966.23 168.998 1968.13 169.159C1970.05 169.286 1972.21 169.09 1974.62 168.571C1976.88 168.082 1978.75 167.335 1980.21 166.329C1981.7 165.318 1982.29 164.066 1981.97 162.575L1981.96 162.532C1981.78 161.7 1981.14 161.192 1980.05 161.007C1978.96 160.822 1977.84 160.81 1976.67 160.971C1975.51 161.133 1974.12 161.372 1972.5 161.689L1969.28 162.385C1966.18 163.053 1963.45 163.447 1961.07 163.569C1958.72 163.656 1956.63 163.207 1954.79 162.222C1952.96 161.236 1951.77 159.453 1951.21 156.873C1950.25 152.4 1951.63 149.056 1955.35 146.843C1959.1 144.595 1963.54 142.918 1968.67 141.811C1973.49 140.773 1978.06 140.612 1982.38 141.33C1986.71 142.048 1989.36 144.658 1990.33 149.16L1979.53 151.487C1979.22 150.054 1978.18 149.169 1976.39 148.833C1974.63 148.462 1972.58 148.484 1970.24 148.899C1967.75 149.437 1965.7 150.178 1964.1 151.122C1962.51 152.067 1961.84 153.155 1962.11 154.388C1962.39 155.679 1963.45 156.35 1965.29 156.403C1967.13 156.457 1969.16 156.245 1971.36 155.769L1976.04 154.715ZM2018.22 131.599L2029.01 129.08L2032.8 145.32C2033.52 148.405 2033.31 151.39 2032.18 154.276C2031.05 157.161 2029.19 159.657 2026.61 161.765C2024.02 163.844 2021 165.287 2017.54 166.094C2013.83 166.96 2010.29 167.046 2006.94 166.353C2003.58 165.659 2000.74 164.291 1998.39 162.247C1996.07 160.168 1994.53 157.589 1993.79 154.511L1989.98 138.185L2000.95 135.626L2004.76 151.952C2005.36 154.552 2006.69 156.259 2008.75 157.074C2010.84 157.883 2013.11 158.001 2015.57 157.428C2016.85 157.128 2018.07 156.589 2019.21 155.81C2020.35 155.003 2021.2 153.931 2021.76 152.595C2022.35 151.252 2022.44 149.696 2022.02 147.924L2018.22 131.599ZM2050.28 157.407L2039.72 159.996L2031.97 128.373L2050.28 157.407ZM2080.1 150.093L2069.59 152.671L2080.1 150.093ZM2066.58 140.406L2061.84 121.048L2072.35 118.47L2080.1 150.093L2069.59 152.671L2045.53 138.049L2050.28 157.407L2039.72 159.996L2031.97 128.373L2042.52 125.784L2066.58 140.406ZM2095.27 111.915C2099.16 110.922 2102.85 110.751 2106.35 111.403C2109.87 112.02 2112.83 113.368 2115.24 115.448C2117.67 117.493 2119.28 120.093 2120.09 123.248C2120.89 126.374 2120.71 129.417 2119.56 132.375C2118.43 135.325 2116.49 137.924 2113.73 140.171C2110.97 142.39 2107.64 143.996 2103.75 144.989C2099.99 145.946 2096.35 146.12 2092.8 145.51C2089.25 144.873 2086.21 143.543 2083.7 141.52C2081.21 139.461 2079.57 136.883 2078.78 133.785C2077.98 130.658 2078.18 127.595 2079.38 124.594C2080.61 121.586 2082.62 118.969 2085.42 116.743C2088.23 114.481 2091.51 112.872 2095.27 111.915ZM2101.71 137.016C2103.31 136.61 2104.74 135.881 2106.01 134.829C2107.32 133.77 2108.26 132.485 2108.85 130.974C2109.43 129.463 2109.5 127.826 2109.05 126.064C2108.6 124.302 2107.74 122.901 2106.48 121.861C2105.23 120.786 2103.79 120.109 2102.14 119.833C2100.49 119.527 2098.87 119.578 2097.28 119.984C2095.66 120.397 2094.21 121.13 2092.93 122.182C2091.66 123.233 2090.73 124.529 2090.16 126.069C2089.6 127.572 2089.55 129.191 2089.99 130.925C2090.44 132.687 2091.28 134.092 2092.52 135.139C2093.75 136.186 2095.18 136.866 2096.81 137.178C2098.46 137.483 2100.09 137.429 2101.71 137.016ZM2144.73 127.883C2143.49 128.217 2142.26 128.227 2141.05 127.913C2139.84 127.571 2138.78 126.959 2137.87 126.077C2137 125.188 2136.39 124.121 2136.06 122.874C2135.72 121.627 2135.71 120.4 2136.03 119.192C2136.36 117.948 2136.98 116.889 2137.86 116.013C2138.75 115.109 2139.81 114.49 2141.06 114.156C2142.3 113.822 2143.53 113.826 2144.75 114.168C2145.99 114.475 2147.05 115.087 2147.93 116.004C2148.83 116.885 2149.45 117.949 2149.79 119.196C2150.12 120.443 2150.12 121.674 2149.77 122.889C2149.46 124.097 2148.85 125.157 2147.94 126.069C2147.05 126.945 2145.98 127.549 2144.73 127.883ZM2189.46 88.5544L2200.24 85.9737L2204.13 102.192C2204.86 105.273 2204.67 108.259 2203.55 111.15C2202.44 114.042 2200.59 116.549 2198.03 118.672C2195.45 120.766 2192.44 122.226 2188.99 123.053C2185.28 123.94 2181.74 124.047 2178.38 123.373C2175.03 122.699 2172.17 121.346 2169.81 119.316C2167.48 117.251 2165.93 114.681 2165.16 111.607L2161.26 95.3033L2172.22 92.6816L2176.12 108.985C2176.74 111.581 2178.08 113.281 2180.14 114.084C2182.23 114.881 2184.51 114.986 2186.96 114.398C2188.24 114.091 2189.45 113.545 2190.59 112.759C2191.73 111.946 2192.57 110.869 2193.12 109.53C2193.71 108.184 2193.79 106.627 2193.36 104.858L2189.46 88.5544ZM2244.26 93.3855C2244.89 96.4003 2244.65 99.2818 2243.55 102.03C2242.47 104.772 2240.61 107.138 2237.97 109.129C2235.33 111.12 2232.08 112.52 2228.2 113.331L2228.21 113.374L2219.64 115.166L2219.63 115.123L2211.14 116.898L2204.48 85.0273L2221.49 81.4695C2225.37 80.6588 2228.91 80.6364 2232.13 81.4021C2235.38 82.1617 2238.04 83.5824 2240.12 85.6639C2242.24 87.7395 2243.61 90.3133 2244.26 93.3855ZM2226.63 104.758C2229.13 104.236 2231.07 103.201 2232.45 101.653C2233.86 100.07 2234.31 98.0435 2233.79 95.5743C2233.5 94.1961 2232.84 93.0312 2231.8 92.0796C2230.76 91.0992 2229.49 90.4343 2228.01 90.0849C2226.55 89.7007 2225.06 89.6678 2223.54 89.986L2216.91 91.3731L2220 106.146L2226.63 104.758ZM2260.95 106.745L2250.26 108.754L2244.25 76.7545L2254.93 74.746L2260.95 106.745ZM2279.39 70.0175C2283.35 69.3756 2287.05 69.5352 2290.47 70.4965C2293.92 71.4242 2296.75 73.0314 2298.96 75.318C2301.2 77.5709 2302.58 80.3045 2303.1 83.5187C2303.62 86.7039 2303.17 89.7182 2301.76 92.5616C2300.37 95.4004 2298.21 97.8158 2295.26 99.8081C2292.31 101.771 2288.85 103.074 2284.88 103.716C2281.06 104.335 2277.41 104.182 2273.93 103.259C2270.45 102.307 2267.55 100.712 2265.23 98.4731C2262.93 96.2005 2261.52 93.4861 2261.01 90.3298C2260.5 87.1446 2260.97 84.1111 2262.44 81.2294C2263.93 78.343 2266.17 75.9158 2269.15 73.9478C2272.15 71.9462 2275.56 70.6361 2279.39 70.0175ZM2283.57 95.5937C2285.19 95.3313 2286.68 94.7331 2288.05 93.7991C2289.44 92.8605 2290.5 91.6647 2291.21 90.2117C2291.93 88.7587 2292.14 87.1345 2291.85 85.3392C2291.56 83.5439 2290.83 82.072 2289.66 80.9236C2288.52 79.7416 2287.14 78.9394 2285.53 78.5171C2283.91 78.0658 2282.29 77.9714 2280.67 78.2338C2279.02 78.5009 2277.51 79.1014 2276.15 80.0353C2274.78 80.9693 2273.75 82.1772 2273.04 83.6592C2272.35 85.1075 2272.15 86.7148 2272.43 88.4812C2272.73 90.2765 2273.44 91.7507 2274.58 92.9038C2275.71 94.0569 2277.08 94.8614 2278.67 95.3174C2280.28 95.7687 2281.92 95.8608 2283.57 95.5937ZM2327.66 91.3484C2326.38 91.5034 2325.17 91.3404 2324.01 90.8592C2322.86 90.3489 2321.9 89.5938 2321.13 88.5939C2320.38 87.5904 2319.93 86.448 2319.78 85.1667C2319.62 83.8854 2319.79 82.669 2320.27 81.5175C2320.78 80.3334 2321.53 79.3703 2322.53 78.6284C2323.53 77.8574 2324.67 77.3943 2325.96 77.2393C2327.24 77.0842 2328.46 77.2618 2329.61 77.7721C2330.79 78.2497 2331.75 79.0049 2332.5 80.0374C2333.27 81.0374 2333.73 82.178 2333.89 83.4593C2334.04 84.7407 2333.87 85.9588 2333.36 87.1138C2332.87 88.2653 2332.12 89.2283 2331.09 90.0029C2330.09 90.7448 2328.94 91.1933 2327.66 91.3484ZM2374.15 72.7542C2377.01 72.5294 2379.53 72.538 2381.7 72.78C2383.89 72.9904 2385.75 73.6828 2387.29 74.8572C2388.85 76.0292 2389.73 77.8434 2389.92 80.2999C2390.28 84.8326 2388.5 88.0615 2384.59 89.9864C2380.71 91.8798 2376.27 93.0226 2371.27 93.4148C2366.29 93.8047 2361.63 93.3618 2357.26 92.0859C2352.89 90.7809 2350.53 87.8474 2350.17 83.2854L2361.35 82.3642C2361.51 84.382 2362.52 85.5976 2364.37 86.011C2366.26 86.3929 2368.43 86.4875 2370.88 86.2948C2373.19 86.1136 2375.14 85.6225 2376.73 84.8215C2378.34 84.0181 2379.09 82.8561 2378.97 81.3355L2378.97 81.2916C2378.9 80.4435 2378.34 79.8549 2377.28 79.5258C2376.23 79.1967 2375.11 79.0341 2373.93 79.0381C2372.76 79.0422 2371.35 79.0938 2369.71 79.193L2366.42 79.451C2363.26 79.6987 2360.5 79.7242 2358.13 79.5276C2355.79 79.2994 2353.77 78.5746 2352.09 77.3532C2350.4 76.1319 2349.46 74.2053 2349.25 71.5733C2348.89 67.0114 2350.71 63.8826 2354.69 62.187C2358.71 60.4599 2363.33 59.3911 2368.57 58.9805C2373.48 58.5952 2378.03 59.0473 2382.22 60.3369C2386.41 61.6265 2388.69 64.5669 2389.05 69.1581L2378.04 70.0217C2377.92 68.5595 2377 67.5428 2375.28 66.9717C2373.59 66.3691 2371.55 66.1168 2369.18 66.2149C2366.63 66.4144 2364.51 66.8754 2362.8 67.5979C2361.09 68.3204 2360.28 69.3104 2360.38 70.5679C2360.49 71.8838 2361.45 72.6912 2363.26 72.9899C2365.08 73.2887 2367.12 73.3497 2369.37 73.1731L2374.15 72.7542ZM2421.11 57.1932L2432.19 56.807L2432.77 73.4729C2432.88 76.639 2432.1 79.5279 2430.43 82.1397C2428.76 84.7514 2426.45 86.8423 2423.52 88.4123C2420.58 89.9529 2417.33 90.7851 2413.78 90.9087C2409.97 91.0415 2406.49 90.4439 2403.33 89.1157C2400.17 87.7875 2397.64 85.8946 2395.74 83.4368C2393.86 80.9486 2392.85 78.122 2392.71 74.957L2392.13 58.2032L2403.39 57.8108L2403.97 74.5647C2404.06 77.2324 2405.04 79.1648 2406.9 80.3621C2408.79 81.5583 2411 82.1124 2413.52 82.0246C2414.84 81.9786 2416.13 81.6839 2417.41 81.1406C2418.68 80.568 2419.72 79.6806 2420.53 78.4783C2421.37 77.275 2421.75 75.7646 2421.69 73.9471L2421.11 57.1932ZM2447.59 89.4148L2436.72 89.3091L2437.04 56.7507L2447.59 89.4148ZM2478.3 89.7133L2467.48 89.6081L2478.3 89.7133ZM2467.6 76.9807L2467.79 57.0496L2478.62 57.1548L2478.3 89.7133L2467.48 89.6081L2447.78 69.4837L2447.59 89.4148L2436.72 89.3091L2437.04 56.7507L2447.91 56.8563L2467.6 76.9807ZM2504.14 57.6854C2508.16 57.8969 2511.74 58.8346 2514.88 60.4983C2518.05 62.1344 2520.48 64.3038 2522.16 67.0065C2523.87 69.6816 2524.64 72.6448 2524.47 75.8963C2524.3 79.1185 2523.22 81.9698 2521.24 84.4503C2519.29 86.9324 2516.66 88.8354 2513.36 90.1595C2510.06 91.4543 2506.4 91.9959 2502.39 91.7844C2498.52 91.5805 2494.99 90.6598 2491.79 89.0223C2488.58 87.3554 2486.08 85.1822 2484.29 82.5025C2482.52 79.7951 2481.72 76.8449 2481.89 73.652C2482.06 70.4298 2483.16 67.5654 2485.21 65.0587C2487.28 62.5536 2489.98 60.6544 2493.3 59.3611C2496.66 58.0401 2500.28 57.4816 2504.14 57.6854ZM2502.82 83.5678C2504.46 83.6542 2506.05 83.3853 2507.58 82.761C2509.14 82.1383 2510.42 81.1926 2511.43 79.9238C2512.44 78.655 2512.99 77.1126 2513.09 75.2965C2513.18 73.4803 2512.78 71.8877 2511.88 70.5185C2511.02 69.1217 2509.84 68.0462 2508.35 67.2922C2506.87 66.5089 2505.3 66.074 2503.66 65.9875C2501.99 65.8995 2500.39 66.1677 2498.86 66.7919C2497.33 67.4162 2496.06 68.3774 2495.05 69.6754C2494.07 70.9457 2493.54 72.4743 2493.44 74.2612C2493.35 76.0773 2493.73 77.6692 2494.6 79.0367C2495.47 80.4043 2496.63 81.479 2498.09 82.2608C2499.58 83.0441 2501.15 83.4798 2502.82 83.5678ZM2546.81 88.7184C2545.52 88.6018 2544.37 88.1878 2543.34 87.4763C2542.32 86.7356 2541.53 85.7957 2540.99 84.6565C2540.47 83.52 2540.27 82.309 2540.39 81.0236C2540.51 79.7382 2540.92 78.5829 2541.63 77.5576C2542.38 76.5058 2543.32 75.7221 2544.45 75.2067C2545.59 74.662 2546.8 74.4479 2548.09 74.5645C2549.38 74.681 2550.53 75.1096 2551.55 75.8503C2552.61 76.5645 2553.39 77.5044 2553.9 78.6702C2554.45 79.8093 2554.66 81.0216 2554.55 82.307C2554.43 83.5924 2554 84.7464 2553.26 85.769C2552.55 86.7943 2551.61 87.578 2550.44 88.12C2549.3 88.6355 2548.09 88.8349 2546.81 88.7184ZM2602.52 67.4867L2613.52 68.8487L2611.47 85.3984C2611.08 88.5425 2609.86 91.2727 2607.8 93.5892C2605.74 95.9057 2603.13 97.6079 2599.98 98.696C2596.84 99.7549 2593.5 100.066 2589.98 99.6304C2586.2 99.162 2582.85 98.0236 2579.94 96.2152C2577.03 94.4069 2574.83 92.1392 2573.34 89.4122C2571.87 86.6598 2571.32 83.7097 2571.68 80.5621L2573.74 63.9251L2584.92 65.3087L2582.86 81.9457C2582.53 84.5948 2583.19 86.657 2584.84 88.1322C2586.52 89.6109 2588.61 90.5053 2591.12 90.8151C2592.43 90.9773 2593.75 90.8902 2595.1 90.5538C2596.44 90.1883 2597.61 89.4756 2598.6 88.4157C2599.61 87.3593 2600.23 85.9287 2600.46 84.1238L2602.52 67.4867ZM2652.11 91.0581C2651.65 94.1044 2650.43 96.7249 2648.44 98.9196C2646.48 101.119 2643.92 102.694 2640.75 103.645C2637.59 104.596 2634.04 104.78 2630.13 104.195L2630.12 104.239L2621.46 102.947L2621.47 102.904L2612.89 101.625L2617.7 69.4211L2634.89 71.9851C2638.8 72.5694 2642.14 73.7785 2644.89 75.6125C2647.67 77.4508 2649.68 79.7075 2650.91 82.3826C2652.17 85.062 2652.57 87.9538 2652.11 91.0581ZM2631.63 95.6111C2634.15 95.9876 2636.33 95.69 2638.17 94.7181C2640.04 93.7216 2641.16 91.9758 2641.53 89.4807C2641.74 88.0881 2641.52 86.7655 2640.88 85.5129C2640.24 84.2312 2639.28 83.1695 2638.02 82.3279C2636.78 81.4615 2635.39 80.9136 2633.86 80.6843L2627.15 79.6846L2624.93 94.6115L2631.63 95.6111ZM2663.14 109.288L2652.41 107.543L2657.64 75.4056L2668.37 77.1498L2663.14 109.288ZM2692.6 80.6628C2696.56 81.3574 2700 82.7203 2702.92 84.7515C2705.87 86.7589 2708.02 89.2054 2709.36 92.0912C2710.73 94.9531 2711.14 97.9875 2710.58 101.195C2710.02 104.373 2708.61 107.073 2706.34 109.296C2704.1 111.524 2701.27 113.096 2697.83 114.012C2694.4 114.899 2690.7 114.995 2686.74 114.301C2682.93 113.631 2679.53 112.29 2676.55 110.278C2673.57 108.237 2671.35 105.777 2669.89 102.9C2668.47 99.9994 2668.03 96.9743 2668.58 93.8251C2669.14 90.647 2670.58 87.937 2672.91 85.6952C2675.27 83.4585 2678.18 81.8992 2681.64 81.0174C2685.13 80.1117 2688.79 79.9936 2692.6 80.6628ZM2688.17 106.196C2689.78 106.48 2691.39 106.405 2692.99 105.97C2694.61 105.54 2696 104.756 2697.15 103.619C2698.3 102.481 2699.04 101.016 2699.35 99.2248C2699.67 97.4335 2699.46 95.8041 2698.74 94.3367C2698.04 92.8454 2697.01 91.6357 2695.62 90.7075C2694.24 89.7505 2692.74 89.13 2691.12 88.846C2689.48 88.557 2687.85 88.63 2686.26 89.0648C2684.66 89.4996 2683.29 90.3004 2682.13 91.4672C2681.01 92.6102 2680.29 94.0628 2679.98 95.8252C2679.67 97.6165 2679.86 99.2434 2680.55 100.706C2681.25 102.168 2682.27 103.375 2683.63 104.327C2685.01 105.284 2686.52 105.907 2688.17 106.196ZM2731.17 116.2C2729.9 115.958 2728.79 115.433 2727.84 114.624C2726.9 113.787 2726.21 112.775 2725.78 111.588C2725.38 110.406 2725.3 109.182 2725.54 107.914C2725.78 106.646 2726.31 105.537 2727.11 104.586C2727.96 103.612 2728.97 102.924 2730.15 102.523C2731.34 102.092 2732.57 101.998 2733.83 102.239C2735.1 102.481 2736.21 103.021 2737.15 103.858C2738.13 104.672 2738.82 105.684 2739.22 106.894C2739.65 108.081 2739.74 109.309 2739.5 110.577C2739.26 111.845 2738.72 112.951 2737.88 113.896C2737.07 114.847 2736.06 115.535 2734.84 115.96C2733.66 116.362 2732.44 116.442 2731.17 116.2ZM2780.7 111.505C2783.52 112.07 2785.94 112.765 2787.96 113.588C2790.01 114.389 2791.61 115.564 2792.77 117.112C2793.95 118.666 2794.3 120.651 2793.82 123.066C2792.92 127.524 2790.33 130.146 2786.05 130.932C2781.8 131.695 2777.21 131.583 2772.29 130.597C2767.4 129.616 2763.03 127.917 2759.18 125.498C2755.33 123.051 2753.86 119.584 2754.76 115.098L2765.77 117.261C2765.37 119.246 2766.01 120.69 2767.68 121.594C2769.39 122.475 2771.45 123.158 2773.87 123.642C2776.14 124.098 2778.15 124.157 2779.89 123.818C2781.66 123.486 2782.7 122.571 2783 121.076L2783.01 121.033C2783.17 120.199 2782.8 119.479 2781.87 118.875C2780.94 118.27 2779.91 117.809 2778.78 117.492C2777.65 117.175 2776.28 116.841 2774.67 116.489L2771.44 115.84C2768.33 115.217 2765.67 114.488 2763.44 113.653C2761.25 112.795 2759.51 111.548 2758.22 109.914C2756.93 108.279 2756.55 106.168 2757.07 103.579C2757.97 99.0926 2760.57 96.5772 2764.86 96.033C2769.2 95.4658 2773.94 95.6985 2779.09 96.731C2783.92 97.7001 2788.17 99.3764 2791.85 101.76C2795.53 104.144 2796.92 107.593 2796.02 112.109L2785.19 109.937C2785.48 108.499 2784.87 107.27 2783.37 106.251C2781.9 105.209 2780.01 104.411 2777.7 103.858C2775.2 103.356 2773.03 103.22 2771.19 103.449C2769.35 103.678 2768.3 104.411 2768.05 105.648C2767.79 106.942 2768.5 107.981 2770.17 108.764C2771.83 109.547 2773.77 110.161 2775.99 110.605L2780.7 111.505ZM2830 109.149L2840.78 111.744L2836.88 127.957C2836.14 131.037 2834.61 133.611 2832.3 135.681C2829.99 137.75 2827.21 139.147 2823.96 139.873C2820.72 140.57 2817.37 140.503 2813.92 139.672C2810.21 138.78 2807.01 137.271 2804.33 135.146C2801.64 133.021 2799.71 130.519 2798.53 127.641C2797.39 124.741 2797.17 121.747 2797.89 118.661L2801.81 102.362L2812.76 104.999L2808.84 121.297C2808.21 123.892 2808.64 126.016 2810.11 127.668C2811.61 129.327 2813.59 130.451 2816.04 131.042C2817.32 131.351 2818.65 131.414 2820.02 131.231C2821.4 131.02 2822.64 130.443 2823.74 129.502C2824.87 128.567 2825.65 127.215 2826.08 125.447L2830 109.149ZM2846.61 147.878L2836.34 144.341L2846.93 113.553L2846.61 147.878ZM2875.65 157.872L2865.42 154.35L2875.65 157.872ZM2869.53 142.409L2876.02 123.562L2886.25 127.084L2875.65 157.872L2865.42 154.35L2853.1 129.031L2846.61 147.878L2836.34 144.341L2846.93 113.553L2857.21 117.09L2869.53 142.409ZM2908.08 132.751C2911.94 133.873 2915.21 135.603 2917.89 137.94C2920.6 140.257 2922.47 142.923 2923.49 145.938C2924.54 148.932 2924.61 151.993 2923.71 155.12C2922.8 158.218 2921.11 160.748 2918.61 162.711C2916.14 164.682 2913.15 165.936 2909.64 166.471C2906.13 166.979 2902.45 166.672 2898.59 165.55C2894.87 164.469 2891.64 162.765 2888.89 160.44C2886.15 158.086 2884.22 155.4 2883.08 152.38C2881.98 149.341 2881.87 146.287 2882.76 143.216C2883.67 140.118 2885.4 137.582 2887.96 135.607C2890.54 133.641 2893.6 132.408 2897.14 131.908C2900.71 131.389 2904.36 131.67 2908.08 132.751ZM2900.88 157.649C2902.46 158.107 2904.07 158.208 2905.7 157.949C2907.36 157.699 2908.83 157.071 2910.1 156.066C2911.37 155.06 2912.25 153.684 2912.76 151.938C2913.27 150.192 2913.24 148.55 2912.68 147.012C2912.16 145.454 2911.26 144.138 2909.98 143.065C2908.71 141.963 2907.29 141.183 2905.71 140.724C2904.11 140.257 2902.49 140.153 2900.85 140.411C2899.22 140.67 2897.77 141.316 2896.49 142.349C2895.25 143.363 2894.38 144.729 2893.88 146.447C2893.37 148.193 2893.38 149.831 2893.91 151.361C2894.45 152.891 2895.33 154.202 2896.57 155.296C2897.84 156.398 2899.28 157.182 2900.88 157.649ZM2942.52 171.155C2941.26 170.854 2940.18 170.277 2939.27 169.424C2938.36 168.543 2937.72 167.499 2937.35 166.293C2937 165.094 2936.98 163.867 2937.28 162.612C2937.58 161.357 2938.16 160.274 2939.01 159.363C2939.9 158.43 2940.95 157.791 2942.15 157.445C2943.35 157.072 2944.58 157.035 2945.84 157.337C2947.09 157.639 2948.17 158.23 2949.08 159.111C2950.02 159.971 2950.65 161.014 2950.99 162.242C2951.37 163.448 2951.4 164.679 2951.1 165.934C2950.8 167.189 2950.21 168.268 2949.33 169.173C2948.47 170.084 2947.43 170.723 2946.2 171.09C2945 171.435 2943.77 171.457 2942.52 171.155ZM2998.78 154.761L3009.67 156.817L3006.58 173.204C3005.99 176.317 3004.6 178.964 3002.39 181.146C3000.19 183.327 2997.48 184.861 2994.27 185.747C2991.07 186.605 2987.72 186.705 2984.23 186.046C2980.48 185.339 2977.22 183.991 2974.43 182.002C2971.64 180.013 2969.58 177.611 2968.26 174.795C2966.98 171.955 2966.62 168.976 2967.17 165.858L2970.28 149.384L2981.35 151.473L2978.24 167.946C2977.75 170.569 2978.28 172.669 2979.83 174.246C2981.41 175.828 2983.44 176.853 2985.92 177.321C2987.22 177.566 2988.55 177.563 2989.91 177.312C2991.27 177.032 2992.48 176.395 2993.54 175.4C2994.62 174.41 2995.33 173.022 2995.67 171.234L2998.78 154.761ZM3046.13 178.532C3045.7 181.581 3044.49 184.21 3042.52 186.418C3040.57 188.63 3038.02 190.222 3034.86 191.195C3031.7 192.167 3028.16 192.375 3024.24 191.817L3024.23 191.861L3015.57 190.627L3015.57 190.584L3006.99 189.363L3011.58 157.127L3028.78 159.575C3032.7 160.133 3036.05 161.32 3038.81 163.135C3041.6 164.955 3043.62 167.198 3044.87 169.864C3046.15 172.535 3046.57 175.424 3046.13 178.532ZM3025.68 183.223C3028.21 183.582 3030.39 183.27 3032.22 182.286C3034.08 181.277 3035.19 179.523 3035.54 177.026C3035.74 175.632 3035.52 174.311 3034.86 173.062C3034.22 171.785 3033.25 170.73 3031.98 169.897C3030.74 169.039 3029.35 168.5 3027.81 168.281L3021.1 167.327L3018.98 182.268L3025.68 183.223ZM3057.36 196.132L3046.56 194.935L3050.14 162.573L3060.94 163.77L3057.36 196.132ZM3084 164.951C3088.01 165.272 3091.56 166.307 3094.66 168.056C3097.79 169.778 3100.15 172.012 3101.76 174.76C3103.39 177.481 3104.08 180.464 3103.82 183.709C3103.56 186.926 3102.41 189.747 3100.36 192.172C3098.34 194.6 3095.67 196.431 3092.33 197.664C3089 198.869 3085.33 199.311 3081.32 198.99C3077.46 198.681 3073.95 197.664 3070.79 195.94C3067.64 194.186 3065.2 191.945 3063.48 189.218C3061.78 186.463 3061.07 183.492 3061.32 180.305C3061.58 177.089 3062.76 174.256 3064.87 171.806C3067.01 169.358 3069.76 167.533 3073.12 166.331C3076.52 165.102 3080.14 164.642 3084 164.951ZM3081.98 190.788C3083.62 190.919 3085.21 190.694 3086.76 190.111C3088.33 189.531 3089.64 188.621 3090.68 187.38C3091.72 186.139 3092.32 184.612 3092.46 182.799C3092.61 180.987 3092.25 179.384 3091.39 177.991C3090.56 176.571 3089.41 175.463 3087.95 174.669C3086.48 173.846 3084.93 173.368 3083.3 173.237C3081.63 173.104 3080.02 173.328 3078.47 173.91C3076.93 174.493 3075.63 175.419 3074.59 176.689C3073.58 177.932 3073 179.446 3072.86 181.229C3072.71 183.042 3073.05 184.644 3073.88 186.035C3074.71 187.425 3075.85 188.531 3077.28 189.352C3078.75 190.176 3080.31 190.654 3081.98 190.788ZM3129.7 181.408C3132.57 181.506 3135.07 181.798 3137.2 182.282C3139.35 182.737 3141.13 183.635 3142.52 184.974C3143.94 186.315 3144.61 188.216 3144.52 190.679C3144.37 195.223 3142.24 198.231 3138.14 199.704C3134.07 201.149 3129.53 201.786 3124.51 201.613C3119.53 201.442 3114.94 200.477 3110.74 198.719C3106.55 196.931 3104.53 193.75 3104.69 189.177L3115.9 189.519C3115.83 191.541 3116.7 192.862 3118.5 193.482C3120.32 194.073 3122.47 194.411 3124.93 194.496C3127.25 194.575 3129.24 194.306 3130.9 193.688C3132.6 193.072 3133.47 192.001 3133.52 190.477L3133.53 190.433C3133.55 189.582 3133.06 188.934 3132.05 188.489C3131.04 188.043 3129.95 187.756 3128.78 187.628C3127.61 187.5 3126.2 187.393 3124.56 187.307L3121.27 187.193C3118.1 187.085 3115.35 186.799 3113.02 186.338C3110.72 185.847 3108.8 184.901 3107.26 183.498C3105.72 182.095 3105 180.074 3105.09 177.436C3105.25 172.863 3107.4 169.958 3111.55 168.721C3115.74 167.456 3120.45 166.913 3125.7 167.094C3130.62 167.263 3135.1 168.224 3139.12 169.977C3143.14 171.729 3145.07 174.907 3144.91 179.509L3133.87 179.13C3133.92 177.664 3133.12 176.55 3131.48 175.789C3129.86 175 3127.86 174.521 3125.49 174.351C3122.94 174.263 3120.78 174.482 3119 175.008C3117.22 175.534 3116.31 176.427 3116.27 177.688C3116.22 179.007 3117.08 179.917 3118.86 180.419C3120.63 180.92 3122.65 181.209 3124.9 181.287L3129.7 181.408ZM3175.42 168.517L3186.51 168.433L3186.64 185.108C3186.66 188.276 3185.8 191.143 3184.06 193.708C3182.32 196.273 3179.96 198.301 3176.98 199.79C3174 201.25 3170.73 201.993 3167.18 202.02C3163.37 202.049 3159.9 201.357 3156.78 199.943C3153.66 198.53 3151.18 196.568 3149.35 194.06C3147.54 191.521 3146.61 188.668 3146.55 185.501L3146.43 168.737L3157.69 168.652L3157.82 185.415C3157.84 188.084 3158.76 190.043 3160.59 191.29C3162.45 192.537 3164.64 193.151 3167.16 193.132C3168.48 193.122 3169.78 192.863 3171.07 192.355C3172.36 191.817 3173.42 190.958 3174.26 189.778C3175.13 188.598 3175.56 187.099 3175.55 185.28L3175.42 168.517ZM3201.01 200.356L3190.16 200.891L3188.56 168.37L3201.01 200.356ZM3231.69 198.846L3220.88 199.379L3231.69 198.846ZM3220.25 186.766L3219.27 166.858L3230.09 166.326L3231.69 198.846L3220.88 199.379L3200.03 180.449L3201.01 200.356L3190.16 200.891L3188.56 168.37L3199.41 167.836L3220.25 186.766ZM3252.79 163.66C3256.79 163.306 3260.47 163.732 3263.81 164.938C3267.19 166.112 3269.89 167.919 3271.94 170.36C3274 172.768 3275.18 175.594 3275.47 178.837C3275.75 182.051 3275.09 185.026 3273.47 187.76C3271.89 190.491 3269.56 192.744 3266.47 194.518C3263.39 196.264 3259.84 197.313 3255.84 197.667C3251.98 198.008 3248.36 197.593 3244.95 196.421C3241.55 195.22 3238.77 193.419 3236.61 191.019C3234.48 188.586 3233.28 185.777 3233 182.592C3232.71 179.378 3233.41 176.387 3235.07 173.618C3236.77 170.847 3239.18 168.588 3242.29 166.84C3245.43 165.061 3248.93 164.001 3252.79 163.66ZM3255.12 189.471C3256.75 189.326 3258.29 188.837 3259.71 188.004C3261.17 187.169 3262.31 186.052 3263.13 184.655C3263.95 183.257 3264.28 181.653 3264.12 179.841C3263.96 178.029 3263.34 176.509 3262.25 175.279C3261.2 174.018 3259.88 173.118 3258.31 172.58C3256.72 172.014 3255.12 171.802 3253.48 171.947C3251.81 172.094 3250.27 172.584 3248.84 173.417C3247.41 174.25 3246.29 175.38 3245.47 176.807C3244.68 178.202 3244.37 179.791 3244.52 181.573C3244.68 183.385 3245.29 184.907 3246.34 186.139C3247.39 187.371 3248.69 188.272 3250.25 188.841C3251.83 189.408 3253.45 189.618 3255.12 189.471ZM3298.9 187.155C3297.62 187.313 3296.41 187.153 3295.25 186.674C3294.1 186.167 3293.13 185.414 3292.36 184.416C3291.62 183.414 3291.16 182.273 3291.01 180.992C3290.85 179.711 3291.01 178.494 3291.49 177.341C3291.99 176.156 3292.74 175.191 3293.75 174.447C3294.74 173.674 3295.88 173.208 3297.16 173.05C3298.44 172.892 3299.66 173.067 3300.82 173.574C3302 174.049 3302.97 174.802 3303.71 175.833C3304.49 176.831 3304.95 177.97 3305.11 179.251C3305.27 180.532 3305.09 181.751 3304.59 182.907C3304.11 184.06 3303.36 185.024 3302.33 185.801C3301.33 186.546 3300.18 186.997 3298.9 187.155ZM3346.51 152.585L3357.46 150.882L3360.02 167.36C3360.51 170.49 3360.08 173.452 3358.73 176.244C3357.39 179.036 3355.35 181.386 3352.62 183.295C3349.88 185.175 3346.76 186.387 3343.25 186.933C3339.48 187.518 3335.95 187.34 3332.66 186.397C3329.37 185.455 3326.63 183.877 3324.44 181.663C3322.28 179.416 3320.94 176.73 3320.43 173.604L3317.85 157.039L3328.98 155.309L3331.56 171.874C3331.97 174.512 3333.17 176.314 3335.16 177.281C3337.18 178.243 3339.44 178.531 3341.93 178.143C3343.23 177.941 3344.49 177.494 3345.68 176.803C3346.88 176.083 3347.81 175.078 3348.47 173.788C3349.16 172.493 3349.36 170.947 3349.08 169.15L3346.51 152.585ZM3399.52 159.825C3400.07 162.855 3399.76 165.729 3398.59 168.448C3397.45 171.162 3395.53 173.48 3392.84 175.403C3390.15 177.326 3386.86 178.643 3382.96 179.355L3382.97 179.398L3374.35 180.971L3374.35 180.928L3365.82 182.486L3359.97 150.456L3377.07 147.332C3380.96 146.621 3384.51 146.689 3387.7 147.536C3390.93 148.378 3393.56 149.866 3395.59 152C3397.64 154.129 3398.96 156.737 3399.52 159.825ZM3381.61 170.745C3384.12 170.286 3386.09 169.301 3387.51 167.788C3388.96 166.242 3389.46 164.228 3389 161.746C3388.75 160.361 3388.12 159.18 3387.1 158.202C3386.08 157.195 3384.84 156.498 3383.37 156.111C3381.92 155.69 3380.43 155.619 3378.9 155.898L3372.23 157.116L3374.95 171.962L3381.61 170.745ZM3415.78 173.154L3405.12 175.276L3398.77 143.343L3409.43 141.221L3415.78 173.154ZM3432.4 135.627C3436.33 134.789 3440.03 134.766 3443.49 135.556C3446.98 136.312 3449.89 137.777 3452.21 139.951C3454.56 142.09 3456.07 144.752 3456.75 147.937C3457.42 151.093 3457.12 154.125 3455.86 157.035C3454.61 159.939 3452.57 162.459 3449.73 164.595C3446.88 166.702 3443.49 168.174 3439.56 169.012C3435.77 169.819 3432.12 169.848 3428.6 169.098C3425.07 168.32 3422.1 166.87 3419.66 164.749C3417.26 162.593 3415.72 159.951 3415.05 156.824C3414.38 153.669 3414.7 150.615 3416.02 147.665C3417.37 144.708 3419.49 142.173 3422.37 140.059C3425.27 137.912 3428.61 136.434 3432.4 135.627ZM3437.84 160.964C3439.45 160.622 3440.91 159.951 3442.23 158.95C3443.57 157.944 3444.57 156.697 3445.21 155.21C3445.85 153.724 3445.98 152.091 3445.6 150.312C3445.23 148.534 3444.43 147.1 3443.2 146.01C3442 144.886 3440.59 144.153 3438.96 143.812C3437.32 143.441 3435.69 143.427 3434.09 143.769C3432.45 144.118 3430.98 144.792 3429.66 145.793C3428.34 146.793 3427.37 148.051 3426.73 149.566C3426.12 151.047 3426 152.662 3426.37 154.412C3426.75 156.191 3427.53 157.628 3428.73 158.723C3429.92 159.819 3431.32 160.555 3432.93 160.931C3434.57 161.302 3436.21 161.313 3437.84 160.964ZM3481.17 153.612C3479.92 153.904 3478.69 153.873 3477.49 153.519C3476.29 153.137 3475.25 152.49 3474.38 151.58C3473.53 150.662 3472.96 149.575 3472.67 148.318C3472.37 147.061 3472.41 145.834 3472.76 144.637C3473.14 143.405 3473.78 142.366 3474.7 141.52C3475.61 140.646 3476.69 140.062 3477.95 139.769C3479.21 139.477 3480.44 139.522 3481.64 139.904C3482.87 140.252 3483.91 140.898 3484.76 141.844C3485.63 142.755 3486.22 143.839 3486.51 145.096C3486.8 146.353 3486.76 147.583 3486.37 148.787C3486.02 149.983 3485.37 151.022 3484.43 151.904C3483.52 152.75 3482.43 153.319 3481.17 153.612ZM3523.95 128.663C3526.74 127.973 3529.23 127.57 3531.41 127.455C3533.6 127.304 3535.56 127.683 3537.26 128.591C3538.99 129.492 3540.16 131.138 3540.75 133.53C3541.84 137.944 3540.61 141.42 3537.07 143.958C3533.55 146.46 3529.35 148.313 3524.49 149.516C3519.64 150.713 3514.97 151.039 3510.45 150.493C3505.93 149.919 3503.12 147.411 3502.02 142.969L3512.9 140.233C3513.38 142.198 3514.58 143.233 3516.48 143.338C3518.4 143.407 3520.55 143.146 3522.95 142.554C3525.2 141.998 3527.04 141.196 3528.47 140.146C3529.93 139.09 3530.48 137.822 3530.11 136.341L3530.1 136.298C3529.9 135.473 3529.25 134.983 3528.15 134.831C3527.06 134.679 3525.93 134.701 3524.77 134.897C3523.61 135.093 3522.23 135.374 3520.63 135.74L3517.42 136.532C3514.35 137.292 3511.63 137.769 3509.26 137.961C3506.91 138.119 3504.8 137.733 3502.94 136.803C3501.08 135.873 3499.83 134.127 3499.2 131.564C3498.1 127.122 3499.38 123.739 3503.03 121.415C3506.71 119.055 3511.1 117.246 3516.2 115.986C3520.98 114.803 3525.55 114.506 3529.89 115.093C3534.24 115.681 3536.96 118.21 3538.07 122.681L3527.35 125.331C3526.99 123.908 3525.92 123.055 3524.13 122.772C3522.36 122.455 3520.31 122.538 3517.98 123.023C3515.5 123.635 3513.48 124.437 3511.91 125.429C3510.35 126.421 3509.71 127.529 3510.02 128.754C3510.33 130.035 3511.41 130.675 3513.26 130.673C3515.1 130.67 3517.12 130.398 3519.31 129.856L3523.95 128.663ZM3565.99 104.605L3576.75 101.92L3580.78 118.1C3581.55 121.174 3581.39 124.162 3580.3 127.064C3579.21 129.966 3577.39 132.491 3574.84 134.639C3572.29 136.758 3569.29 138.247 3565.84 139.106C3562.14 140.029 3558.61 140.17 3555.25 139.528C3551.88 138.887 3549.01 137.562 3546.64 135.555C3544.28 133.512 3542.71 130.957 3541.91 127.891L3537.85 111.626L3548.78 108.898L3552.84 125.164C3553.49 127.753 3554.85 129.44 3556.92 130.224C3559.01 131 3561.29 131.083 3563.73 130.472C3565.02 130.152 3566.22 129.594 3567.35 128.798C3568.48 127.973 3569.31 126.889 3569.85 125.544C3570.42 124.193 3570.49 122.635 3570.05 120.87L3565.99 104.605ZM3598.54 130.314L3587.94 132.724L3580.72 100.974L3598.54 130.314ZM3628.49 123.505L3617.93 125.905L3628.49 123.505ZM3615.13 113.591L3610.71 94.1553L3621.27 91.7555L3628.49 123.505L3617.93 125.905L3594.12 110.878L3598.54 130.314L3587.94 132.724L3580.72 100.974L3591.32 98.5646L3615.13 113.591ZM3645.63 86.1156C3649.57 85.3294 3653.27 85.3541 3656.72 86.1899C3660.2 86.9912 3663.09 88.494 3665.39 90.6984C3667.7 92.8683 3669.18 95.5498 3669.82 98.7428C3670.45 101.907 3670.11 104.936 3668.8 107.829C3667.52 110.716 3665.45 113.209 3662.58 115.307C3659.7 117.377 3656.29 118.805 3652.35 119.591C3648.55 120.349 3644.9 120.33 3641.39 119.534C3637.88 118.71 3634.92 117.221 3632.51 115.069C3630.13 112.882 3628.63 110.22 3628 107.085C3627.37 103.92 3627.74 100.872 3629.1 97.9383C3630.48 94.9993 3632.63 92.4922 3635.54 90.4168C3638.47 88.3069 3641.83 86.8732 3645.63 86.1156ZM3650.74 111.522C3652.35 111.201 3653.82 110.549 3655.15 109.565C3656.51 108.577 3657.52 107.343 3658.18 105.865C3658.84 104.387 3659 102.756 3658.64 100.972C3658.29 99.189 3657.5 97.7447 3656.3 96.6396C3655.11 95.5 3653.71 94.7486 3652.08 94.3854C3650.44 93.9934 3648.82 93.9581 3647.21 94.2795C3645.57 94.6067 3644.09 95.2618 3642.76 96.2449C3641.43 97.2279 3640.43 98.4729 3639.78 99.9799C3639.14 101.452 3639 103.066 3639.35 104.821C3639.71 106.604 3640.48 108.051 3641.65 109.162C3642.83 110.273 3644.23 111.027 3645.83 111.425C3647.46 111.817 3649.1 111.849 3650.74 111.522ZM3694.57 105.497C3693.29 105.713 3692.07 105.607 3690.9 105.181C3689.72 104.725 3688.72 104.017 3687.9 103.054C3687.12 102.087 3686.61 100.967 3686.4 99.6941C3686.18 98.4215 3686.29 97.1988 3686.72 96.0259C3687.17 94.8192 3687.87 93.8217 3688.84 93.0333C3689.8 92.216 3690.92 91.6997 3692.19 91.4845C3693.47 91.2692 3694.69 91.3892 3695.87 91.8445C3697.07 92.266 3698.07 92.9749 3698.86 93.9712C3699.68 94.9337 3700.2 96.0512 3700.41 97.3238C3700.63 98.5964 3700.51 99.8216 3700.05 100.999C3699.63 102.172 3698.92 103.17 3697.93 103.992C3696.96 104.78 3695.84 105.282 3694.57 105.497ZM3743.06 70.7834L3754.05 69.3079L3756.27 85.8355C3756.69 88.9754 3756.2 91.927 3754.8 94.6906C3753.39 97.4541 3751.31 99.7617 3748.54 101.614C3745.76 103.436 3742.62 104.584 3739.1 105.056C3735.32 105.564 3731.79 105.312 3728.52 104.301C3725.25 103.29 3722.54 101.656 3720.4 99.3976C3718.29 97.1065 3717.01 94.3929 3716.56 91.257L3714.33 74.6421L3725.49 73.1431L3727.72 89.758C3728.08 92.4036 3729.24 94.2304 3731.21 95.2385C3733.21 96.2427 3735.46 96.577 3737.96 96.2413C3739.27 96.0656 3740.53 95.6448 3741.74 94.9788C3742.95 94.2837 3743.9 93.2982 3744.58 92.0221C3745.3 90.742 3745.54 89.2008 3745.3 87.3983L3743.06 70.7834ZM3797.21 81.3668C3797.52 84.4318 3796.97 87.2712 3795.58 89.8849C3794.22 92.4957 3792.11 94.649 3789.28 96.3447C3786.44 98.0403 3783.05 99.0831 3779.11 99.4728L3779.11 99.5166L3770.4 100.378L3770.39 100.335L3761.77 101.188L3758.56 68.786L3775.86 67.0753C3779.8 66.6855 3783.33 67.0439 3786.44 68.1506C3789.59 69.2544 3792.09 70.9529 3793.93 73.2461C3795.81 75.5364 3796.9 78.2433 3797.21 81.3668ZM3778.47 90.7815C3781.01 90.5303 3783.05 89.7094 3784.59 88.3188C3786.16 86.8961 3786.82 84.9296 3786.57 82.4192C3786.43 81.018 3785.9 79.7886 3784.97 78.731C3784.04 77.6442 3782.85 76.8476 3781.42 76.3411C3780.01 75.8025 3778.53 75.6097 3776.98 75.7628L3770.24 76.4297L3771.72 91.4485L3778.47 90.7815ZM3812.37 96.492L3801.53 97.2985L3799.12 64.8283L3809.96 64.0217L3812.37 96.492ZM3834.85 62.0809C3838.86 61.8914 3842.52 62.4677 3845.81 63.8099C3849.13 65.1214 3851.76 67.0382 3853.7 69.5602C3855.67 72.0515 3856.73 74.9233 3856.88 78.1757C3857.03 81.3988 3856.25 84.3431 3854.52 87.0087C3852.83 89.6729 3850.41 91.8283 3847.25 93.4748C3844.1 95.092 3840.52 95.9953 3836.5 96.1848C3832.63 96.3674 3829.02 95.8036 3825.67 94.4935C3822.32 93.1541 3819.62 91.2408 3817.56 88.7536C3815.53 86.2358 3814.44 83.38 3814.29 80.1862C3814.14 76.9631 3814.96 74.0027 3816.74 71.3051C3818.55 68.606 3821.05 66.4472 3824.23 64.8286C3827.44 63.1794 3830.98 62.2635 3834.85 62.0809ZM3836.11 87.966C3837.75 87.8885 3839.31 87.4629 3840.77 86.6891C3842.26 85.914 3843.44 84.845 3844.31 83.4822C3845.19 82.1194 3845.59 80.5297 3845.5 78.7131C3845.41 76.8964 3844.86 75.3517 3843.83 74.0788C3842.83 72.7752 3841.55 71.8224 3839.99 71.2204C3838.44 70.5892 3836.84 70.3122 3835.2 70.3897C3833.53 70.4685 3831.96 70.8948 3830.5 71.6686C3829.04 72.4424 3827.87 73.5253 3827 74.9174C3826.15 76.2788 3825.77 77.8532 3825.85 79.6405C3825.94 81.4572 3826.48 83.0026 3827.48 84.2769C3828.48 85.5512 3829.75 86.5046 3831.27 87.1373C3832.83 87.7686 3834.44 88.0448 3836.11 87.966ZM3880.41 88.7607C3879.12 88.768 3877.93 88.4667 3876.84 87.8568C3875.75 87.2176 3874.88 86.3571 3874.23 85.2755C3873.61 84.1936 3873.3 83.0074 3873.29 81.7167C3873.28 80.4261 3873.58 79.2364 3874.19 78.1476C3874.83 77.0293 3875.69 76.1591 3876.77 75.537C3877.86 74.8856 3879.04 74.5562 3880.33 74.549C3881.62 74.5417 3882.81 74.8577 3883.9 75.4969C3885.02 76.1066 3885.89 76.9671 3886.51 78.0783C3887.16 79.1599 3887.49 80.3461 3887.5 81.6368C3887.51 82.9274 3887.19 84.1172 3886.55 85.2061C3885.94 86.2949 3885.08 87.1651 3883.97 87.8167C3882.89 88.4388 3881.7 88.7535 3880.41 88.7607ZM3928.69 75.5739C3931.56 75.6737 3934.06 75.9659 3936.18 76.4506C3938.34 76.9071 3940.11 77.8052 3941.51 79.145C3942.93 80.4858 3943.59 82.3874 3943.51 84.8499C3943.35 89.3939 3941.22 92.4018 3937.12 93.8736C3933.05 95.3172 3928.51 95.9519 3923.49 95.7778C3918.51 95.6048 3913.92 94.6383 3909.73 92.8783C3905.53 91.089 3903.52 87.9077 3903.67 83.3345L3914.89 83.6799C3914.82 85.7027 3915.68 87.0241 3917.48 87.6442C3919.31 88.2361 3921.45 88.5747 3923.92 88.6602C3926.23 88.7407 3928.22 88.4723 3929.89 87.855C3931.58 87.2388 3932.46 86.1685 3932.51 84.644L3932.51 84.6001C3932.54 83.7499 3932.05 83.1018 3931.04 82.6558C3930.03 82.2097 3928.94 81.9224 3927.77 81.7937C3926.6 81.665 3925.19 81.5575 3923.55 81.4712L3920.25 81.3567C3917.09 81.2467 3914.34 80.9605 3912.01 80.4979C3909.7 80.0071 3907.78 79.0599 3906.25 77.6564C3904.71 76.2529 3903.99 74.232 3904.08 71.5935C3904.24 67.0203 3906.4 64.116 3910.55 62.8807C3914.73 61.6171 3919.45 61.0764 3924.69 61.2587C3929.62 61.4297 3934.09 62.3921 3938.11 64.146C3942.13 65.8999 3944.06 69.0781 3943.9 73.6807L3932.86 73.2974C3932.91 71.8316 3932.11 70.7179 3930.47 69.9563C3928.85 69.1664 3926.86 68.6862 3924.48 68.5158C3921.93 68.4272 3919.77 68.6456 3917.99 69.1708C3916.21 69.696 3915.3 70.5889 3915.26 71.8495C3915.21 73.1687 3916.07 74.0792 3917.85 74.5811C3919.62 75.0829 3921.63 75.373 3923.89 75.4514L3928.69 75.5739ZM3976.96 65.2483L3988.01 66.0608L3986.79 82.692C3986.56 85.8514 3985.47 88.6393 3983.53 91.0554C3981.59 93.4716 3979.07 95.3014 3975.98 96.5449C3972.89 97.7591 3969.58 98.2362 3966.04 97.9761C3962.23 97.6966 3958.83 96.7263 3955.84 95.065C3952.84 93.4036 3950.53 91.2484 3948.9 88.5992C3947.3 85.923 3946.61 83.004 3946.81 79.8424L3948.04 63.1235L3959.27 63.9489L3958.04 80.6678C3957.85 83.33 3958.61 85.3567 3960.33 86.7479C3962.08 88.1412 3964.22 88.9303 3966.73 89.1152C3968.05 89.2119 3969.37 89.0589 3970.69 88.6562C3972.02 88.2242 3973.15 87.4543 3974.08 86.3464C3975.05 85.2407 3975.59 83.781 3975.73 81.9672L3976.96 65.2483ZM3999.82 100.045L3989.02 98.849L3992.6 66.4869L3999.82 100.045ZM4030.34 103.426L4019.59 102.235L4030.34 103.426ZM4020.98 89.6834L4023.17 69.8726L4033.93 71.0641L4030.34 103.426L4019.59 102.235L4002.01 80.2345L3999.82 100.045L3989.02 98.849L3992.6 66.4869L4003.4 67.6833L4020.98 89.6834ZM4058.99 73.9014C4062.97 74.4774 4066.45 75.7369 4069.43 77.6799C4072.44 79.5981 4074.66 81.9794 4076.08 84.8238C4077.54 87.6434 4078.04 90.6643 4077.57 93.8867C4077.11 97.0801 4075.78 99.8217 4073.58 102.111C4071.41 104.405 4068.62 106.062 4065.21 107.08C4061.81 108.069 4058.12 108.275 4054.14 107.699C4050.31 107.144 4046.87 105.906 4043.83 103.983C4040.8 102.032 4038.5 99.6399 4036.96 96.8077C4035.45 93.9507 4034.92 90.9401 4035.38 87.7758C4035.84 84.5824 4037.2 81.8305 4039.46 79.5201C4041.75 77.2138 4044.61 75.5683 4048.05 74.5835C4051.51 73.5738 4055.16 73.3464 4058.99 73.9014ZM4055.32 99.5561C4056.95 99.7916 4058.55 99.6682 4060.13 99.1858C4061.74 98.7077 4063.11 97.8828 4064.23 96.7109C4065.34 95.5391 4066.03 94.0532 4066.29 92.2533C4066.56 90.4535 4066.3 88.831 4065.53 87.3858C4064.8 85.9159 4063.72 84.7378 4062.31 83.8514C4060.9 82.9361 4059.38 82.3607 4057.76 82.1252C4056.1 81.8856 4054.49 82.0069 4052.9 82.4892C4051.32 82.9716 4049.97 83.8131 4048.85 85.014C4047.76 86.19 4047.09 87.6635 4046.83 89.4344C4046.57 91.2342 4046.81 92.8546 4047.55 94.2956C4048.29 95.7365 4049.35 96.9125 4050.73 97.8236C4052.14 98.739 4053.67 99.3165 4055.32 99.5561ZM4098.64 108.542C4097.36 108.32 4096.25 107.813 4095.28 107.019C4094.33 106.197 4093.62 105.196 4093.17 104.016C4092.75 102.841 4092.65 101.617 4092.88 100.346C4093.1 99.0743 4093.6 97.957 4094.4 96.9937C4095.23 96.0066 4096.23 95.3029 4097.4 94.8826C4098.58 94.4335 4099.81 94.3199 4101.08 94.5417C4102.35 94.7636 4103.47 95.2857 4104.42 96.108C4105.42 96.9065 4106.12 97.9077 4106.53 99.1117C4106.98 100.292 4107.1 101.518 4106.88 102.789C4106.65 104.06 4106.13 105.175 4105.31 106.134C4104.52 107.097 4103.51 107.801 4102.31 108.245C4101.13 108.665 4099.91 108.764 4098.64 108.542ZM4155.67 91.5424L4166.55 93.7018L4163.3 110.058C4162.68 113.166 4161.26 115.8 4159.04 117.96C4156.82 120.12 4154.1 121.629 4150.88 122.485C4147.66 123.312 4144.31 123.38 4140.83 122.688C4137.09 121.946 4133.84 120.567 4131.07 118.551C4128.3 116.536 4126.27 114.114 4124.97 111.286C4123.71 108.434 4123.38 105.452 4123.97 102.339L4127.23 85.8955L4138.28 88.0892L4135.02 104.532C4134.5 107.15 4135.01 109.255 4136.54 110.847C4138.11 112.444 4140.13 113.488 4142.61 113.979C4143.9 114.236 4145.23 114.246 4146.59 114.008C4147.96 113.742 4149.18 113.116 4150.24 112.13C4151.33 111.151 4152.05 109.769 4152.41 107.985L4155.67 91.5424ZM4203.37 118.41C4202.71 121.419 4201.32 123.952 4199.19 126.009C4197.09 128.073 4194.42 129.473 4191.2 130.211C4187.98 130.948 4184.43 130.895 4180.56 130.05L4180.55 130.093L4172 128.226L4172.01 128.183L4163.54 126.335L4170.48 94.5235L4187.46 98.2299C4191.33 99.0744 4194.58 100.503 4197.2 102.517C4199.85 104.537 4201.7 106.923 4202.75 109.674C4203.83 112.432 4204.04 115.344 4203.37 118.41ZM4182.64 121.586C4185.13 122.13 4187.32 121.978 4189.22 121.131C4191.15 120.262 4192.39 118.595 4192.92 116.13C4193.22 114.754 4193.09 113.42 4192.54 112.127C4191.98 110.806 4191.1 109.683 4189.89 108.758C4188.72 107.812 4187.37 107.172 4185.85 106.841L4179.23 105.396L4176.02 120.141L4182.64 121.586ZM4213.17 137.311L4202.58 134.876L4209.87 103.144L4220.47 105.58L4213.17 137.311ZM4244.41 110.643C4248.32 111.591 4251.66 113.172 4254.44 115.387C4257.26 117.581 4259.25 120.16 4260.4 123.126C4261.59 126.071 4261.8 129.125 4261.03 132.289C4260.27 135.425 4258.68 138.029 4256.28 140.101C4253.9 142.181 4250.97 143.567 4247.48 144.26C4244 144.924 4240.31 144.782 4236.4 143.834C4232.64 142.921 4229.33 141.364 4226.49 139.163C4223.65 136.935 4221.59 134.338 4220.32 131.373C4219.08 128.386 4218.84 125.339 4219.59 122.232C4220.36 119.096 4221.97 116.485 4224.44 114.398C4226.94 112.317 4229.94 110.948 4233.45 110.291C4237 109.612 4240.65 109.73 4244.41 110.643ZM4238.34 135.838C4239.94 136.226 4241.55 136.254 4243.17 135.922C4244.81 135.598 4246.25 134.905 4247.47 133.844C4248.7 132.783 4249.52 131.368 4249.95 129.601C4250.38 127.834 4250.28 126.194 4249.65 124.683C4249.06 123.151 4248.1 121.877 4246.78 120.861C4245.46 119.817 4244 119.102 4242.41 118.714C4240.78 118.32 4239.16 118.288 4237.54 118.619C4235.92 118.951 4234.5 119.661 4233.27 120.751C4232.07 121.819 4231.26 123.223 4230.84 124.962C4230.41 126.729 4230.5 128.365 4231.1 129.869C4231.7 131.373 4232.64 132.644 4233.93 133.681C4235.25 134.725 4236.72 135.444 4238.34 135.838ZM4280.54 147.719C4279.28 147.461 4278.17 146.921 4277.23 146.101C4276.3 145.252 4275.62 144.231 4275.21 143.038C4274.82 141.852 4274.76 140.626 4275.02 139.362C4275.27 138.097 4275.81 136.995 4276.63 136.054C4277.49 135.091 4278.51 134.416 4279.7 134.03C4280.89 133.614 4282.12 133.536 4283.38 133.794C4284.65 134.051 4285.75 134.605 4286.68 135.454C4287.65 136.281 4288.32 137.302 4288.7 138.517C4289.12 139.709 4289.2 140.938 4288.94 142.202C4288.68 143.467 4288.13 144.567 4287.28 145.501C4286.46 146.441 4285.44 147.116 4284.22 147.526C4283.03 147.912 4281.81 147.977 4280.54 147.719ZM4329.23 141.493C4332.08 141.909 4334.53 142.476 4336.59 143.192C4338.68 143.884 4340.35 144.972 4341.58 146.458C4342.84 147.947 4343.3 149.911 4342.94 152.349C4342.28 156.848 4339.83 159.602 4335.6 160.612C4331.39 161.597 4326.81 161.727 4321.84 161C4316.91 160.278 4312.45 158.81 4308.48 156.598C4304.51 154.356 4302.85 150.972 4303.52 146.444L4314.63 148.026C4314.33 150.028 4315.04 151.437 4316.76 152.252C4318.52 153.042 4320.61 153.616 4323.05 153.973C4325.34 154.308 4327.35 154.261 4329.07 153.832C4330.82 153.406 4331.81 152.439 4332.03 150.93L4332.04 150.886C4332.16 150.045 4331.75 149.346 4330.79 148.791C4329.83 148.236 4328.78 147.83 4327.63 147.573C4326.48 147.316 4325.1 147.054 4323.48 146.787L4320.21 146.309C4317.08 145.85 4314.38 145.262 4312.11 144.545C4309.88 143.803 4308.07 142.65 4306.7 141.085C4305.33 139.521 4304.84 137.432 4305.22 134.82C4305.88 130.292 4308.34 127.644 4312.61 126.874C4316.9 126.08 4321.65 126.064 4326.85 126.824C4331.72 127.538 4336.06 128.988 4339.86 131.175C4343.66 133.362 4345.23 136.734 4344.56 141.291L4333.63 139.691C4333.85 138.24 4333.18 137.045 4331.62 136.106C4330.1 135.143 4328.18 134.445 4325.84 134.014C4323.31 133.644 4321.14 133.622 4319.31 133.948C4317.48 134.273 4316.48 135.06 4316.3 136.308C4316.1 137.614 4316.86 138.615 4318.57 139.309C4320.28 140.004 4322.25 140.515 4324.48 140.842L4329.23 141.493ZM4375.46 133.016L4386.51 133.919L4385.15 150.54C4384.89 153.697 4383.78 156.476 4381.82 158.876C4379.86 161.276 4377.32 163.085 4374.22 164.303C4371.12 165.492 4367.8 165.942 4364.27 165.653C4360.47 165.342 4357.08 164.343 4354.09 162.658C4351.11 160.972 4348.82 158.797 4347.21 156.135C4345.63 153.446 4344.96 150.521 4345.19 147.361L4346.56 130.653L4357.78 131.571L4356.42 148.279C4356.2 150.94 4356.95 152.972 4358.66 154.378C4360.39 155.785 4362.52 156.592 4365.04 156.798C4366.35 156.905 4367.67 156.763 4369 156.371C4370.33 155.95 4371.46 155.19 4372.41 154.09C4373.38 152.992 4373.94 151.537 4374.09 149.724L4375.46 133.016ZM4398.11 166.622L4387.24 166.518L4387.56 133.96L4398.11 166.622ZM4428.82 166.915L4418 166.812L4428.82 166.915ZM4418.12 154.184L4418.31 134.253L4429.13 134.357L4428.82 166.915L4418 166.812L4398.3 146.691L4398.11 166.622L4387.24 166.518L4387.56 133.96L4398.42 134.063L4418.12 154.184ZM4450.74 132.298C4454.75 132.038 4458.41 132.55 4461.73 133.835C4465.07 135.088 4467.74 136.958 4469.72 139.445C4471.73 141.902 4472.84 144.755 4473.05 148.004C4473.26 151.224 4472.53 154.181 4470.85 156.877C4469.2 159.57 4466.82 161.768 4463.69 163.47C4460.57 165.142 4457 166.108 4452.99 166.368C4449.13 166.618 4445.51 166.118 4442.13 164.867C4438.76 163.587 4436.02 161.721 4433.92 159.271C4431.85 156.789 4430.71 153.952 4430.51 150.762C4430.3 147.542 4431.06 144.568 4432.79 141.839C4434.56 139.109 4437.02 136.906 4440.17 135.232C4443.35 133.527 4446.87 132.549 4450.74 132.298ZM4452.46 158.157C4454.1 158.051 4455.64 157.598 4457.09 156.799C4458.56 155.998 4459.73 154.908 4460.58 153.53C4461.43 152.152 4461.8 150.556 4461.68 148.741C4461.56 146.926 4460.98 145.391 4459.93 144.137C4458.9 142.851 4457.61 141.921 4456.04 141.346C4454.47 140.742 4452.87 140.494 4451.23 140.6C4449.56 140.708 4448.01 141.162 4446.56 141.961C4445.11 142.76 4443.96 143.864 4443.11 145.271C4442.29 146.647 4441.94 148.228 4442.05 150.013C4442.17 151.828 4442.74 153.364 4443.76 154.62C4444.79 155.877 4446.07 156.808 4447.6 157.414C4449.17 158.018 4450.79 158.265 4452.46 158.157ZM4496.04 156.304C4494.76 156.476 4493.54 156.33 4492.38 155.864C4491.22 155.37 4490.25 154.628 4489.46 153.639C4488.71 152.645 4488.24 151.509 4488.07 150.23C4487.9 148.951 4488.04 147.733 4488.51 146.575C4489 145.384 4489.74 144.411 4490.73 143.655C4491.72 142.87 4492.86 142.392 4494.14 142.219C4495.42 142.047 4496.64 142.208 4497.8 142.702C4498.99 143.164 4499.96 143.906 4500.72 144.928C4501.5 145.917 4501.98 147.051 4502.15 148.331C4502.33 149.61 4502.17 150.83 4501.67 151.992C4501.21 153.15 4500.46 154.123 4499.45 154.912C4498.45 155.667 4497.32 156.131 4496.04 156.304ZM4542.19 120.404L4553.07 118.275L4556.27 134.641C4556.88 137.75 4556.57 140.726 4555.33 143.568C4554.09 146.411 4552.15 148.839 4549.49 150.853C4546.83 152.838 4543.76 154.171 4540.28 154.852C4536.53 155.585 4533 155.544 4529.67 154.73C4526.34 153.917 4523.55 152.447 4521.28 150.32C4519.03 148.159 4517.59 145.527 4516.95 142.424L4513.73 125.972L4524.79 123.809L4528.01 140.261C4528.52 142.881 4529.79 144.635 4531.82 145.523C4533.87 146.406 4536.14 146.606 4538.61 146.121C4539.91 145.868 4541.14 145.373 4542.31 144.635C4543.48 143.869 4544.36 142.829 4544.97 141.514C4545.61 140.194 4545.76 138.641 4545.41 136.856L4542.19 120.404ZM4594.95 124.891C4595.68 127.883 4595.54 130.771 4594.53 133.554C4593.55 136.33 4591.77 138.757 4589.2 140.835C4586.62 142.913 4583.41 144.421 4579.57 145.361L4579.58 145.404L4571.07 147.481L4571.06 147.438L4562.64 149.495L4554.92 117.865L4571.8 113.741C4575.65 112.802 4579.19 112.661 4582.43 113.319C4585.7 113.97 4588.41 115.3 4590.56 117.311C4592.74 119.315 4594.21 121.842 4594.95 124.891ZM4577.71 136.845C4580.19 136.24 4582.1 135.14 4583.43 133.547C4584.78 131.918 4585.16 129.878 4584.56 127.428C4584.23 126.06 4583.53 124.918 4582.46 124.001C4581.38 123.056 4580.1 122.434 4578.61 122.134C4577.13 121.799 4575.64 121.816 4574.13 122.184L4567.55 123.792L4571.13 138.453L4577.71 136.845ZM4611.94 137.128L4601.45 139.971L4592.93 108.544L4603.42 105.702L4611.94 137.128ZM4625.63 98.4536C4629.49 97.3175 4633.17 97.0108 4636.69 97.5336C4640.23 98.0199 4643.24 99.2581 4645.72 101.248C4648.22 103.202 4649.94 105.74 4650.86 108.863C4651.77 111.958 4651.7 115.005 4650.66 118.003C4649.65 120.994 4647.8 123.662 4645.13 126.01C4642.45 128.329 4639.18 130.056 4635.33 131.192C4631.61 132.287 4627.97 132.595 4624.41 132.117C4620.83 131.611 4617.75 130.394 4615.17 128.465C4612.6 126.5 4610.86 123.984 4609.96 120.917C4609.05 117.822 4609.14 114.753 4610.23 111.71C4611.35 108.658 4613.26 105.969 4615.97 103.641C4618.7 101.278 4621.92 99.5483 4625.63 98.4536ZM4633 123.3C4634.58 122.836 4635.98 122.054 4637.22 120.956C4638.48 119.85 4639.38 118.531 4639.91 116.999C4640.43 115.467 4640.44 113.829 4639.93 112.085C4639.41 110.341 4638.5 108.972 4637.2 107.98C4635.92 106.951 4634.45 106.328 4632.8 106.112C4631.14 105.868 4629.52 105.978 4627.94 106.443C4626.34 106.916 4624.92 107.701 4623.68 108.799C4622.45 109.897 4621.57 111.226 4621.05 112.786C4620.55 114.309 4620.55 115.929 4621.06 117.645C4621.57 119.39 4622.47 120.762 4623.74 121.763C4625.02 122.764 4626.47 123.391 4628.1 123.643C4629.76 123.887 4631.4 123.773 4633 123.3ZM4675.54 112.489C4674.32 112.888 4673.09 112.962 4671.87 112.711C4670.64 112.432 4669.55 111.876 4668.6 111.043C4667.68 110.201 4667.02 109.166 4666.62 107.939C4666.22 106.711 4666.15 105.486 4666.4 104.264C4666.67 103.004 4667.22 101.914 4668.06 100.993C4668.9 100.044 4669.93 99.3704 4671.15 98.9718C4672.38 98.5733 4673.61 98.5134 4674.84 98.792C4676.09 99.0338 4677.18 99.5896 4678.11 100.46C4679.06 101.293 4679.74 102.323 4680.14 103.551C4680.53 104.778 4680.59 106.008 4680.31 107.239C4680.06 108.462 4679.51 109.552 4678.65 110.51C4677.81 111.431 4676.77 112.091 4675.54 112.489ZM4715.92 83.9008C4718.64 82.9634 4721.08 82.3398 4723.23 82.0298C4725.41 81.6824 4727.39 81.8845 4729.17 82.636C4730.98 83.3779 4732.28 84.9135 4733.08 87.2428C4734.57 91.541 4733.66 95.1126 4730.36 97.9577C4727.07 100.765 4723.06 102.987 4718.32 104.623C4713.61 106.249 4708.98 106.993 4704.43 106.854C4699.87 106.688 4696.85 104.442 4695.36 100.117L4705.95 96.4164C4706.61 98.3298 4707.89 99.2534 4709.79 99.1873C4711.71 99.0838 4713.83 98.6304 4716.16 97.827C4718.35 97.0713 4720.11 96.1068 4721.45 94.9334C4722.81 93.7504 4723.24 92.4379 4722.74 90.996L4722.73 90.9544C4722.45 90.1502 4721.76 89.7214 4720.66 89.6679C4719.55 89.6145 4718.43 89.7375 4717.29 90.0369C4716.15 90.3363 4714.8 90.7399 4713.24 91.2478L4710.12 92.3239C4707.13 93.3569 4704.46 94.0757 4702.12 94.4804C4699.79 94.8478 4697.66 94.6519 4695.72 93.8929C4693.78 93.1338 4692.39 91.5064 4691.52 89.0107C4690.03 84.6848 4691 81.2006 4694.44 78.5582C4697.89 75.8786 4702.09 73.6827 4707.06 71.9706C4711.72 70.3637 4716.24 69.6581 4720.62 69.8537C4725 70.0494 4727.94 72.324 4729.44 76.6776L4719 80.2788C4718.52 78.8923 4717.38 78.1388 4715.57 78.0185C4713.77 77.8609 4711.74 78.1279 4709.47 78.8194C4707.05 79.6516 4705.11 80.6319 4703.64 81.7604C4702.17 82.8889 4701.64 84.0493 4702.05 85.2417C4702.48 86.4895 4703.61 87.0297 4705.45 86.8622C4707.28 86.6947 4709.27 86.2427 4711.4 85.5062L4715.92 83.9008Z" fill="#1C1C1C"/>
<defs>
<filter id="filter0_f_7181_45679" x="0" y="7.32324" width="4762.86" height="265.77" filterUnits="userSpaceOnUse" color-interpolation-filters="sRGB">
<feFlood flood-opacity="0" result="BackgroundImageFix"/>
<feBlend mode="normal" in="SourceGraphic" in2="BackgroundImageFix" result="shape"/>
<feGaussianBlur stdDeviation="1" result="effect1_foregroundBlur_7181_45679"/>
</filter>
</defs>
</svg>
