<svg width="4761" height="214" viewBox="0 0 4761 214" fill="none" xmlns="http://www.w3.org/2000/svg">
<g filter="url(#filter0_f_7181_45682)">
<path d="M8.43555 114.84C286.75 49.1225 443.947 49.5455 721.936 114.84C997.13 213.013 1187 202.024 1468.94 103.21C1768.44 -1.76053 1899.44 9.71043 2188.94 114.84C2470.44 217.065 2649.62 177.48 2831.44 103.21C3019.94 26.2104 3253.44 38.2104 3429.94 114.71C3652.94 211.365 3847.94 191.21 4062.44 103.21C4276.94 15.2103 4519.44 23.7104 4747.94 114.71" stroke="white" stroke-opacity="0.6" stroke-width="56"/>
</g>
<path d="M19.0138 122.753C17.7564 123.044 16.5296 123.012 15.3333 122.656C14.1303 122.272 13.0921 121.625 12.2186 120.713C11.3737 119.794 10.8057 118.706 10.5146 117.449C10.2235 116.192 10.2556 114.965 10.6109 113.768C10.9882 112.537 11.6361 111.499 12.5545 110.654C13.4663 109.78 14.5509 109.198 15.8083 108.907C17.0657 108.616 18.2959 108.662 19.4988 109.046C20.7237 109.395 21.7619 110.043 22.6134 110.99C23.4869 111.901 24.0692 112.986 24.3604 114.243C24.6515 115.501 24.6051 116.731 24.2212 117.934C23.8658 119.13 23.218 120.168 22.2776 121.049C21.3591 121.894 20.2712 122.462 19.0138 122.753ZM67.0445 98.8464C66.6742 97.0057 66.5028 96.2175 66.5302 96.4817L67.0445 98.8464ZM79.6494 114.567L69.5456 116.764L67.3107 106.488L60.3885 107.994L53.8095 120.187L41.8139 122.796L48.72 110.036C45.7801 110.045 43.3143 109.336 41.3227 107.908C39.3597 106.474 38.0821 104.395 37.4899 101.672L37.4525 101.5C36.9974 99.4075 37.1573 97.4515 37.9323 95.6319C38.7298 93.7774 40.0494 92.1846 41.8912 90.8534C43.7617 89.516 46.0298 88.5574 48.6955 87.9777L72.7296 82.7505L79.6494 114.567ZM53.1995 94.6079C51.7376 94.9259 50.6322 95.2263 49.8833 95.5093C49.163 95.786 48.6153 96.2354 48.2402 96.8573C47.8938 97.4729 47.8422 98.3397 48.0853 99.4576C48.316 100.518 48.7136 101.242 49.2782 101.63C49.8652 101.982 50.5438 102.135 51.314 102.088C52.1128 102.034 53.2432 101.848 54.705 101.53L54.748 101.521L65.7117 99.1363L64.2249 92.3001C59.9254 93.2352 56.7662 93.8922 54.7473 94.2713L53.1995 94.6079ZM89.7409 91.1704L106.786 87.7771L104.527 76.4278L115.143 74.3145L121.5 106.248L110.884 108.361L108.453 96.1488L91.4075 99.5422L93.8387 111.755L83.1798 113.876L76.8227 81.9431L87.4816 79.8211L89.7409 91.1704ZM161.695 91.0557L165.984 90.2969L168.099 102.255L158.091 104.026L157.363 99.9096L133.872 104.02L134.607 108.18L124.599 109.95L122.483 97.992L125.69 97.4248C126.713 94.116 127.489 91.1785 128.018 88.6125C128.547 86.0464 128.827 83.4201 128.859 80.7336C128.913 78.0131 128.665 75.0931 128.113 71.9735L157.359 66.8L161.695 91.0557ZM138.785 77.9946C138.814 80.8493 138.576 83.6319 138.072 86.3424C137.598 89.0478 136.879 92.139 135.915 95.616L151.729 92.8185L148.801 76.2674L138.785 77.9946ZM198.773 80.5471L178.67 83.5661L179.409 88.4829L203.14 84.741L204.31 92.5297L169.805 97.7116L164.969 65.5127L199.474 60.3307L200.687 68.1129L176.886 71.6873L177.527 75.9515L197.629 72.9325L198.773 80.5471ZM224.607 72.1725L244.397 87.4728L231.169 89.1318L216.374 77.2404L218.071 90.7744L207.288 92.1268L203.236 59.8199L214.02 58.4675L215.427 69.6876L226.331 56.9235L239.69 55.248L224.607 72.1725ZM237.666 71.989C237.357 68.7477 238.029 65.7372 239.68 62.9578C241.36 60.1755 243.78 57.8974 246.941 56.1235C250.129 54.3176 253.737 53.223 257.767 52.8397C261.388 52.4953 264.714 52.7682 267.745 53.6585C270.774 54.5196 273.322 55.9126 275.391 57.8373C277.457 59.7329 278.93 62.0532 279.81 64.7982L268.597 65.8647C268.048 64.7383 267.207 63.8017 266.075 63.0549C264.97 62.276 263.754 61.7287 262.428 61.4129C261.101 61.0971 259.825 60.9975 258.598 61.1141C256.875 61.278 255.229 61.7881 253.661 62.6445C252.121 63.4981 250.905 64.6452 250.01 66.0856C249.142 67.4941 248.795 69.1036 248.967 70.9141C249.139 72.7246 249.785 74.2543 250.906 75.5031C252.024 76.7228 253.405 77.608 255.048 78.1589C256.718 78.6777 258.458 78.8511 260.269 78.6789C262.284 78.4872 264.092 77.829 265.694 76.7043C267.325 75.5768 268.465 74.0835 269.113 72.2244L280.371 71.1537C279.992 73.9889 278.968 76.5467 277.299 78.827C275.628 81.078 273.4 82.9105 270.618 84.3243C267.835 85.7381 264.633 86.6173 261.012 86.9617C257.012 87.3422 253.276 86.9461 249.806 85.7735C246.364 84.5981 243.556 82.8025 241.382 80.3869C239.207 77.9713 237.969 75.172 237.666 71.989ZM343.204 48.4742L344.58 81.0051L333.766 81.4626L333.144 66.7798L326.6 81.7658L316.621 82.188L308.343 67.6529L308.972 82.5116L298.114 82.971L296.737 50.4401L309.134 49.9156L321.159 71.8229L331.114 48.9857L343.204 48.4742ZM386.911 48.2894L370.597 75.953C369.545 77.9204 367.406 79.2738 364.181 80.0134C360.985 80.7236 357.7 81.0526 354.327 81.0005L354.311 73.0365C355.925 73.0334 357.068 72.9432 357.743 72.7659C358.446 72.5885 358.842 72.3677 358.929 72.1036C359.046 71.8393 359.089 71.4139 359.059 70.8273L345.727 48.3691L357.211 48.3468L366.219 64.6974L375.427 48.3116L386.911 48.2894ZM426.532 71.5251C426.361 75.5989 424.41 78.5101 420.68 80.2586C416.95 82.0071 412.139 82.7788 406.247 82.5734C399.592 82.3416 394.545 81.0357 391.106 78.6558C387.668 76.2467 386.029 72.7555 386.188 68.1822L396.478 68.5408C396.399 70.798 397.338 72.4891 399.295 73.6139C401.252 74.7094 403.654 75.2921 406.498 75.3618C408.988 75.5073 411.125 75.2442 412.91 74.5726C414.694 73.901 415.629 72.7595 415.715 71.1482C415.743 70.3274 415.545 69.7041 415.119 69.2783C414.695 68.8233 414.016 68.5061 413.083 68.3269C412.151 68.1183 410.835 67.9844 409.135 67.9251L401 67.6417L401.22 61.3095L409.355 61.593C411.701 61.6747 413.382 61.4397 414.399 60.8882C415.416 60.3366 415.94 59.6357 415.969 58.7856C416.007 57.7009 415.17 56.8792 413.457 56.3206C411.776 55.7337 409.689 55.3821 407.198 55.266C404.355 55.1669 401.926 55.3905 399.911 55.9367C397.897 56.4535 396.868 57.3422 396.824 58.6028L386.534 58.2443C386.681 54.0228 388.906 51.2386 393.209 49.8916C397.542 48.5163 402.289 47.9186 407.448 48.0984C410.585 48.2077 413.495 48.5145 416.177 49.0189C418.89 49.495 421.248 50.487 423.25 51.995C425.252 53.5029 426.204 55.6641 426.106 58.4784C426.006 61.3513 424.179 63.2541 420.624 64.1869C424.395 65.463 426.365 67.8798 426.535 71.4372L426.532 71.5251ZM454.2 61.8228C456.979 62.0367 459.372 62.6623 461.381 63.6996C463.39 64.7369 464.9 66.1476 465.91 67.9317C466.949 69.7181 467.378 71.7958 467.195 74.1648L467.182 74.3402C467.015 76.5045 466.283 78.3751 464.984 79.9521C463.715 81.5314 461.992 82.7079 459.814 83.4816C457.668 84.2284 455.235 84.4971 452.515 84.2877L428.913 82.4704L431.412 50.0065L442.248 50.8408L441.478 60.8432L454.2 61.8228ZM467.869 85.4699L470.369 53.006L481.161 53.8369L478.661 86.3008L467.869 85.4699ZM451.695 77.1637C453.509 77.3033 454.875 77.1291 455.795 76.6409C456.745 76.1551 457.285 75.064 457.416 73.3677C457.508 72.1685 457.357 71.2596 456.964 70.6409C456.57 70.0222 456.014 69.5969 455.297 69.3652C454.579 69.1334 453.591 68.9691 452.334 68.8723L452.29 68.8689L440.927 67.994L440.292 76.2416C443.744 76.5073 446.155 76.7077 447.528 76.8428C448.931 76.9509 449.882 77.0241 450.379 77.0624L451.695 77.1637ZM503.79 71.3563L519.396 90.9062L506.151 89.3868L494.591 74.3314L493.037 87.8825L482.24 86.6439L485.95 54.2961L496.748 55.5346L495.459 66.769L509.075 56.9487L522.451 58.4831L503.79 71.3563ZM564.193 97.3997L553.35 95.8302L551.145 89.865L532.9 87.224L529.094 92.3195L518.251 90.7501L540.378 61.0533L551.395 62.648L564.193 97.3997ZM544.484 71.6953L537.871 80.5191L548.279 82.0255L544.484 71.6953ZM585.87 95.7898C584.598 95.5679 583.481 95.0602 582.518 94.2667C581.56 93.4443 580.856 92.443 580.407 91.2629C579.987 90.0878 579.888 88.8645 580.11 87.5931C580.332 86.3217 580.839 85.2043 581.633 84.2411C582.46 83.254 583.462 82.5504 584.637 82.1302C585.817 81.6812 587.043 81.5676 588.314 81.7896C589.586 82.0116 590.7 82.5337 591.658 83.3561C592.651 84.1546 593.354 85.1559 593.769 86.3599C594.218 87.54 594.332 88.7658 594.11 90.0373C593.888 91.3087 593.366 92.4235 592.543 93.3817C591.75 94.3449 590.749 95.0485 589.54 95.4925C588.365 95.9127 587.141 96.0118 585.87 95.7898ZM623.975 108.166L647.736 79.6509L623.975 108.166ZM631.485 99.1487L647.736 79.6509L658.529 81.7707L635.416 110.413L623.327 108.039L612.893 72.808L624.464 75.0805L631.485 99.1487ZM676.99 101.007L690.601 121.994L677.569 119.182L667.543 103.065L664.666 116.398L654.043 114.106L660.91 82.2782L671.534 84.5705L669.149 95.6241L683.663 87.1876L696.824 90.0275L676.99 101.007ZM758.789 107.257L749.588 138.489L739.205 135.431L743.358 121.334L732.325 133.404L722.744 130.581L719.603 114.152L715.4 128.418L704.975 125.347L714.177 94.1139L726.079 97.6203L730.386 122.237L747.182 103.837L758.789 107.257ZM799.902 120.507L775.818 141.753C774.208 143.298 771.755 143.922 768.46 143.626C765.201 143.31 761.976 142.605 758.785 141.511L761.238 133.934C762.773 134.431 763.888 134.699 764.584 134.74C765.308 134.789 765.753 134.702 765.918 134.478C766.111 134.263 766.284 133.872 766.437 133.305L760.721 107.821L771.646 111.358L775.144 129.695L788.976 116.969L799.902 120.507ZM830.55 152.043C829.381 155.949 826.774 158.291 822.728 159.067C818.682 159.843 813.829 159.406 808.169 157.756C801.777 155.892 797.207 153.384 794.459 150.23C791.72 147.048 790.991 143.261 792.272 138.868L802.157 141.749C801.524 143.918 802.018 145.788 803.637 147.36C805.265 148.904 807.449 150.06 810.189 150.828C812.566 151.582 814.702 151.854 816.597 151.642C818.492 151.431 819.679 150.555 820.159 149.014C820.389 148.225 820.35 147.572 820.042 147.055C819.743 146.509 819.163 146.035 818.303 145.631C817.451 145.2 816.209 144.746 814.575 144.27L806.761 141.992L808.534 135.909L816.349 138.187C818.602 138.844 820.289 139.03 821.41 138.746C822.532 138.462 823.212 137.911 823.45 137.095C823.754 136.053 823.145 135.05 821.623 134.087C820.137 133.104 818.202 132.25 815.816 131.524C813.085 130.727 810.675 130.346 808.588 130.379C806.509 130.384 805.293 130.992 804.94 132.203L795.055 129.321C796.237 125.266 799.079 123.115 803.581 122.87C808.12 122.604 812.867 123.193 817.823 124.638C820.837 125.517 823.581 126.531 826.057 127.68C828.569 128.81 830.61 130.352 832.179 132.306C833.748 134.261 834.139 136.59 833.35 139.293C832.546 142.053 830.306 143.447 826.631 143.476C829.972 145.642 831.287 148.469 830.575 151.959L830.55 152.043ZM858.582 146.957C861.286 147.631 863.542 148.647 865.349 150.005C867.157 151.363 868.41 153.006 869.109 154.933C869.835 156.868 869.911 158.988 869.336 161.294L869.294 161.464C868.768 163.57 867.734 165.293 866.191 166.631C864.676 167.976 862.781 168.849 860.505 169.249C858.264 169.627 855.82 169.486 853.173 168.826L830.205 163.097L838.084 131.505L848.629 134.135L846.201 143.869L858.582 146.957ZM868.115 172.553L875.995 140.96L886.497 143.58L878.617 175.172L868.115 172.553ZM853.553 161.665C855.318 162.105 856.694 162.161 857.683 161.834C858.7 161.513 859.415 160.527 859.826 158.876C860.118 157.709 860.121 156.788 859.836 156.112C859.551 155.437 859.074 154.925 858.405 154.576C857.736 154.228 856.789 153.902 855.566 153.596L855.523 153.586L844.466 150.828L842.464 158.854C845.822 159.692 848.167 160.291 849.497 160.654C850.864 160.994 851.789 161.225 852.272 161.346L853.553 161.665ZM904.927 162.622L918.763 183.461L905.702 180.79L895.503 164.781L892.77 178.145L882.122 175.967L888.646 144.067L899.294 146.245L897.028 157.324L911.45 148.731L924.641 151.429L904.927 162.622ZM963.465 190.58L952.646 188.854L950.528 182.857L932.323 179.952L928.444 184.992L917.625 183.265L940.179 153.892L951.172 155.647L963.465 190.58ZM944.13 164.593L937.391 173.32L947.776 174.977L944.13 164.593ZM984.956 187.897C983.673 187.757 982.526 187.322 981.514 186.592C980.505 185.833 979.738 184.879 979.214 183.73C978.719 182.584 978.542 181.37 978.682 180.087C978.822 178.804 979.257 177.656 979.987 176.644C980.749 175.606 981.703 174.839 982.849 174.344C983.998 173.82 985.214 173.628 986.497 173.768C987.78 173.908 988.926 174.358 989.935 175.117C990.976 175.85 991.743 176.804 992.234 177.979C992.758 179.128 992.95 180.344 992.81 181.627C992.67 182.91 992.221 184.056 991.462 185.065C990.732 186.077 989.778 186.844 988.6 187.364C987.454 187.859 986.24 188.036 984.956 187.897ZM1048.27 186.859C1048.01 190.928 1045.99 193.793 1042.22 195.454C1038.45 197.115 1033.62 197.774 1027.74 197.432C1021.09 197.045 1016.07 195.622 1012.69 193.163C1009.31 190.674 1007.75 187.145 1008.02 182.577L1018.3 183.175C1018.17 185.43 1019.06 187.143 1020.99 188.313C1022.93 189.454 1025.31 190.092 1028.16 190.228C1030.64 190.431 1032.78 190.218 1034.58 189.588C1036.38 188.958 1037.34 187.839 1037.47 186.23C1037.52 185.41 1037.33 184.782 1036.92 184.347C1036.5 183.882 1035.83 183.549 1034.9 183.348C1033.98 183.118 1032.66 182.954 1030.96 182.855L1022.84 182.382L1023.21 176.057L1031.33 176.529C1033.68 176.666 1035.36 176.47 1036.39 175.942C1037.42 175.415 1037.96 174.726 1038.01 173.877C1038.07 172.793 1037.26 171.952 1035.56 171.354C1033.89 170.728 1031.81 170.328 1029.32 170.154C1026.48 169.989 1024.05 170.156 1022.02 170.655C1020 171.124 1018.95 171.989 1018.87 173.248L1008.6 172.65C1008.84 168.433 1011.13 165.701 1015.46 164.455C1019.83 163.181 1024.59 162.694 1029.74 162.994C1032.87 163.176 1035.78 163.551 1038.45 164.118C1041.15 164.657 1043.48 165.703 1045.45 167.258C1047.41 168.812 1048.31 170.995 1048.15 173.806C1047.98 176.676 1046.11 178.535 1042.54 179.385C1046.28 180.749 1048.19 183.211 1048.28 186.771L1048.27 186.859ZM1084.82 180.903C1087.28 181.422 1089.14 182.303 1090.39 183.545C1091.64 184.758 1092.26 186.494 1092.24 188.753L1092.24 188.929C1092.21 192.243 1090.81 194.579 1088.04 195.934C1085.3 197.261 1081.37 197.918 1076.23 197.905L1076.14 197.904L1074.43 197.89L1050.41 197.691L1050.67 165.132L1078.53 165.363C1081.93 165.42 1084.64 166.147 1086.65 167.542C1088.66 168.937 1089.66 170.896 1089.64 173.419L1089.63 173.595C1089.62 175.501 1089.21 177.053 1088.41 178.249C1087.61 179.445 1086.41 180.33 1084.82 180.903ZM1073.32 178.08C1074.78 178.092 1075.85 178.072 1076.53 178.019C1077.23 177.936 1077.82 177.677 1078.3 177.241C1078.8 176.805 1079.05 176.074 1079.06 175.047C1079.07 174.109 1078.84 173.432 1078.37 173.018C1077.91 172.603 1077.31 172.349 1076.58 172.255C1075.84 172.131 1074.77 172.064 1073.37 172.052L1073.32 172.052L1060.78 171.948L1060.73 177.932C1063.75 177.957 1065.75 177.988 1066.72 178.025L1068.83 178.043L1073.32 178.08ZM1074.67 190.544C1076.31 190.557 1077.54 190.523 1078.36 190.442C1079.18 190.332 1079.85 190.044 1080.35 189.579C1080.85 189.084 1081.11 188.309 1081.12 187.253C1081.13 186.226 1080.88 185.491 1080.39 185.047C1079.89 184.573 1079.23 184.289 1078.41 184.194C1077.59 184.07 1076.36 184.001 1074.72 183.988L1074.68 183.987L1060.68 183.872L1060.63 190.384C1064.77 190.418 1067.7 190.457 1069.43 190.5C1071.19 190.515 1072.39 190.525 1073.04 190.53L1074.67 190.544ZM1128.49 163.875L1113.23 192.132C1112.25 194.137 1110.17 195.57 1106.97 196.431C1103.8 197.26 1100.53 197.713 1097.16 197.787L1096.85 189.83C1098.46 189.766 1099.6 189.633 1100.26 189.43C1100.96 189.226 1101.35 188.991 1101.43 188.724C1101.53 188.455 1101.56 188.029 1101.51 187.443L1087.34 165.502L1098.82 165.048L1108.43 181.049L1117.02 164.328L1128.49 163.875ZM1149.05 177.01L1168.23 193.065L1154.95 194.21L1140.62 181.755L1141.79 195.345L1130.97 196.278L1128.17 163.839L1139 162.905L1139.97 174.171L1151.36 161.839L1164.77 160.682L1149.05 177.01ZM1189 185.304C1187.72 185.473 1186.51 185.323 1185.35 184.854C1184.19 184.356 1183.22 183.611 1182.44 182.619C1181.68 181.623 1181.22 180.486 1181.06 179.206C1180.89 177.927 1181.04 176.709 1181.51 175.552C1182 174.363 1182.75 173.392 1183.74 172.639C1184.73 171.858 1185.87 171.383 1187.15 171.214C1188.43 171.046 1189.65 171.21 1190.81 171.708C1191.99 172.174 1192.96 172.919 1193.72 173.943C1194.5 174.935 1194.98 176.071 1195.15 177.35C1195.31 178.63 1195.15 179.85 1194.65 181.01C1194.18 182.167 1193.44 183.138 1192.42 183.923C1191.42 184.675 1190.28 185.136 1189 185.304ZM1253.19 146.778L1258.95 178.825L1248.3 180.739L1245.7 166.274L1241.24 182.007L1231.41 183.773L1221.24 170.489L1223.87 185.127L1213.18 187.049L1207.42 155.002L1219.63 152.808L1234.5 172.89L1241.28 148.918L1253.19 146.778ZM1256.73 155.055L1254.83 146.463L1292.38 138.157L1256.73 155.055ZM1292.38 138.157L1294.29 146.792L1280.89 149.757L1286.01 172.913L1275.44 175.251L1270.32 152.095L1256.74 155.098L1254.83 146.463L1292.38 138.157ZM1296.38 153.968C1295.57 150.814 1295.77 147.736 1296.97 144.734C1298.2 141.724 1300.24 139.098 1303.08 136.855C1305.95 134.577 1309.35 132.935 1313.27 131.931C1316.79 131.029 1320.12 130.782 1323.25 131.191C1326.38 131.572 1329.11 132.553 1331.45 134.133C1333.79 135.685 1335.6 137.748 1336.9 140.324L1325.99 143.117C1325.27 142.09 1324.29 141.295 1323.06 140.733C1321.85 140.135 1320.56 139.783 1319.2 139.677C1317.84 139.571 1316.57 139.671 1315.37 139.976C1313.7 140.406 1312.15 141.165 1310.73 142.254C1309.34 143.337 1308.32 144.659 1307.66 146.22C1307.02 147.747 1306.93 149.391 1307.38 151.152C1307.83 152.914 1308.71 154.325 1310.01 155.385C1311.3 156.416 1312.8 157.076 1314.51 157.365C1316.24 157.619 1317.99 157.52 1319.75 157.069C1321.71 156.567 1323.39 155.636 1324.8 154.276C1326.24 152.909 1327.13 151.257 1327.48 149.32L1338.44 146.515C1338.51 149.375 1337.89 152.06 1336.6 154.572C1335.29 157.055 1333.38 159.211 1330.85 161.04C1328.32 162.868 1325.29 164.234 1321.77 165.136C1317.88 166.133 1314.12 166.321 1310.51 165.701C1306.93 165.074 1303.88 163.736 1301.36 161.688C1298.83 159.639 1297.17 157.066 1296.38 153.968ZM1392.85 110.181L1402.18 141.378L1391.8 144.477L1387.6 130.396L1384.93 146.53L1375.36 149.389L1363.77 137.331L1368.03 151.581L1357.61 154.692L1348.29 123.495L1360.18 119.943L1377.22 138.227L1381.26 113.645L1392.85 110.181ZM1432.46 97.3564L1425.42 128.693C1425.03 130.888 1423.41 132.833 1420.57 134.527C1417.74 136.184 1414.72 137.506 1411.49 138.492L1409.03 130.917C1410.56 130.419 1411.63 129.982 1412.21 129.606C1412.83 129.221 1413.14 128.89 1413.14 128.611C1413.17 128.324 1413.08 127.906 1412.87 127.357L1393.29 110.076L1404.21 106.529L1417.8 119.325L1421.54 100.903L1432.46 97.3564ZM1476.08 105.354C1477.38 109.22 1476.6 112.636 1473.74 115.603C1470.88 118.57 1466.67 121.011 1461.09 122.926C1454.79 125.09 1449.61 125.675 1445.55 124.683C1441.48 123.662 1438.7 120.988 1437.21 116.661L1446.95 113.315C1447.68 115.452 1449.16 116.695 1451.39 117.046C1453.61 117.369 1456.06 117.054 1458.74 116.102C1461.12 115.347 1463.02 114.337 1464.45 113.072C1465.88 111.807 1466.34 110.406 1465.84 108.871C1465.58 108.094 1465.17 107.583 1464.62 107.338C1464.06 107.064 1463.31 107.011 1462.38 107.177C1461.43 107.316 1460.16 107.661 1458.55 108.214L1450.85 110.859L1448.79 104.866L1456.49 102.222C1458.71 101.459 1460.19 100.639 1460.95 99.7599C1461.7 98.881 1461.94 98.0393 1461.66 97.2348C1461.31 96.2083 1460.23 95.7404 1458.43 95.8311C1456.65 95.8845 1454.58 96.3023 1452.21 97.0846C1449.52 98.0091 1447.33 99.0866 1445.65 100.317C1443.95 101.52 1443.31 102.718 1443.72 103.911L1433.98 107.256C1432.61 103.261 1433.69 99.8653 1437.23 97.0686C1440.78 94.2346 1445 91.979 1449.88 90.3017C1452.85 89.282 1455.68 88.5279 1458.36 88.0396C1461.07 87.5139 1463.62 87.5972 1466.03 88.2895C1468.44 88.9817 1470.1 90.6595 1471.02 93.3227C1471.95 96.0414 1470.93 98.472 1467.94 100.614C1471.92 100.457 1474.62 102.01 1476.05 105.271L1476.08 105.354ZM1497.47 85.809C1500.11 84.9256 1502.56 84.571 1504.82 84.7454C1507.07 84.9198 1509.01 85.6324 1510.63 86.8833C1512.29 88.1249 1513.49 89.8725 1514.24 92.1259L1514.3 92.2928C1514.99 94.3515 1515.04 96.3598 1514.46 98.3175C1513.9 100.266 1512.77 102.02 1511.07 103.58C1509.38 105.102 1507.24 106.296 1504.65 107.161L1482.2 114.665L1471.88 83.7849L1482.19 80.3396L1485.37 89.8541L1497.47 85.809ZM1519.26 102.279L1508.94 71.3984L1519.2 67.967L1529.53 98.8476L1519.26 102.279ZM1501.13 100.917C1502.85 100.34 1504.05 99.648 1504.7 98.8404C1505.39 98.0235 1505.46 96.8083 1504.92 95.1947C1504.54 94.0541 1504.05 93.2753 1503.45 92.8584C1502.84 92.4415 1502.17 92.2658 1501.41 92.3314C1500.66 92.3969 1499.69 92.6296 1498.49 93.0295L1498.45 93.0435L1487.64 96.6562L1490.27 104.502C1493.55 103.404 1495.85 102.651 1497.16 102.242C1498.5 101.795 1499.4 101.493 1499.88 101.335L1501.13 100.917ZM1546.53 75.0819L1568.68 86.7042L1555.95 90.6403L1539.31 81.5055L1543.33 94.5374L1532.95 97.7461L1523.34 66.6375L1533.72 63.4288L1537.06 74.2328L1545.58 59.7655L1558.44 55.7905L1546.53 75.0819ZM1612.27 74.4954L1601.72 77.4524L1597.29 72.8911L1579.54 77.8669L1578.12 84.0669L1567.57 87.0239L1575.78 50.9102L1586.5 47.9057L1612.27 74.4954ZM1583.84 58.977L1581.37 69.7228L1591.5 66.8846L1583.84 58.977ZM1631.5 64.3286C1630.24 64.6324 1629.01 64.6126 1627.81 64.2693C1626.61 63.8976 1625.56 63.2602 1624.68 62.3572C1623.83 61.4473 1623.25 60.3652 1622.94 59.1108C1622.64 57.8564 1622.66 56.6293 1623 55.4294C1623.37 54.1942 1624.01 53.1495 1624.92 52.2954C1625.82 51.4127 1626.9 50.8196 1628.15 50.5158C1629.41 50.212 1630.64 50.2461 1631.84 50.6178C1633.07 50.9542 1634.12 51.5916 1634.98 52.5299C1635.86 53.4329 1636.45 54.5116 1636.76 55.766C1637.06 57.0204 1637.03 58.251 1636.65 59.4577C1636.31 60.6576 1635.67 61.7022 1634.74 62.5918C1633.83 63.4459 1632.75 64.0248 1631.5 64.3286ZM1679.96 40.7732C1679.63 38.9265 1679.47 38.1355 1679.49 38.4001L1679.96 40.7732ZM1692.3 56.7056L1682.16 58.7309L1680.1 48.4186L1673.15 49.8062L1666.37 61.8853L1654.33 64.2899L1661.45 51.65C1658.51 51.609 1656.06 50.8577 1654.09 49.396C1652.15 47.9286 1650.91 45.8285 1650.37 43.0958L1650.33 42.9232C1649.91 40.8234 1650.11 38.8704 1650.91 37.0642C1651.74 35.2235 1653.09 33.6534 1654.95 32.3537C1656.84 31.0483 1659.13 30.1284 1661.8 29.5941L1685.92 24.7763L1692.3 56.7056ZM1666.19 36.3C1664.73 36.593 1663.62 36.8746 1662.86 37.1448C1662.14 37.4093 1661.58 37.8492 1661.2 38.4647C1660.84 39.0744 1660.77 39.9401 1661 41.062C1661.21 42.1263 1661.6 42.857 1662.15 43.254C1662.73 43.6166 1663.41 43.7807 1664.18 43.7464C1664.98 43.7063 1666.11 43.5398 1667.58 43.2467L1667.62 43.2381L1678.63 41.0404L1677.26 34.1799C1672.94 35.0418 1669.77 35.645 1667.75 35.9897L1666.19 36.3ZM1703.49 33.7666L1720.68 31.1958L1718.97 19.7511L1729.67 18.1501L1734.49 50.3519L1723.79 51.953L1721.94 39.6379L1704.75 42.2087L1706.6 54.5237L1695.85 56.1313L1691.03 23.9294L1701.78 22.3219L1703.49 33.7666ZM1775.83 38.6082L1780.17 38.2214L1781.25 50.3174L1771.12 51.22L1770.75 47.0565L1746.99 49.1304L1747.37 53.3377L1737.25 54.2403L1736.17 42.1442L1739.41 41.8551C1740.72 38.6466 1741.74 35.7869 1742.49 33.2759C1743.24 30.7648 1743.74 28.1724 1744 25.4986C1744.29 22.7929 1744.3 19.8623 1744.02 16.7068L1773.6 14.0694L1775.83 38.6082ZM1754.13 23.624C1753.91 26.4706 1753.44 29.2224 1752.7 31.8795C1752 34.534 1751.01 37.5518 1749.75 40.933L1765.75 39.5069L1764.26 22.7653L1754.13 23.624ZM1814.17 32.4851L1793.85 33.0389L1793.99 38.009L1818 37.1786L1818.21 45.0517L1783.33 46.0023L1782.45 13.4543L1817.33 12.5038L1817.58 20.3756L1793.53 21.0313L1793.64 25.3417L1813.96 24.7879L1814.17 32.4851ZM1841.36 27.9709L1858.6 46.0949L1845.27 45.729L1832.45 31.7319L1832.08 45.3668L1821.21 45.0686L1822.11 12.5208L1832.97 12.8191L1832.66 24.1228L1845.37 13.1596L1858.83 13.529L1841.36 27.9709ZM1854.75 29.8292C1855.03 26.5852 1856.23 23.7447 1858.36 21.3076C1860.51 18.873 1863.3 17.0675 1866.73 15.8911C1870.19 14.6881 1873.94 14.2605 1877.97 14.6084C1881.59 14.9211 1884.82 15.7879 1887.64 17.209C1890.46 18.6009 1892.72 20.4296 1894.41 22.6952C1896.1 24.9315 1897.13 27.4789 1897.5 30.3374L1886.28 29.3693C1885.94 28.1625 1885.28 27.09 1884.3 26.1517C1883.36 25.1867 1882.26 24.4295 1881.01 23.8802C1879.76 23.3309 1878.53 23.0033 1877.3 22.8975C1875.57 22.7487 1873.86 22.9544 1872.17 23.5146C1870.5 24.0774 1869.1 24.9868 1867.96 26.2429C1866.85 27.4723 1866.22 28.993 1866.06 30.8049C1865.91 32.6168 1866.27 34.2378 1867.14 35.6679C1868.02 37.0687 1869.22 38.1879 1870.74 39.0254C1872.29 39.8363 1873.97 40.3199 1875.78 40.4762C1877.8 40.6501 1879.7 40.328 1881.47 39.5098C1883.28 38.6941 1884.67 37.4303 1885.64 35.7181L1896.91 36.69C1896.03 39.4109 1894.56 41.7428 1892.51 43.6856C1890.46 45.5992 1887.94 47.0011 1884.95 47.8913C1881.96 48.7815 1878.65 49.0702 1875.02 48.7576C1871.02 48.4122 1867.42 47.3506 1864.21 45.5727C1861.04 43.7973 1858.6 41.526 1856.9 38.7586C1855.19 35.9912 1854.48 33.0147 1854.75 29.8292ZM1963.54 27.6005L1958.03 59.6917L1947.36 57.8616L1949.85 43.3772L1940.29 56.649L1930.45 54.9602L1925.42 39.0078L1922.9 53.6657L1912.19 51.8281L1917.7 19.7369L1929.93 21.8349L1937.07 45.7832L1951.61 25.5546L1963.54 27.6005ZM2006.53 37.0983L1984.52 60.4827C1983.06 62.1696 1980.67 63.0181 1977.37 63.0281C1974.09 63.016 1970.81 62.6125 1967.54 61.8176L1969.28 54.0464C1970.85 54.3991 1971.99 54.5634 1972.68 54.5392C1973.41 54.5214 1973.84 54.3933 1973.99 54.1549C1974.16 53.9229 1974.3 53.5175 1974.4 52.9386L1966.35 28.0932L1977.55 30.6042L1982.73 48.5388L1995.33 34.5873L2006.53 37.0983ZM2040.05 68.5359C2038.98 72.4708 2036.44 74.8779 2032.41 75.7574C2028.39 76.6369 2023.53 76.3243 2017.82 74.8197C2011.39 73.1205 2006.75 70.7298 2003.93 67.6477C2001.11 64.5372 2000.28 60.7696 2001.45 56.3452L2011.4 58.9726C2010.83 61.1565 2011.37 63.0134 2013.03 64.5435C2014.69 66.0452 2016.91 67.1449 2019.67 67.8426C2022.06 68.5356 2024.2 68.7522 2026.09 68.4923C2027.98 68.2323 2029.15 67.3262 2029.59 65.7737C2029.8 64.9796 2029.74 64.3279 2029.42 63.8185C2029.11 63.2808 2028.52 62.8213 2027.65 62.4399C2026.78 62.0302 2025.53 61.6083 2023.88 61.1741L2016.01 59.0968L2017.63 52.9706L2025.5 55.0479C2027.77 55.6467 2029.46 55.7898 2030.57 55.477C2031.69 55.1643 2032.35 54.5967 2032.57 53.7742C2032.85 52.7248 2032.21 51.7382 2030.67 50.8144C2029.16 49.8697 2027.2 49.065 2024.8 48.4004C2022.05 47.6743 2019.63 47.3545 2017.54 47.4411C2015.46 47.4994 2014.26 48.1383 2013.94 49.3578L2003.99 46.7304C2005.06 42.6462 2007.85 40.4236 2012.34 40.0626C2016.88 39.6806 2021.64 40.1484 2026.63 41.4659C2029.66 42.2668 2032.43 43.2102 2034.94 44.2959C2037.48 45.3608 2039.56 46.8501 2041.17 48.7638C2042.79 50.6775 2043.24 52.9958 2042.52 55.7186C2041.79 58.498 2039.59 59.9492 2035.92 60.0719C2039.31 62.1512 2040.7 64.9442 2040.07 68.4508L2040.05 68.5359ZM2069.08 64.9645C2071.74 65.7679 2073.95 66.8912 2075.69 68.3342C2077.43 69.7773 2078.6 71.4783 2079.21 73.4372C2079.84 75.4046 2079.81 77.5258 2079.13 79.8009L2079.08 79.9695C2078.45 82.048 2077.34 83.7186 2075.73 84.9813C2074.15 86.2525 2072.22 87.033 2069.93 87.3229C2067.67 87.5932 2065.23 87.3351 2062.62 86.5486L2039.96 79.7238L2049.34 48.5464L2059.75 51.6797L2056.86 61.2857L2069.08 64.9645ZM2077.37 90.9885L2086.76 59.8111L2097.12 62.9317L2087.73 94.1091L2077.37 90.9885ZM2063.35 79.4143C2065.09 79.9386 2066.46 80.0608 2067.46 79.7809C2068.49 79.5093 2069.26 78.5591 2069.75 76.93C2070.09 75.7784 2070.14 74.8583 2069.89 74.1696C2069.64 73.481 2069.18 72.9468 2068.53 72.5668C2067.88 72.1869 2066.95 71.8151 2065.74 71.4514L2065.7 71.4387L2054.79 68.1532L2052.4 76.0739C2055.72 77.0719 2058.03 77.7836 2059.34 78.2092C2060.69 78.6151 2061.6 78.89 2062.08 79.0337L2063.35 79.4143ZM2115.37 84.5983L2126.68 106.91L2114.02 102.732L2105.76 85.6434L2101.48 98.5966L2091.16 95.1914L2101.37 64.2709L2111.69 67.6761L2108.14 78.4147L2123.47 71.5638L2136.26 75.7824L2115.37 84.5983ZM2169.44 121.755L2159.09 118.163L2158.06 111.889L2140.64 105.844L2135.94 110.128L2125.59 106.536L2152.93 81.5603L2163.45 85.2101L2169.44 121.755ZM2154.95 92.7868L2146.79 100.201L2156.72 103.648L2154.95 92.7868ZM2191.03 123.995C2189.82 123.559 2188.8 122.869 2187.99 121.923C2187.18 120.949 2186.66 119.842 2186.42 118.603C2186.21 117.373 2186.32 116.151 2186.75 114.936C2187.19 113.721 2187.88 112.707 2188.83 111.893C2189.81 111.061 2190.92 110.539 2192.15 110.325C2193.39 110.084 2194.61 110.181 2195.83 110.617C2197.04 111.052 2198.05 111.757 2198.86 112.73C2199.7 113.686 2200.22 114.793 2200.42 116.05C2200.66 117.29 2200.57 118.517 2200.13 119.732C2199.7 120.947 2198.99 121.956 2198.02 122.76C2197.07 123.574 2195.97 124.096 2194.7 124.328C2193.47 124.541 2192.25 124.431 2191.03 123.995ZM2226.81 141.725L2253.86 116.305L2226.81 141.725ZM2235.36 133.686L2253.86 116.305L2264.31 119.719L2237.89 145.344L2226.18 141.52L2220.1 105.283L2231.31 108.943L2235.36 133.686ZM2279.73 139.632L2291.92 161.478L2279.1 157.805L2270.17 141.057L2266.41 154.169L2255.96 151.175L2264.93 119.875L2275.38 122.869L2272.26 133.739L2287.31 126.287L2300.25 129.996L2279.73 139.632ZM2358.77 143.642L2351.58 175.399L2341.02 173.009L2344.27 158.676L2334.03 171.426L2324.28 169.221L2320.1 153.025L2316.82 167.53L2306.22 165.131L2313.41 133.374L2325.51 136.114L2331.38 160.405L2346.97 140.971L2358.77 143.642ZM2398.96 150.776L2378.05 175.148C2376.67 176.901 2374.32 177.858 2371.02 178.02C2367.75 178.159 2364.46 177.906 2361.14 177.263L2362.53 169.42C2364.12 169.7 2365.26 169.812 2365.95 169.756C2366.68 169.704 2367.1 169.557 2367.24 169.312C2367.4 169.072 2367.52 168.661 2367.59 168.078L2358.4 143.629L2369.71 145.622L2375.71 163.299L2387.65 148.783L2398.96 150.776ZM2433.58 176.989C2433.04 181.03 2430.83 183.751 2426.95 185.15C2423.08 186.549 2418.22 186.877 2412.37 186.133C2405.76 185.292 2400.86 183.529 2397.65 180.844C2394.45 178.13 2393.14 174.504 2393.71 169.964L2403.93 171.264C2403.64 173.505 2404.42 175.275 2406.27 176.574C2408.12 177.844 2410.45 178.644 2413.28 178.974C2415.75 179.347 2417.9 179.281 2419.74 178.776C2421.58 178.271 2422.61 177.22 2422.84 175.623C2422.95 174.808 2422.81 174.169 2422.42 173.706C2422.04 173.214 2421.4 172.836 2420.48 172.572C2419.57 172.279 2418.28 172.025 2416.59 171.811L2408.51 170.783L2409.31 164.498L2417.39 165.525C2419.72 165.821 2421.41 165.742 2422.47 165.286C2423.54 164.829 2424.12 164.179 2424.23 163.336C2424.37 162.259 2423.61 161.364 2421.96 160.651C2420.33 159.912 2418.29 159.371 2415.82 159.027C2413 158.668 2410.56 158.668 2408.5 159.027C2406.45 159.358 2405.34 160.148 2405.18 161.4L2394.97 160.1C2395.5 155.91 2397.97 153.341 2402.38 152.394C2406.82 151.421 2411.6 151.261 2416.72 151.913C2419.84 152.309 2422.71 152.881 2425.33 153.629C2427.99 154.352 2430.25 155.556 2432.1 157.241C2433.96 158.926 2434.71 161.165 2434.35 163.958C2433.99 166.81 2432 168.537 2428.37 169.141C2432.01 170.757 2433.75 173.344 2433.59 176.902L2433.58 176.989ZM2460 166.965C2462.78 167.145 2465.18 167.741 2467.21 168.754C2469.23 169.766 2470.75 171.158 2471.79 172.93C2472.85 174.704 2473.3 176.776 2473.15 179.147L2473.14 179.323C2473 181.489 2472.29 183.368 2471.01 184.961C2469.76 186.555 2468.05 187.753 2465.88 188.553C2463.74 189.326 2461.31 189.625 2458.59 189.449L2434.97 187.92L2437.07 155.428L2447.92 156.13L2447.27 166.141L2460 166.965ZM2473.96 190.443L2476.06 157.951L2486.86 158.65L2484.76 191.142L2473.96 190.443ZM2457.68 182.335C2459.5 182.453 2460.86 182.262 2461.78 181.762C2462.72 181.265 2463.25 180.167 2463.36 178.469C2463.44 177.269 2463.27 176.362 2462.87 175.748C2462.47 175.135 2461.91 174.716 2461.19 174.493C2460.47 174.27 2459.48 174.118 2458.22 174.037L2458.18 174.034L2446.81 173.298L2446.27 181.553C2449.73 181.776 2452.14 181.947 2453.51 182.065C2454.92 182.156 2455.87 182.218 2456.37 182.25L2457.68 182.335ZM2508.04 173.64L2525.74 191.307L2512.41 191.29L2499.23 177.633L2499.21 191.273L2488.34 191.259L2488.39 158.699L2499.25 158.713L2499.24 170.021L2511.66 158.729L2525.13 158.746L2508.04 173.64ZM2570.93 188.668L2559.99 189.302L2556.64 183.899L2538.23 184.966L2535.52 190.721L2524.59 191.355L2540.32 157.828L2551.43 157.184L2570.93 188.668ZM2546.47 167.432L2541.76 177.401L2552.26 176.793L2546.47 167.432ZM2591.24 181.187C2589.96 181.343 2588.75 181.181 2587.59 180.7C2586.44 180.191 2585.48 179.437 2584.7 178.437C2583.96 177.435 2583.51 176.293 2583.35 175.011C2583.2 173.73 2583.36 172.514 2583.84 171.362C2584.35 170.177 2585.1 169.214 2586.1 168.471C2587.1 167.699 2588.24 167.235 2589.52 167.079C2590.81 166.923 2592.02 167.099 2593.18 167.609C2594.36 168.085 2595.32 168.84 2596.07 169.872C2596.84 170.871 2597.31 172.011 2597.46 173.292C2597.62 174.574 2597.44 175.792 2596.93 176.947C2596.45 178.099 2595.7 179.063 2594.67 179.838C2593.67 180.581 2592.52 181.03 2591.24 181.187ZM2652.48 165.308C2653.18 169.323 2651.9 172.585 2648.63 175.093C2645.37 177.6 2640.83 179.386 2635.03 180.449C2628.48 181.649 2623.27 181.456 2619.4 179.869C2615.53 178.253 2613.18 175.194 2612.36 170.693L2622.48 168.837C2622.89 171.059 2624.17 172.509 2626.32 173.188C2628.47 173.838 2630.94 173.893 2633.73 173.351C2636.2 172.959 2638.23 172.244 2639.83 171.205C2641.42 170.167 2642.09 168.851 2641.83 167.259C2641.68 166.451 2641.36 165.885 2640.85 165.56C2640.34 165.207 2639.61 165.043 2638.66 165.068C2637.7 165.064 2636.39 165.215 2634.71 165.522L2626.71 166.989L2625.56 160.757L2633.57 159.29C2635.88 158.867 2637.47 158.277 2638.35 157.52C2639.22 156.763 2639.58 155.966 2639.43 155.129C2639.23 154.062 2638.24 153.439 2636.45 153.26C2634.68 153.048 2632.57 153.152 2630.11 153.572C2627.31 154.085 2624.98 154.825 2623.13 155.79C2621.28 156.727 2620.46 157.815 2620.69 159.056L2610.56 160.912C2609.8 156.757 2611.38 153.561 2615.29 151.323C2619.23 149.05 2623.74 147.449 2628.81 146.518C2631.9 145.952 2634.81 145.628 2637.54 145.545C2640.29 145.428 2642.81 145.892 2645.08 146.935C2647.36 147.979 2648.76 149.886 2649.26 152.656C2649.78 155.483 2648.41 157.734 2645.13 159.407C2649.09 159.845 2651.53 161.783 2652.46 165.221L2652.48 165.308ZM2686.47 150.732C2688.98 150.643 2691 151.051 2692.51 151.955C2694.02 152.831 2695.03 154.367 2695.56 156.564L2695.6 156.735C2696.37 159.959 2695.58 162.562 2693.22 164.545C2690.88 166.492 2687.22 168.078 2682.23 169.303L2682.15 169.323L2680.48 169.723L2657.11 175.319L2649.53 143.654L2676.62 137.167C2679.93 136.403 2682.74 136.455 2685.02 137.325C2687.31 138.194 2688.75 139.855 2689.34 142.308L2689.38 142.48C2689.83 144.334 2689.8 145.938 2689.31 147.292C2688.82 148.646 2687.88 149.793 2686.47 150.732ZM2674.63 150.765C2676.05 150.423 2677.09 150.145 2677.73 149.931C2678.39 149.681 2678.9 149.288 2679.26 148.751C2679.64 148.207 2679.71 147.435 2679.47 146.437C2679.25 145.524 2678.87 144.923 2678.31 144.633C2677.76 144.343 2677.12 144.24 2676.39 144.325C2675.65 144.382 2674.59 144.574 2673.22 144.902L2673.18 144.913L2660.98 147.834L2662.38 153.653C2665.32 152.949 2667.26 152.499 2668.21 152.302L2670.26 151.81L2674.63 150.765ZM2678.94 162.536C2680.54 162.153 2681.72 161.824 2682.5 161.547C2683.27 161.241 2683.85 160.802 2684.22 160.23C2684.59 159.629 2684.65 158.814 2684.41 157.788C2684.17 156.789 2683.75 156.134 2683.17 155.822C2682.57 155.482 2681.87 155.365 2681.05 155.47C2680.22 155.548 2679.01 155.778 2677.41 156.16L2677.37 156.17L2663.76 159.43L2665.28 165.762C2669.3 164.799 2672.16 164.13 2673.85 163.756C2675.56 163.346 2676.73 163.065 2677.35 162.915L2678.94 162.536ZM2724.78 123.702L2716.76 154.799C2716.29 156.981 2714.61 158.873 2711.71 160.476C2708.84 162.043 2705.77 163.268 2702.52 164.151L2700.3 156.502C2701.85 156.052 2702.92 155.649 2703.52 155.292C2704.15 154.927 2704.47 154.606 2704.48 154.328C2704.52 154.041 2704.44 153.621 2704.25 153.065L2685.23 135.172L2696.26 131.973L2709.44 145.194L2713.75 126.9L2724.78 123.702ZM2748.03 131.598L2770.44 142.704L2757.8 146.935L2740.95 138.188L2745.28 151.123L2734.97 154.571L2724.64 123.694L2734.95 120.245L2738.54 130.969L2746.72 116.308L2759.48 112.036L2748.03 131.598ZM2788.92 130.437C2787.72 130.89 2786.5 131.018 2785.26 130.821C2784.02 130.598 2782.91 130.091 2781.92 129.3C2780.96 128.5 2780.26 127.495 2779.81 126.287C2779.35 125.078 2779.23 123.857 2779.42 122.625C2779.64 121.355 2780.14 120.241 2780.94 119.283C2781.73 118.299 2782.73 117.58 2783.94 117.127C2785.15 116.675 2786.38 116.56 2787.62 116.784C2788.88 116.97 2789.99 117.477 2790.96 118.305C2791.95 119.096 2792.66 120.095 2793.12 121.304C2793.57 122.512 2793.68 123.738 2793.46 124.981C2793.26 126.213 2792.76 127.327 2791.94 128.322C2791.14 129.28 2790.13 129.985 2788.92 130.437ZM2844.34 79.5255L2856.22 109.842L2846.14 113.79L2840.78 100.107L2839.46 116.407L2830.16 120.05L2817.61 108.996L2823.04 122.843L2812.92 126.808L2801.04 96.4913L2812.59 91.9649L2831.09 108.773L2833.08 83.9395L2844.34 79.5255ZM2851.57 86.2497L2848.82 77.8917L2885.34 65.8575L2851.57 86.2497ZM2885.34 65.8575L2888.11 74.2573L2875.07 78.5532L2882.5 101.078L2872.21 104.465L2864.79 81.9404L2851.59 86.2915L2848.82 77.8917L2885.34 65.8575ZM2892.4 80.813C2891.57 77.6636 2891.75 74.5844 2892.93 71.5753C2894.14 68.5587 2896.16 65.9205 2899 63.6606C2901.85 61.3649 2905.24 59.7033 2909.15 58.6759C2912.67 57.7527 2916 57.4864 2919.13 57.8768C2922.26 58.2388 2925 59.203 2927.35 60.7694C2929.7 62.3074 2931.52 64.3601 2932.83 66.9276L2921.94 69.7864C2921.22 68.7632 2920.24 67.9742 2919 67.4194C2917.78 66.8288 2916.49 66.4844 2915.13 66.3864C2913.77 66.2884 2912.5 66.3957 2911.31 66.7084C2909.63 67.1477 2908.09 67.9162 2906.68 69.0141C2905.3 70.1045 2904.28 71.4326 2903.63 72.9983C2903 74.5282 2902.92 76.1727 2903.38 77.9318C2903.84 79.691 2904.72 81.0965 2906.03 82.1485C2907.33 83.1722 2908.84 83.8235 2910.55 84.1024C2912.28 84.3455 2914.02 84.2363 2915.78 83.7747C2917.74 83.261 2919.42 82.3201 2920.82 80.952C2922.25 79.5764 2923.13 77.9191 2923.47 75.9799L2934.41 73.1098C2934.49 75.9691 2933.9 78.6583 2932.62 81.1776C2931.33 83.6686 2929.43 85.8358 2926.91 87.6794C2924.39 89.523 2921.37 90.9064 2917.85 91.8296C2913.96 92.8495 2910.21 93.0603 2906.6 92.462C2903.01 91.8563 2899.95 90.5365 2897.42 88.5027C2894.88 86.4689 2893.21 83.9057 2892.4 80.813ZM2994.09 42.1157L2999.7 74.1894L2989.03 76.0531L2986.5 61.5766L2981.97 77.288L2972.13 79.0078L2962.03 65.6761L2964.59 80.326L2953.88 82.1973L2948.28 50.1236L2960.5 47.9871L2975.28 68.1395L2982.17 44.1991L2994.09 42.1157ZM3038.04 36.8597L3024.96 66.193C3024.14 68.2669 3022.17 69.8538 3019.05 70.9539C3015.95 72.0215 3012.73 72.7204 3009.37 73.0506L3008.45 65.1396C3010.05 64.9538 3011.18 64.7346 3011.83 64.4821C3012.51 64.2262 3012.88 63.9621 3012.94 63.6897C3013.02 63.4139 3013.02 62.9864 3012.92 62.407L2997.13 41.603L3008.54 40.2804L3019.34 55.5056L3026.63 38.1824L3038.04 36.8597ZM3080.22 56.0128C3080.46 60.0834 3078.81 63.1746 3075.27 65.2862C3071.73 67.3979 3067.02 68.6453 3061.14 69.0284C3054.5 69.4611 3049.34 68.6649 3045.68 66.6398C3042.02 64.5854 3040.04 61.275 3039.75 56.7087L3050.02 56.0396C3050.17 58.2935 3051.27 59.8825 3053.33 60.8066C3055.39 61.7015 3057.83 62.0419 3060.67 61.8277C3063.16 61.7242 3065.26 61.2494 3066.97 60.4032C3068.68 59.5571 3069.5 58.3281 3069.42 56.7162C3069.37 55.8966 3069.11 55.2962 3068.64 54.915C3068.17 54.5046 3067.47 54.2566 3066.52 54.1713C3065.57 54.0566 3064.25 54.0546 3062.55 54.1652L3054.43 54.6942L3054.02 48.3716L3062.14 47.8426C3064.48 47.6901 3066.13 47.2887 3067.09 46.6385C3068.05 45.9882 3068.5 45.2387 3068.44 44.3898C3068.37 43.3068 3067.46 42.5727 3065.7 42.1875C3063.97 41.7712 3061.85 41.6294 3059.36 41.7622C3056.52 41.9471 3054.13 42.4117 3052.18 43.156C3050.23 43.8711 3049.29 44.8579 3049.37 46.1166L3039.1 46.7857C3038.83 42.5706 3040.76 39.5785 3044.91 37.8092C3049.08 36.0088 3053.75 34.9408 3058.9 34.6053C3062.03 34.4014 3064.96 34.4166 3067.68 34.651C3070.42 34.8543 3072.87 35.6063 3075.01 36.9072C3077.15 38.208 3078.31 40.2635 3078.5 43.0735C3078.68 45.9421 3077.06 48.0177 3073.61 49.3002C3077.49 50.194 3079.69 52.4022 3080.22 55.925L3080.22 56.0128ZM3107.15 44.0029C3109.94 43.9835 3112.38 44.4064 3114.46 45.2719C3116.55 46.1373 3118.18 47.4167 3119.33 49.11C3120.52 50.8031 3121.12 52.8376 3121.13 55.2136L3121.14 55.3896C3121.15 57.5602 3120.58 59.4856 3119.42 61.1657C3118.28 62.8457 3116.66 64.1623 3114.56 65.1157C3112.48 66.0396 3110.08 66.511 3107.35 66.53L3083.68 66.6953L3083.45 34.1361L3094.32 34.0602L3094.39 44.092L3107.15 44.0029ZM3122.75 66.4226L3122.53 33.8633L3133.35 33.7878L3133.58 66.347L3122.75 66.4226ZM3105.94 59.4997C3107.76 59.487 3109.11 59.199 3109.98 58.6355C3110.89 58.0718 3111.33 56.9394 3111.32 55.2381C3111.31 54.0354 3111.09 53.1423 3110.64 52.5587C3110.2 51.9752 3109.61 51.5979 3108.88 51.4271C3108.14 51.2562 3107.14 51.1751 3105.88 51.1839L3105.84 51.1842L3094.44 51.2638L3094.5 59.5356C3097.96 59.5114 3100.38 59.5092 3101.76 59.5289C3103.17 59.5191 3104.12 59.5124 3104.62 59.509L3105.94 59.4997ZM3157.65 49.738L3174.52 68.2102L3161.2 67.5723L3148.67 53.3164L3148.02 66.9408L3137.16 66.4208L3138.72 33.8981L3149.58 34.4181L3149.04 45.7131L3161.97 35.0117L3175.42 35.6559L3157.65 49.738ZM3219.57 72.6141L3208.67 71.552L3206.19 65.6959L3187.84 63.9086L3184.27 69.1759L3173.37 68.1137L3194.09 37.4177L3205.17 38.4969L3219.57 72.6141ZM3198.68 47.8566L3192.49 56.9791L3202.96 57.9986L3198.68 47.8566ZM3227.47 68.4585C3226.19 68.2881 3225.05 67.8261 3224.06 67.0722C3223.07 66.2893 3222.32 65.3174 3221.83 64.1564C3221.36 62.9992 3221.21 61.781 3221.38 60.5016C3221.55 59.2222 3222.01 58.0852 3222.77 57.0907C3223.56 56.0709 3224.53 55.3274 3225.68 54.86C3226.85 54.3635 3228.07 54.2004 3229.34 54.3707C3230.62 54.5411 3231.76 55.0177 3232.75 55.8006C3233.77 56.5583 3234.52 57.5302 3234.98 58.7164C3235.48 59.8774 3235.64 61.0976 3235.47 62.377C3235.3 63.6564 3234.82 64.7914 3234.04 65.7821C3233.29 66.7767 3232.31 67.5202 3231.12 68.0128C3229.97 68.4802 3228.75 68.6288 3227.47 68.4585ZM3281.3 64.4635C3281.67 62.623 3281.81 61.8299 3281.74 62.0841L3281.3 64.4635ZM3286.83 83.8387L3276.66 81.9515L3278.58 71.6121L3271.62 70.3192L3260.83 79.0122L3248.76 76.7717L3260.07 67.683C3257.35 66.5527 3255.36 64.9436 3254.07 62.8556C3252.82 60.7731 3252.44 58.3618 3252.95 55.622L3252.99 55.4489C3253.38 53.3436 3254.28 51.6022 3255.7 50.2247C3257.15 48.8238 3258.99 47.8664 3261.2 47.3525C3263.44 46.8439 3265.91 46.8385 3268.59 47.3365L3292.77 51.8257L3286.83 83.8387ZM3270.17 55.1936C3268.7 54.9206 3267.57 54.7695 3266.77 54.7403C3266 54.7164 3265.32 54.9186 3264.73 55.3467C3264.17 55.7802 3263.79 56.5593 3263.58 57.6841C3263.38 58.7512 3263.47 59.5727 3263.84 60.1487C3264.24 60.7011 3264.81 61.1046 3265.54 61.3592C3266.29 61.6191 3267.41 61.8856 3268.88 62.1586L3268.92 62.1667L3279.95 64.2145L3281.23 57.336C3276.91 56.533 3273.74 55.9152 3271.73 55.4827L3270.17 55.1936ZM3305.78 66.739L3322.69 70.777L3325.37 59.5217L3335.9 62.0365L3328.34 93.7055L3317.81 91.1907L3320.7 79.0794L3303.8 75.0414L3300.9 87.1527L3290.33 84.6277L3297.9 52.9586L3308.47 55.4837L3305.78 66.739ZM3371.09 98.1057L3375.26 99.3525L3371.78 110.988L3362.04 108.079L3363.24 104.074L3340.4 97.2061L3339.19 101.253L3329.46 98.3442L3332.93 86.7083L3336.05 87.6403C3338.45 85.1425 3340.46 82.8657 3342.09 80.81C3343.71 78.7542 3345.14 76.533 3346.37 74.1461C3347.64 71.7396 3348.73 69.0186 3349.64 65.9831L3378.1 74.4839L3371.09 98.1057ZM3356.47 76.153C3355.22 78.7168 3353.76 81.0969 3352.09 83.2932C3350.45 85.4978 3348.42 87.9376 3346 90.6124L3361.39 95.2091L3366.2 79.1043L3356.47 76.153ZM3408.97 106.402L3389.85 99.5077L3388.16 104.185L3410.82 112.167L3408.15 119.577L3375.32 107.743L3386.37 77.1125L3419.19 88.9465L3416.56 96.3706L3393.92 88.2077L3392.46 92.2641L3411.58 99.1586L3408.97 106.402ZM3435.87 111.905L3445.49 134.994L3433.18 129.889L3426.2 112.234L3420.98 124.835L3410.94 120.674L3423.41 90.595L3433.45 94.7564L3429.12 105.203L3444.91 99.5075L3457.35 104.663L3435.87 111.905ZM3446.61 117.87C3447.81 114.841 3449.77 112.461 3452.5 110.732C3455.26 109.014 3458.45 108.08 3462.07 107.932C3465.73 107.767 3469.45 108.427 3473.21 109.912C3476.6 111.246 3479.44 112.997 3481.74 115.165C3484.04 117.305 3485.68 119.702 3486.66 122.356C3487.64 124.982 3487.9 127.718 3487.44 130.563L3476.96 126.431C3476.98 125.178 3476.66 123.962 3475.99 122.784C3475.36 121.588 3474.52 120.549 3473.48 119.666C3472.44 118.784 3471.35 118.116 3470.2 117.664C3468.59 117.029 3466.89 116.738 3465.11 116.79C3463.35 116.854 3461.74 117.324 3460.29 118.203C3458.88 119.065 3457.84 120.342 3457.17 122.034C3456.51 123.726 3456.39 125.382 3456.82 127.004C3457.27 128.597 3458.1 130.012 3459.31 131.248C3460.56 132.468 3462.04 133.411 3463.73 134.078C3465.61 134.821 3467.52 135.054 3469.46 134.777C3471.43 134.512 3473.12 133.697 3474.54 132.334L3485.06 136.482C3483.44 138.838 3481.36 140.654 3478.84 141.93C3476.33 143.179 3473.52 143.803 3470.4 143.801C3467.27 143.8 3464.02 143.133 3460.64 141.798C3456.9 140.324 3453.75 138.278 3451.19 135.659C3448.65 133.052 3446.96 130.178 3446.12 127.04C3445.28 123.901 3445.44 120.844 3446.61 117.87ZM3549.95 136.798L3540.3 167.895L3529.96 164.687L3534.32 150.651L3523.11 162.561L3513.57 159.6L3510.67 143.127L3506.26 157.331L3495.88 154.109L3505.53 123.013L3517.38 126.691L3521.33 151.367L3538.4 133.212L3549.95 136.798ZM3589.24 146.576L3566.72 169.466C3565.22 171.12 3562.82 171.915 3559.51 171.852C3556.24 171.767 3552.97 171.291 3549.71 170.424L3551.62 162.693C3553.19 163.081 3554.32 163.27 3555.02 163.261C3555.74 163.26 3556.18 163.141 3556.33 162.906C3556.51 162.678 3556.65 162.276 3556.76 161.699L3549.27 136.681L3560.41 139.44L3565.19 157.485L3578.1 143.817L3589.24 146.576ZM3621.97 174.715C3621.19 178.716 3618.82 181.3 3614.87 182.467C3610.92 183.634 3606.05 183.671 3600.25 182.581C3593.71 181.349 3588.92 179.297 3585.88 176.426C3582.84 173.527 3581.74 169.828 3582.59 165.331L3592.71 167.236C3592.29 169.456 3592.97 171.269 3594.73 172.676C3596.5 174.054 3598.79 174.992 3601.59 175.489C3604.03 176.008 3606.18 176.07 3608.05 175.675C3609.91 175.28 3611.01 174.292 3611.33 172.712C3611.49 171.905 3611.38 171.259 3611.03 170.774C3610.68 170.26 3610.05 169.845 3609.16 169.527C3608.27 169.18 3606.99 168.849 3605.32 168.535L3597.32 167.029L3598.49 160.802L3606.49 162.308C3608.79 162.742 3610.49 162.763 3611.58 162.371C3612.67 161.979 3613.29 161.365 3613.45 160.529C3613.65 159.463 3612.95 158.524 3611.34 157.714C3609.76 156.88 3607.75 156.218 3605.31 155.728C3602.51 155.202 3600.08 155.057 3598 155.293C3595.93 155.501 3594.78 156.224 3594.55 157.464L3584.43 155.559C3585.21 151.408 3587.83 148.991 3592.29 148.307C3596.78 147.601 3601.56 147.725 3606.64 148.68C3609.72 149.261 3612.55 150.003 3615.13 150.905C3617.74 151.785 3619.92 153.121 3621.67 154.913C3623.42 156.706 3624.04 158.985 3623.52 161.753C3622.98 164.578 3620.89 166.184 3617.24 166.57C3620.77 168.4 3622.36 171.086 3621.99 174.628L3621.97 174.715ZM3648.8 166.071C3651.56 166.395 3653.93 167.115 3655.9 168.232C3657.86 169.348 3659.31 170.818 3660.25 172.641C3661.22 174.467 3661.57 176.56 3661.29 178.92L3661.27 179.095C3661.02 181.251 3660.21 183.091 3658.85 184.615C3657.52 186.142 3655.75 187.249 3653.54 187.936C3651.37 188.597 3648.93 188.768 3646.22 188.451L3622.71 185.695L3626.5 153.356L3637.29 154.622L3636.12 164.585L3648.8 166.071ZM3661.51 190.243L3665.3 157.905L3676.05 159.164L3672.26 191.503L3661.51 190.243ZM3645.68 181.3C3647.49 181.511 3648.86 181.392 3649.8 180.941C3650.77 180.493 3651.35 179.424 3651.55 177.734C3651.69 176.54 3651.57 175.626 3651.21 174.992C3650.84 174.358 3650.3 173.911 3649.59 173.651C3648.88 173.391 3647.9 173.187 3646.65 173.04L3646.61 173.035L3635.29 171.709L3634.32 179.924C3637.76 180.327 3640.16 180.624 3641.53 180.813C3642.93 180.977 3643.88 181.088 3644.37 181.146L3645.68 181.3ZM3696.33 175.119L3713.19 193.594L3699.87 192.954L3687.35 178.695L3686.69 192.32L3675.83 191.797L3677.4 159.275L3688.25 159.797L3687.71 171.092L3700.65 160.393L3714.1 161.04L3696.33 175.119ZM3758.45 192.958L3747.49 193.107L3744.38 187.561L3725.95 187.812L3722.99 193.441L3712.03 193.59L3729.23 160.793L3740.36 160.642L3758.45 192.958ZM3734.95 170.66L3729.81 180.411L3740.32 180.268L3734.95 170.66ZM3779.07 186.412C3777.79 186.512 3776.58 186.297 3775.45 185.766C3774.32 185.207 3773.39 184.411 3772.66 183.379C3771.96 182.345 3771.56 181.184 3771.46 179.898C3771.36 178.611 3771.58 177.402 3772.11 176.273C3772.66 175.111 3773.46 174.182 3774.49 173.483C3775.53 172.756 3776.68 172.342 3777.97 172.242C3779.26 172.142 3780.47 172.372 3781.6 172.931C3782.76 173.459 3783.69 174.255 3784.39 175.319C3785.12 176.351 3785.53 177.51 3785.63 178.797C3785.73 180.084 3785.5 181.293 3784.94 182.425C3784.41 183.555 3783.62 184.485 3782.55 185.214C3781.52 185.913 3780.36 186.312 3779.07 186.412ZM3818.89 187.184L3832.05 152.48L3818.89 187.184ZM3823.05 176.21L3832.05 152.48L3842.95 150.966L3830.44 185.578L3818.23 187.275L3796.88 157.369L3808.56 155.746L3823.05 176.21ZM3865.16 161.799L3885.94 175.739L3872.85 178.281L3857.29 167.407L3859.89 180.797L3849.22 182.869L3843.01 150.907L3853.68 148.835L3855.84 159.935L3865.86 146.469L3879.08 143.902L3865.16 161.799ZM3936.98 129.058L3945.28 160.542L3934.82 163.301L3931.07 149.091L3927.88 165.13L3918.22 167.676L3907.03 155.248L3910.82 169.628L3900.31 172.399L3892.01 140.915L3904.01 137.752L3920.44 156.581L3925.28 132.143L3936.98 129.058ZM3976.07 116.905L3968.68 148.16C3968.26 150.351 3966.62 152.277 3963.76 153.938C3960.91 155.563 3957.87 156.85 3954.64 157.8L3952.26 150.197C3953.8 149.717 3954.87 149.292 3955.46 148.923C3956.08 148.545 3956.39 148.217 3956.4 147.939C3956.43 147.652 3956.35 147.233 3956.14 146.681L3936.76 129.179L3947.72 125.757L3961.17 138.706L3965.11 120.328L3976.07 116.905ZM4019.15 124.718C4020.48 128.573 4019.72 131.996 4016.89 134.984C4014.05 137.973 4009.85 140.446 4004.29 142.404C3998.01 144.616 3992.84 145.241 3988.77 144.28C3984.69 143.291 3981.89 140.638 3980.37 136.322L3990.08 132.902C3990.83 135.033 3992.32 136.265 3994.55 136.598C3996.77 136.904 3999.22 136.571 4001.9 135.598C4004.27 134.825 4006.16 133.801 4007.58 132.524C4008.99 131.248 4009.45 129.844 4008.94 128.313C4008.67 127.538 4008.25 127.03 4007.7 126.789C4007.14 126.52 4006.39 126.472 4005.46 126.646C4004.52 126.791 4003.24 127.147 4001.64 127.712L3993.96 130.416L3991.86 124.439L3999.53 121.736C4001.75 120.956 4003.23 120.124 4003.97 119.24C4004.72 118.355 4004.95 117.512 4004.67 116.709C4004.31 115.685 4003.23 115.226 4001.43 115.33C3999.65 115.397 3997.58 115.831 3995.22 116.632C3992.53 117.577 3990.35 118.671 3988.68 119.914C3986.99 121.13 3986.36 122.333 3986.77 123.523L3977.06 126.942C3975.66 122.958 3976.72 119.554 3980.23 116.73C3983.76 113.869 3987.96 111.581 3992.83 109.867C3995.8 108.824 3998.62 108.048 4001.3 107.54C4004 106.993 4006.55 107.057 4008.97 107.731C4011.38 108.404 4013.06 110.069 4013.99 112.725C4014.95 115.437 4013.94 117.875 4010.97 120.04C4014.95 119.853 4017.66 121.384 4019.12 124.635L4019.15 124.718ZM4039.06 104.297C4041.66 103.277 4044.08 102.796 4046.34 102.853C4048.6 102.91 4050.58 103.521 4052.26 104.686C4053.98 105.84 4055.27 107.523 4056.14 109.734L4056.2 109.898C4057 111.918 4057.15 113.921 4056.67 115.906C4056.22 117.881 4055.18 119.691 4053.56 121.338C4051.96 122.946 4049.88 124.249 4047.34 125.247L4025.31 133.907L4013.4 103.604L4023.52 99.6281L4027.19 108.965L4039.06 104.297ZM4061.68 119.613L4049.77 89.3101L4059.84 85.3503L4071.75 115.653L4061.68 119.613ZM4043.5 119.194C4045.19 118.529 4046.35 117.776 4046.96 116.935C4047.6 116.084 4047.61 114.866 4046.99 113.283C4046.55 112.164 4046.02 111.411 4045.4 111.026C4044.77 110.641 4044.09 110.501 4043.34 110.605C4042.59 110.71 4041.63 110.993 4040.46 111.454L4040.42 111.47L4029.81 115.64L4032.84 123.338C4036.06 122.072 4038.32 121.2 4039.61 120.723C4040.92 120.208 4041.81 119.859 4042.27 119.677L4043.5 119.194ZM4087.43 90.9974L4110.19 101.39L4097.68 106.017L4080.57 97.8068L4085.3 110.599L4075.11 114.371L4063.81 83.835L4074 80.0629L4077.93 90.668L4085.64 75.7564L4098.27 71.0833L4087.43 90.9974ZM4153.39 87.9018L4142.94 91.1705L4138.37 86.7428L4120.77 92.2433L4119.54 98.4826L4109.09 101.751L4116.21 65.4101L4126.84 62.0889L4153.39 87.9018ZM4124.51 73.234L4122.36 84.0485L4132.4 80.911L4124.51 73.234ZM4172.49 77.478C4171.24 77.7954 4170.01 77.7889 4168.81 77.4587C4167.6 77.1 4166.54 76.474 4165.65 75.5806C4164.79 74.68 4164.2 73.6042 4163.88 72.3532C4163.56 71.1021 4163.57 69.8749 4163.9 68.6714C4164.25 67.4323 4164.88 66.3808 4165.78 65.5168C4166.67 64.6245 4167.74 64.0196 4168.99 63.7023C4170.25 63.385 4171.48 63.4056 4172.69 63.7643C4173.92 64.0873 4174.97 64.7134 4175.84 65.6424C4176.73 66.5357 4177.34 67.6079 4177.66 68.859C4177.97 70.11 4177.95 71.3409 4177.59 72.5516C4177.26 73.755 4176.64 74.8066 4175.72 75.7061C4174.82 76.5701 4173.74 77.1607 4172.49 77.478ZM4233.68 58.6916C4234.45 62.6963 4233.21 65.977 4229.98 68.5337C4226.75 71.0903 4222.25 72.9439 4216.47 74.0943C4209.94 75.3935 4204.72 75.2789 4200.83 73.7505C4196.93 72.1932 4194.54 69.1706 4193.64 64.6826L4203.74 62.6736C4204.18 64.8889 4205.48 66.3198 4207.65 66.9663C4209.8 67.584 4212.27 67.6009 4215.06 67.017C4217.51 66.588 4219.53 65.8422 4221.12 64.7796C4222.7 63.7169 4223.35 62.3916 4223.06 60.8036C4222.9 59.998 4222.57 59.4368 4222.06 59.1198C4221.54 58.7742 4220.8 58.621 4219.86 58.6603C4218.9 58.6708 4217.59 58.842 4215.92 59.174L4207.94 60.7622L4206.7 54.548L4214.68 52.9598C4216.99 52.5019 4218.57 51.888 4219.43 51.118C4220.3 50.348 4220.64 49.5458 4220.48 48.7115C4220.27 47.6471 4219.26 47.0391 4217.47 46.8877C4215.7 46.7018 4213.59 46.8377 4211.13 47.2955C4208.34 47.8506 4206.03 48.6249 4204.19 49.6182C4202.35 50.5828 4201.55 51.6837 4201.8 52.9208L4191.7 54.9297C4190.88 50.7869 4192.41 47.5669 4196.29 45.2697C4200.19 42.9381 4204.67 41.2686 4209.74 40.2613C4212.81 39.6489 4215.72 39.2808 4218.44 39.157C4221.19 38.9987 4223.72 39.4241 4226.01 40.4332C4228.3 41.4423 4229.73 43.3278 4230.28 46.0896C4230.84 48.909 4229.49 51.18 4226.25 52.9025C4230.21 53.2805 4232.68 55.1814 4233.66 58.6053L4233.68 58.6916ZM4269.92 46.9126C4272.43 47.0456 4274.4 47.6292 4275.82 48.6635C4277.25 49.6687 4278.12 51.2886 4278.46 53.5229L4278.48 53.697C4278.97 56.9761 4277.94 59.4991 4275.42 61.2662C4272.92 63 4269.13 64.2568 4264.06 65.0366L4263.97 65.0494L4262.27 65.3004L4238.51 68.8139L4233.74 36.604L4261.3 32.5307C4264.67 32.062 4267.45 32.3616 4269.66 33.4295C4271.86 34.4973 4273.15 36.279 4273.52 38.7745L4273.54 38.9487C4273.82 40.8348 4273.66 42.4307 4273.05 43.7362C4272.44 45.0418 4271.4 46.1006 4269.92 46.9126ZM4258.11 45.8999C4259.56 45.6854 4260.62 45.4998 4261.28 45.3431C4261.96 45.1531 4262.5 44.8061 4262.9 44.3022C4263.33 43.794 4263.47 43.0321 4263.32 42.0165C4263.18 41.0879 4262.85 40.4548 4262.33 40.1172C4261.8 39.7796 4261.17 39.6209 4260.44 39.6411C4259.69 39.6323 4258.62 39.7308 4257.23 39.9367L4257.19 39.9432L4244.78 41.7771L4245.66 47.6968C4248.65 47.2549 4250.62 46.9777 4251.58 46.8652L4253.67 46.5563L4258.11 45.8999ZM4261.37 58.0057C4263 57.7654 4264.21 57.5417 4265.01 57.3346C4265.8 57.0984 4266.41 56.7117 4266.84 56.1744C4267.26 55.6082 4267.39 54.8028 4267.24 53.7581C4267.09 52.7425 4266.73 52.0535 4266.18 51.6912C4265.61 51.2998 4264.92 51.1207 4264.09 51.1537C4263.26 51.1578 4262.04 51.2799 4260.41 51.5202L4260.37 51.5266L4246.53 53.5729L4247.48 60.0149C4251.57 59.41 4254.47 58.9955 4256.19 58.7714C4257.93 58.514 4259.12 58.3382 4259.76 58.2438L4261.37 58.0057ZM4314.06 26.6998L4300.52 55.8229C4299.66 57.8835 4297.67 59.4392 4294.53 60.4898C4291.42 61.5084 4288.18 62.1563 4284.82 62.4334L4284.02 54.5089C4285.63 54.3485 4286.76 54.1471 4287.41 53.9049C4288.1 53.6597 4288.47 53.4014 4288.53 53.13C4288.62 52.8556 4288.62 52.428 4288.53 51.8472L4273.08 30.7965L4284.5 29.6541L4295.06 45.0481L4302.63 27.8421L4314.06 26.6998ZM4337.19 40.3939L4355.83 57.0661L4342.52 57.7778L4328.61 44.862L4329.34 58.4825L4318.49 59.0627L4316.75 26.5491L4327.6 25.9689L4328.21 37.2608L4339.99 25.3065L4353.44 24.5878L4337.19 40.3939ZM4377.41 51.5032C4376.12 51.5112 4374.93 51.2106 4373.84 50.6014C4372.75 49.9628 4371.88 49.1029 4371.23 48.0216C4370.61 46.9401 4370.29 45.7541 4370.28 44.4634C4370.27 43.1728 4370.57 41.9829 4371.18 40.8937C4371.82 39.7751 4372.68 38.9044 4373.76 38.2816C4374.85 37.6295 4376.03 37.2995 4377.32 37.2914C4378.61 37.2834 4379.8 37.5987 4380.89 38.2372C4382.01 38.8463 4382.88 39.7062 4383.5 40.817C4384.16 41.8983 4384.49 43.0843 4384.49 44.3749C4384.5 45.6655 4384.19 46.8555 4383.55 47.9449C4382.94 49.034 4382.08 49.9047 4380.97 50.557C4379.89 51.1797 4378.7 51.4951 4377.41 51.5032ZM4449.11 26.4318L4447.64 58.9587L4436.83 58.4706L4437.49 43.7895L4429.67 58.1472L4419.69 57.6968L4412.71 42.4947L4412.04 57.3516L4401.18 56.8615L4402.65 24.3346L4415.05 24.8941L4425.11 47.7673L4437.02 25.8862L4449.11 26.4318ZM4452.82 35.4915L4453.65 26.7299L4491.93 30.3197L4452.82 35.4915ZM4491.93 30.3197L4491.11 39.1251L4477.44 37.8436L4475.23 61.4561L4464.45 60.4457L4466.66 36.8332L4452.82 35.5353L4453.65 26.7299L4491.93 30.3197ZM4492.14 46.7919C4492.59 43.5669 4493.93 40.7924 4496.18 38.4687C4498.46 36.1489 4501.34 34.4905 4504.82 33.4934C4508.34 32.4713 4512.11 32.2385 4516.12 32.795C4519.72 33.295 4522.89 34.3278 4525.64 35.8932C4528.38 37.4296 4530.54 39.3728 4532.11 41.7228C4533.68 44.0438 4534.58 46.6413 4534.81 49.5152L4523.65 47.9668C4523.37 46.7441 4522.77 45.6388 4521.84 44.6511C4520.95 43.6383 4519.89 42.8253 4518.67 42.212C4517.45 41.5988 4516.24 41.2075 4515.02 41.0381C4513.3 40.8002 4511.58 40.917 4509.86 41.3885C4508.16 41.864 4506.72 42.6995 4505.51 43.8949C4504.34 45.0652 4503.63 46.5511 4503.38 48.3525C4503.13 50.1539 4503.41 51.7914 4504.21 53.265C4505.02 54.7096 4506.16 55.8894 4507.63 56.8045C4509.14 57.6946 4510.79 58.2646 4512.59 58.5146C4514.59 58.7928 4516.51 58.5695 4518.32 57.8446C4520.17 57.1237 4521.63 55.9335 4522.68 54.2741L4533.89 55.8286C4532.86 58.5001 4531.28 60.7528 4529.13 62.5866C4526.98 64.3915 4524.39 65.6608 4521.36 66.3948C4518.32 67.1287 4515.01 67.2456 4511.4 66.7456C4507.42 66.1932 4503.88 64.9462 4500.77 63.0047C4497.7 61.0672 4495.38 58.6725 4493.82 55.8204C4492.26 52.9684 4491.7 49.9589 4492.14 46.7919ZM4600.47 48.8823L4593.98 80.7904L4583.38 78.6352L4586.3 64.2334L4576.35 77.2071L4566.56 75.2184L4562.02 59.1198L4559.06 73.694L4548.41 71.53L4554.89 39.622L4567.05 42.0926L4573.45 66.2479L4588.61 46.4731L4600.47 48.8823ZM4643 59.3553L4620.45 82.2164C4618.95 83.8685 4616.54 84.6608 4613.23 84.5931C4609.96 84.5041 4606.7 84.0238 4603.44 83.1522L4605.36 75.4239C4606.93 75.8136 4608.06 76.0045 4608.75 75.9966C4609.48 75.9958 4609.92 75.878 4610.07 75.6431C4610.24 75.4152 4610.39 75.0131 4610.5 74.4367L4603.04 49.4091L4614.18 52.1826L4618.94 70.2338L4631.86 56.5818L4643 59.3553ZM4675.77 91.646C4674.61 95.5527 4672 97.8949 4667.95 98.6726C4663.91 99.4503 4659.06 99.0152 4653.39 97.3673C4647 95.5062 4642.43 92.9995 4639.68 89.847C4636.94 86.6664 4636.21 82.8792 4637.49 78.4856L4647.38 81.3632C4646.74 83.5319 4647.24 85.4019 4648.86 86.9733C4650.49 88.5166 4652.67 89.6718 4655.41 90.4389C4657.79 91.1921 4659.93 91.4626 4661.82 91.2504C4663.72 91.0382 4664.9 90.1616 4665.38 88.6208C4665.61 87.8322 4665.57 87.1793 4665.26 86.662C4664.96 86.1165 4664.38 85.6422 4663.52 85.2391C4662.67 84.8077 4661.43 84.3543 4659.8 83.8788L4651.98 81.6037L4653.75 75.5202L4661.57 77.7953C4663.82 78.4512 4665.51 78.6368 4666.63 78.3523C4667.75 78.0678 4668.43 77.5171 4668.67 76.7003C4668.97 75.6583 4668.36 74.656 4666.84 73.6935C4665.35 72.711 4663.42 71.8572 4661.03 71.1322C4658.3 70.337 4655.89 69.9563 4653.8 69.9903C4651.72 69.996 4650.51 70.6045 4650.16 71.8155L4640.27 68.9379C4641.45 64.8822 4644.29 62.7306 4648.79 62.483C4653.33 62.2154 4658.08 62.8031 4663.04 64.246C4666.05 65.1233 4668.79 66.1362 4671.27 67.2847C4673.78 68.4133 4675.83 69.9546 4677.39 71.9085C4678.96 73.8625 4679.36 76.1913 4678.57 78.8951C4677.77 81.6552 4675.53 83.0503 4671.85 83.0804C4675.19 85.2446 4676.51 88.0717 4675.8 91.5615L4675.77 91.646ZM4705.02 89.145C4707.66 90.044 4709.82 91.2458 4711.51 92.7507C4713.2 94.2555 4714.31 95.9976 4714.84 97.977C4715.4 99.9659 4715.3 102.085 4714.53 104.334L4714.48 104.5C4713.78 106.555 4712.6 108.184 4710.95 109.388C4709.33 110.602 4707.37 111.312 4705.07 111.52C4702.8 111.708 4700.38 111.363 4697.8 110.483L4675.39 102.846L4685.89 72.027L4696.18 75.533L4692.94 85.0287L4705.02 89.145ZM4712.37 115.451L4722.88 84.6315L4733.12 88.1233L4722.62 118.943L4712.37 115.451ZM4698.78 103.379C4700.5 103.966 4701.86 104.137 4702.88 103.894C4703.92 103.659 4704.71 102.737 4705.26 101.127C4705.65 99.9885 4705.73 99.0707 4705.5 98.3734C4705.27 97.6762 4704.84 97.126 4704.2 96.7228C4703.57 96.3197 4702.65 95.9146 4701.46 95.5077L4701.42 95.4935L4690.63 91.8172L4687.96 99.647C4691.24 100.764 4693.52 101.558 4694.82 102.031C4696.15 102.485 4697.05 102.792 4697.53 102.953L4698.78 103.379Z" fill="#1C1C1C"/>
<defs>
<filter id="filter0_f_7181_45682" x="0" y="0" width="4760.29" height="213.138" filterUnits="userSpaceOnUse" color-interpolation-filters="sRGB">
<feFlood flood-opacity="0" result="BackgroundImageFix"/>
<feBlend mode="normal" in="SourceGraphic" in2="BackgroundImageFix" result="shape"/>
<feGaussianBlur stdDeviation="1" result="effect1_foregroundBlur_7181_45682"/>
</filter>
</defs>
</svg>
