<svg width="42" height="34" viewBox="0 0 42 34" fill="none" xmlns="http://www.w3.org/2000/svg">
<path d="M1 18.2308V15.7692H6V13.3077H11V10.8462H16V8.38462H23.5V5.92308H28.5V3.46154H33.5V1H41V13.3077H38.5V28.0769H36V33H31V30.5385H26V28.0769H23.5V25.6154H18.5V20.6923H21V18.2308H23.5V15.7692H26V13.3077H21V15.7692H18.5V18.2308H13.5V20.6923H6V18.2308H1Z" fill="#1C1C1C"/>
<path d="M26 13.3077V15.7692H23.5V18.2308H21V20.6923H18.5V25.6154H23.5V28.0769H26V30.5385H31V33H36V28.0769H38.5V13.3077H41V1H33.5V3.46154H28.5V5.92308H23.5V8.38462H16V10.8462H11V13.3077H6V15.7692H1V18.2308H6V20.6923H13.5V18.2308H18.5V15.7692H21V13.3077H26ZM26 13.3077H28.5V10.8462H26V13.3077Z" stroke="#1C1C1C"/>
</svg>
