<svg width="64" height="64" viewBox="0 0 64 64" fill="none" xmlns="http://www.w3.org/2000/svg">
<rect width="64" height="64" rx="32" fill="#1C1C1C"/>
<path d="M52.218 35.8265C52.1887 38.6633 50.3407 40.7347 46.674 42.0408C43.0073 43.3469 38.226 44 32.33 44C25.6713 44 20.582 43.2143 17.062 41.6429C13.542 40.051 11.782 37.6633 11.782 34.4796H22.078C22.078 36.051 23.0753 37.2041 25.07 37.9388C27.0646 38.6531 29.4846 39 32.33 38.9796C34.8233 39.0204 36.9353 38.7857 38.666 38.2755C40.426 37.7653 41.3207 36.949 41.35 35.8265C41.3207 35.2551 41.1007 34.8265 40.69 34.5408C40.2793 34.2347 39.6047 34.0306 38.666 33.9286C37.7273 33.8061 36.4073 33.7449 34.706 33.7449H26.566V29.3367H34.706C37.0233 29.3367 38.6806 29.1327 39.678 28.7245C40.6753 28.3163 41.174 27.8163 41.174 27.2245C41.174 26.4694 40.3086 25.9184 38.578 25.5714C36.8766 25.2041 34.794 25.0102 32.33 24.9898C29.4846 24.9898 27.0646 25.2041 25.07 25.6327C23.0753 26.0408 22.078 26.6837 22.078 27.5612H11.782C11.782 24.6224 13.9086 22.6327 18.162 21.5918C22.4446 20.5306 27.1673 20 32.33 20C35.4687 20 38.3873 20.1429 41.086 20.4286C43.814 20.6939 46.2047 21.3265 48.258 22.3265C50.3113 23.3265 51.338 24.8061 51.338 26.7653C51.338 28.7653 49.578 30.1327 46.058 30.8673C49.8713 31.6633 51.9247 33.2959 52.218 35.7653V35.8265Z" fill="white"/>
</svg>
