<svg width="46" height="32" viewBox="0 0 46 32" fill="none" xmlns="http://www.w3.org/2000/svg">
<path fill-rule="evenodd" clip-rule="evenodd" d="M0 26.4258V5.78064H0.832579V2.89032H1.8733V1.85806H2.70588V1.03226H5.61991V0H40.1719V1.03226H42.8778V1.85806H43.9186V2.89032H44.9593V4.95484H46V26.2826H44.901V29.3161H43.9186V30.3484H42.8778V31.1742H39.9638V32H5.72139V31.1742H2.70588V30.3484H1.66516V29.3161H0.624434V26.4258H0ZM22.3067 9.08398H20.2252V11.0305V12.9771V14.9236V16.8702V18.8167V20.7632V22.7098H22.3067V20.7632H24.3881V18.8167H26.4696V16.8702H28.551V14.9236H26.4696V12.9771H24.3881V11.0305H22.3067V9.08398Z" fill="#1C1C1C"/>
</svg>
